<svg width="75" height="76" viewBox="0 0 75 76" fill="none" xmlns="http://www.w3.org/2000/svg">
<rect y="0.5" width="75" height="75" rx="19" fill="#131A31"/>
<path d="M24.2505 52.2499V49.3472L26.5422 47.0555V52.2499H24.2505ZM30.5526 52.2499V43.2361L32.8442 40.9444V52.2499H30.5526ZM36.8547 52.2499V40.9444L39.1463 43.2742V52.2499H36.8547ZM43.1567 52.2499V43.2742L45.4484 40.9826V52.2499H43.1567ZM49.4588 52.2499V37.1249L51.7505 34.8333V52.2499H49.4588ZM24.2505 43.2361V39.9895L34.9449 29.3715L41.056 35.4826L51.7505 24.7499V27.9965L41.056 38.7291L34.9449 32.618L24.2505 43.2361Z" fill="url(#paint0_linear_6678_11388)"/>
<defs>
<linearGradient id="paint0_linear_6678_11388" x1="38.0005" y1="52.2499" x2="38.0004" y2="24.75" gradientUnits="userSpaceOnUse">
<stop stop-color="#003BFA"/>
<stop offset="0.786458" stop-color="#68EAFC"/>
</linearGradient>
</defs>
</svg>
