<svg width="25" height="25" viewBox="0 0 25 25" fill="none" xmlns="http://www.w3.org/2000/svg">
<rect x="1" y="1" width="23" height="23" rx="11.5" stroke="url(#paint0_linear_6602_8628)"/>
<path d="M17.4933 17.4995C17.4973 17.4341 17.5028 17.3851 17.5028 17.3361C17.5033 16.1581 17.5118 14.9797 17.4978 13.8017C17.4928 13.392 17.4598 12.9784 17.3919 12.5747C17.254 11.7514 16.8183 11.1649 15.9754 10.9476C15.4927 10.8232 15.0006 10.8047 14.5094 10.8727C13.9218 10.9541 13.4067 11.1769 13.0639 11.696C13.0614 11.7 13.0434 11.694 13.0195 11.691C13.0195 11.4142 13.0195 11.1354 13.0195 10.8517C12.3954 10.8517 11.7838 10.8517 11.1773 10.8517C11.1773 13.0793 11.1773 15.2889 11.1773 17.496C11.8263 17.496 12.4584 17.496 13.1044 17.496C13.1044 17.4011 13.1039 17.3207 13.1044 17.2402C13.1134 16.0687 13.1134 14.8967 13.1389 13.7252C13.1439 13.5024 13.2158 13.2681 13.3093 13.0628C13.5216 12.5967 13.9388 12.4758 14.411 12.4883C14.8712 12.5003 15.2059 12.7141 15.3433 13.1567C15.4268 13.4265 15.4812 13.7162 15.4857 13.998C15.5027 15.0886 15.4947 16.1796 15.4957 17.2707C15.4957 17.3436 15.4957 17.4166 15.4957 17.5C16.1702 17.4995 16.8218 17.4995 17.4933 17.4995ZM9.82371 10.8467C9.03827 10.8467 8.2753 10.8467 7.50884 10.8467C7.50884 13.0723 7.50884 15.2849 7.50884 17.498C8.2878 17.498 9.05076 17.498 9.82371 17.498C9.82371 15.2774 9.82371 13.0693 9.82371 10.8467ZM8.67452 7.50006C8.03847 7.49357 7.50685 8.01262 7.49435 8.65307C7.48186 9.29253 8.01998 9.83906 8.66103 9.83856C9.29958 9.83806 9.82471 9.31701 9.83221 8.67605C9.8402 8.0436 9.31107 7.50655 8.67452 7.50006Z" fill="white"/>
<defs>
<linearGradient id="paint0_linear_6602_8628" x1="12.5" y1="29.0848" x2="12.5" y2="-3.69956" gradientUnits="userSpaceOnUse">
<stop stop-color="#EDEDEE"/>
<stop offset="0.494792" stop-color="#181C24"/>
<stop offset="1" stop-color="#EDEDEE"/>
</linearGradient>
</defs>
</svg>
