<svg width="75" height="76" viewBox="0 0 75 76" fill="none" xmlns="http://www.w3.org/2000/svg">
<rect y="0.5" width="75" height="75" rx="19" fill="#131A31"/>
<path d="M48.4277 33.7638L46.7471 30.1736L43.1568 28.493L46.7471 26.8124L48.4277 23.2222L50.1082 26.8124L53.6985 28.493L50.1082 30.1736L48.4277 33.7638ZM51.636 44.802L50.4902 42.3958L48.0839 41.2499L50.4902 40.1041L51.636 37.6979L52.7818 40.1041L55.1881 41.2499L52.7818 42.3958L51.636 44.802ZM31.6603 53.7777L31.2784 50.2638C30.9219 50.2129 30.5527 50.0983 30.1707 49.9201C29.7888 49.7418 29.4578 49.5254 29.1777 49.2708L26.1985 50.5312L22.8374 45.0312L25.7402 43.1215C25.6129 42.6886 25.5492 42.3067 25.5492 41.9756C25.5492 41.6446 25.6129 41.2627 25.7402 40.8298L22.8374 38.9201L26.1985 33.4201L29.1777 34.6805C29.4578 34.4259 29.7888 34.2094 30.1707 34.0312C30.5527 33.853 30.9219 33.7384 31.2784 33.6874L31.6603 30.1736H38.077L38.4589 33.6874C38.8154 33.7384 39.1846 33.853 39.5666 34.0312C39.9485 34.2094 40.2795 34.4259 40.5596 34.6805L43.5388 33.4201L46.8999 38.9201L43.9971 40.8298C44.1244 41.2627 44.1881 41.6446 44.1881 41.9756C44.1881 42.3067 44.1244 42.6886 43.9971 43.1215L46.8999 45.0312L43.5388 50.5312L40.5596 49.2708C40.2795 49.5254 39.9485 49.7418 39.5666 49.9201C39.1846 50.0983 38.8154 50.2129 38.4589 50.2638L38.077 53.7777H31.6603ZM34.8687 46.368C36.1418 46.368 37.1921 45.9542 38.0197 45.1267C38.8472 44.2991 39.261 43.2488 39.261 41.9756C39.261 40.7025 38.8472 39.6521 38.0197 38.8246C37.1921 37.9971 36.1418 37.5833 34.8687 37.5833C33.5955 37.5833 32.5452 37.9971 31.7176 38.8246C30.8901 39.6521 30.4763 40.7025 30.4763 41.9756C30.4763 43.2488 30.8901 44.2991 31.7176 45.1267C32.5452 45.9542 33.5955 46.368 34.8687 46.368Z" fill="url(#paint0_linear_6678_11389)"/>
<defs>
<linearGradient id="paint0_linear_6678_11389" x1="52.9109" y1="53.7777" x2="23.1032" y2="29.5576" gradientUnits="userSpaceOnUse">
<stop offset="0.15625" stop-color="#2800FD"/>
<stop offset="0.885417" stop-color="#0ACAFF"/>
</linearGradient>
</defs>
</svg>
