<svg width="75" height="76" viewBox="0 0 75 76" fill="none" xmlns="http://www.w3.org/2000/svg">
<rect y="0.5" width="75" height="75" rx="19" fill="#131A31"/>
<path d="M23.0664 47.3229L21.1948 45.9479L28.3754 34.4895L32.9423 39.8368L39.0316 29.9826L43.1948 36.1701C42.7874 36.221 42.3927 36.3038 42.0108 36.4183C41.6289 36.5329 41.2469 36.6666 40.865 36.8194L39.1462 34.184L33.3194 43.6944L28.6809 38.309L23.0664 47.3229ZM53.1636 55.3055L48.0455 50.1874C47.5108 50.5694 46.9315 50.8622 46.3077 51.0659C45.6838 51.2696 45.0409 51.3715 44.3789 51.3715C42.5752 51.3715 41.0421 50.7398 39.7796 49.4763C38.5171 48.2129 37.8858 46.6788 37.8858 44.8739C37.8858 43.069 38.5175 41.5364 39.7809 40.276C41.0443 39.0156 42.5785 38.3854 44.3834 38.3854C46.1882 38.3854 47.7209 39.0166 48.9813 40.2792C50.2417 41.5417 50.8719 43.0748 50.8719 44.8784C50.8719 45.5405 50.7637 46.1834 50.5473 46.8072C50.3308 47.4311 50.0444 48.0288 49.6879 48.6004L54.8059 53.6631L53.1636 55.3055ZM44.3735 49.0798C45.5484 49.0798 46.5432 48.6742 47.358 47.863C48.1728 47.0517 48.5802 46.0587 48.5802 44.8838C48.5802 43.7089 48.1746 42.7141 47.3634 41.8993C46.5522 41.0844 45.5591 40.677 44.3842 40.677C43.2094 40.677 42.2145 41.0826 41.3997 41.8939C40.5849 42.7051 40.1775 43.6981 40.1775 44.873C40.1775 46.0479 40.5831 47.0428 41.3943 47.8576C42.2055 48.6724 43.1986 49.0798 44.3735 49.0798ZM47.2052 36.552C46.8233 36.3993 46.4286 36.2974 46.0212 36.2465C45.6138 36.1955 45.1937 36.1446 44.7608 36.0937L52.9344 23.2222L54.8059 24.5972L47.2052 36.552Z" fill="url(#paint0_linear_4607_10371)"/>
<defs>
<linearGradient id="paint0_linear_4607_10371" x1="52.44" y1="55.3055" x2="21.2112" y2="30.1974" gradientUnits="userSpaceOnUse">
<stop offset="0.15625" stop-color="#2800FD"/>
<stop offset="0.885417" stop-color="#0ACAFF"/>
</linearGradient>
</defs>
</svg>
