<svg width="75" height="76" viewBox="0 0 75 76" fill="none" xmlns="http://www.w3.org/2000/svg">
<rect y="0.5" width="75" height="75" rx="19" fill="#131A31"/>
<path d="M25.2816 42.4722C24.1358 42.4722 23.1682 42.0748 22.3789 41.2802C21.5895 40.4855 21.1948 39.5206 21.1948 38.3854C21.1948 37.2501 21.5921 36.2852 22.3868 35.4905C23.1815 34.6959 24.1464 34.2986 25.2816 34.2986V29.6006C25.2816 28.9895 25.5108 28.4548 25.9691 27.9965C26.4275 27.5381 26.9622 27.309 27.5733 27.309H33.9136C33.9136 26.1631 34.3109 25.1955 35.1055 24.4062C35.9002 23.6168 36.8652 23.2222 38.0004 23.2222C39.1356 23.2222 40.1005 23.6195 40.8952 24.4141C41.6899 25.2088 42.0872 26.1738 42.0872 27.309H48.4275C49.0386 27.309 49.5733 27.5381 50.0316 27.9965C50.49 28.4548 50.7191 28.9895 50.7191 29.6006V34.2986C51.865 34.2986 52.8326 34.6959 53.6219 35.4905C54.4113 36.2852 54.8059 37.2501 54.8059 38.3854C54.8059 39.5206 54.4086 40.4855 53.614 41.2802C52.8193 42.0748 51.8543 42.4722 50.7191 42.4722V49.9583C50.7191 50.5694 50.49 51.1041 50.0316 51.5624C49.5733 52.0208 49.0386 52.2499 48.4275 52.2499H27.5733C26.9622 52.2499 26.4275 52.0208 25.9691 51.5624C25.5108 51.1041 25.2816 50.5694 25.2816 49.9583V42.4722ZM32.7767 38.6527C33.2036 38.6527 33.5635 38.5033 33.8563 38.2045C34.1491 37.9057 34.2955 37.5428 34.2955 37.116C34.2955 36.6891 34.1461 36.3292 33.8473 36.0364C33.5485 35.7436 33.1856 35.5972 32.7588 35.5972C32.3319 35.5972 31.972 35.7466 31.6792 36.0454C31.3864 36.3442 31.24 36.7071 31.24 37.1339C31.24 37.5608 31.3894 37.9207 31.6882 38.2135C31.987 38.5063 32.3499 38.6527 32.7767 38.6527ZM43.242 38.6527C43.6689 38.6527 44.0287 38.5033 44.3216 38.2045C44.6144 37.9057 44.7608 37.5428 44.7608 37.116C44.7608 36.6891 44.6114 36.3292 44.3126 36.0364C44.0138 35.7436 43.6509 35.5972 43.224 35.5972C42.7972 35.5972 42.4373 35.7466 42.1445 36.0454C41.8517 36.3442 41.7052 36.7071 41.7052 37.1339C41.7052 37.5608 41.8546 37.9207 42.1535 38.2135C42.4523 38.5063 42.8151 38.6527 43.242 38.6527ZM31.5837 45.9479H44.417V43.6562H31.5837V45.9479Z" fill="url(#paint0_linear_6678_11387)"/>
<defs>
<linearGradient id="paint0_linear_6678_11387" x1="38.0004" y1="52.25" x2="38.0003" y2="23.2222" gradientUnits="userSpaceOnUse">
<stop stop-color="#003BFA"/>
<stop offset="0.786458" stop-color="#68EAFC"/>
</linearGradient>
</defs>
</svg>
