<svg width="25" height="25" viewBox="0 0 25 25" fill="none" xmlns="http://www.w3.org/2000/svg">
<rect x="1" y="1" width="23" height="23" rx="11.5" stroke="url(#paint0_linear_6602_8634)"/>
<path d="M16.4574 8.75092C15.7078 8.3956 14.9192 8.13919 14.106 8C14.0034 8.18681 13.8867 8.43956 13.8054 8.64103C12.9426 8.50916 12.0622 8.50916 11.1994 8.64103C11.1074 8.42125 11.0049 8.20879 10.8918 8C10.0785 8.14286 9.28642 8.3956 8.53679 8.75458C7.05168 11.0476 6.64858 13.2857 6.85013 15.4908C7.71998 16.1612 8.69591 16.6703 9.73549 17C9.96886 16.6703 10.1775 16.326 10.3543 15.9597C10.0184 15.8278 9.69306 15.6667 9.38189 15.4799C9.46322 15.4176 9.54101 15.3516 9.61527 15.2894C11.4434 16.1832 13.5614 16.1832 15.386 15.2894C15.4638 15.3553 15.5451 15.4212 15.6229 15.4799C15.3117 15.6703 14.9864 15.8315 14.647 15.9634C14.8238 16.326 15.0324 16.674 15.2658 17C16.3053 16.674 17.2813 16.1648 18.1511 15.4908C18.3845 12.9377 17.7445 10.7179 16.4538 8.75458L16.4574 8.75092ZM10.6053 14.1355C10.0431 14.1355 9.57991 13.6007 9.57991 12.9451C9.57991 12.2894 10.0325 11.7509 10.6053 11.7509C11.1782 11.7509 11.6343 12.2857 11.6308 12.9414C11.6272 13.5971 11.1782 14.1355 10.6053 14.1355ZM14.3924 14.1355C13.8302 14.1355 13.3669 13.6007 13.3669 12.9451C13.3669 12.2894 13.8195 11.7509 14.3924 11.7509C14.9652 11.7509 15.4213 12.2857 15.4178 12.9414C15.4143 13.5971 14.9652 14.1355 14.3924 14.1355Z" fill="white"/>
<defs>
<linearGradient id="paint0_linear_6602_8634" x1="12.5" y1="29.0848" x2="12.5" y2="-3.69956" gradientUnits="userSpaceOnUse">
<stop stop-color="#EDEDEE"/>
<stop offset="0.494792" stop-color="#181C24"/>
<stop offset="1" stop-color="#EDEDEE"/>
</linearGradient>
</defs>
</svg>
