<svg width="25" height="25" viewBox="0 0 25 25" fill="none" xmlns="http://www.w3.org/2000/svg">
<rect x="1" y="1" width="23" height="22.9996" rx="11.4998" stroke="url(#paint0_linear_6602_8623)"/>
<path d="M15.1468 9.28418C14.8238 9.28418 14.5586 9.54455 14.5586 9.87242C14.5586 10.2003 14.819 10.4607 15.1468 10.4607C15.4747 10.4607 15.7351 10.2003 15.7351 9.87242C15.7351 9.54455 15.4747 9.28418 15.1468 9.28418Z" fill="white"/>
<path d="M12.5434 10.0361C11.1837 10.0361 10.0796 11.1403 10.0796 12.5C10.0796 13.8597 11.1837 14.9638 12.5434 14.9638C13.9031 14.9638 15.0073 13.8597 15.0073 12.5C15.0073 11.1403 13.9031 10.0361 12.5434 10.0361ZM12.5434 14.0766C11.6755 14.0766 10.9668 13.3679 10.9668 12.5C10.9668 11.6321 11.6755 10.9233 12.5434 10.9233C13.4113 10.9233 14.1201 11.6321 14.1201 12.5C14.1201 13.3679 13.4113 14.0766 12.5434 14.0766Z" fill="white"/>
<path d="M14.4961 17.5H10.5039C8.84523 17.5 7.5 16.15 7.5 14.4961V10.5039C7.5 8.84523 8.84523 7.5 10.5039 7.5H14.4961C16.1548 7.5 17.5 8.84523 17.5 10.5039V14.4961C17.5 16.1548 16.15 17.5 14.4961 17.5ZM10.5039 8.44021C9.36596 8.44021 8.44021 9.36596 8.44021 10.5039V14.4961C8.44021 15.634 9.36596 16.5598 10.5039 16.5598H14.4961C15.634 16.5598 16.5598 15.634 16.5598 14.4961V10.5039C16.5598 9.36596 15.634 8.44021 14.4961 8.44021H10.5039Z" fill="white"/>
<defs>
<linearGradient id="paint0_linear_6602_8623" x1="12.5" y1="29.0842" x2="12.5" y2="-3.69948" gradientUnits="userSpaceOnUse">
<stop stop-color="#EDEDEE"/>
<stop offset="0.494792" stop-color="#181C24"/>
<stop offset="1" stop-color="#EDEDEE"/>
</linearGradient>
</defs>
</svg>
