<svg width="54" height="37" viewBox="0 0 54 37" fill="none" xmlns="http://www.w3.org/2000/svg">
<rect x="0.408936" y="0.702393" width="52.7271" height="35.9155" rx="4.20288" fill="white" stroke="#D9D9D9" stroke-width="0.76416"/>
<path fill-rule="evenodd" clip-rule="evenodd" d="M16.2657 25.1682H13.0251L10.5951 15.8976C10.4798 15.4711 10.2349 15.0941 9.87465 14.9164C8.97565 14.4699 7.985 14.1145 6.9043 13.9353V13.5784H12.1245C12.845 13.5784 13.3854 14.1145 13.4754 14.7372L14.7362 21.4244L17.9752 13.5784H21.1257L16.2657 25.1682ZM22.9267 25.1682H19.8663L22.3864 13.5784H25.4468L22.9267 25.1682ZM29.4062 16.7891C29.4963 16.1648 30.0366 15.8079 30.6671 15.8079C31.6577 15.7183 32.7368 15.8975 33.6374 16.3425L34.1778 13.8472C33.2772 13.4903 32.2865 13.311 31.3875 13.311C28.4172 13.311 26.2558 14.9164 26.2558 17.1444C26.2558 18.8394 27.7868 19.7294 28.8675 20.2655C30.0366 20.8001 30.4869 21.1571 30.3969 21.6917C30.3969 22.4936 29.4963 22.8505 28.5973 22.8505C27.5166 22.8505 26.4359 22.5832 25.4468 22.1366L24.9065 24.6335C25.9872 25.0785 27.1563 25.2577 28.2371 25.2577C31.5676 25.3458 33.6374 23.742 33.6374 21.3347C33.6374 18.3033 29.4062 18.1256 29.4062 16.7891ZM44.348 25.1682L41.918 13.5784H39.3079C38.7675 13.5784 38.2272 13.9353 38.0471 14.4699L33.5473 25.1682H36.6978L37.3266 23.4747H41.1975L41.5578 25.1682H44.348ZM39.7582 16.6994L40.6572 21.0674H38.1371L39.7582 16.6994Z" fill="#172B85"/>
</svg>
