<svg width="49" height="47" viewBox="0 0 49 47" fill="none" xmlns="http://www.w3.org/2000/svg">
<g filter="url(#filter0_f_151_4792)">
<path d="M35.5063 22.667C35.5063 16.5367 30.5366 11.563 24.4024 11.563C18.2681 11.563 13.2984 16.5327 13.2984 22.667C13.2984 28.8013 18.2681 33.771 24.4024 33.771C30.5366 33.771 35.5063 28.7972 35.5063 22.667ZM14.3417 22.667C14.3417 17.1109 18.8463 12.6022 24.4064 12.6022C29.9665 12.6022 34.4671 17.1109 34.4671 22.667C34.4671 28.223 29.9624 32.7317 24.4024 32.7317C18.8423 32.7317 14.3376 28.227 14.3376 22.667L14.3417 22.667Z" fill="white"/>
<path d="M35.3726 16.1367C35.3726 16.0073 35.4414 15.89 35.5506 15.8254C35.7204 15.7243 35.9428 15.7849 36.0399 15.9588C36.0722 16.0154 36.0884 16.0761 36.0884 16.1367C36.0884 16.2661 36.0196 16.3834 35.9105 16.4481C35.8255 16.4966 35.7285 16.5087 35.6395 16.4845C35.5465 16.4602 35.4697 16.3996 35.4212 16.3187C35.3888 16.2621 35.3726 16.2014 35.3726 16.1408L35.3726 16.1367Z" fill="white"/>
<g style="mix-blend-mode:overlay">
<path d="M12.7516 29.1978C12.7516 29.0684 12.8203 28.9511 12.9295 28.8864C13.0144 28.8379 13.1114 28.8258 13.2004 28.85C13.2934 28.8743 13.3702 28.9349 13.4188 29.0158C13.4511 29.0724 13.4673 29.1331 13.4673 29.1937C13.4673 29.3231 13.3985 29.4404 13.2894 29.5051C13.2044 29.5536 13.1074 29.5658 13.0184 29.5415C12.9295 29.5172 12.8486 29.4566 12.8001 29.3757C12.7677 29.3191 12.7516 29.2584 12.7516 29.1978Z" fill="white"/>
</g>
<path d="M33.2988 13.4307C33.2988 13.3337 33.3352 13.2447 33.4039 13.176C33.5454 13.0344 33.7719 13.0344 33.9134 13.176C33.9822 13.2447 34.0186 13.3337 34.0186 13.4307C34.0186 13.5278 33.9822 13.6167 33.9134 13.6855C33.7719 13.827 33.5454 13.827 33.4039 13.6855C33.3352 13.6167 33.2988 13.5278 33.2988 13.4307Z" fill="white"/>
<g style="mix-blend-mode:overlay">
<path d="M14.8271 31.9024C14.8271 31.8054 14.8635 31.7164 14.9322 31.6477C15.0738 31.5061 15.3002 31.5061 15.4417 31.6477C15.5105 31.7164 15.5469 31.8054 15.5469 31.9024C15.5469 31.9995 15.5105 32.0884 15.4417 32.1572C15.3002 32.2987 15.0738 32.2987 14.9322 32.1572C14.8635 32.0884 14.8271 31.9995 14.8271 31.9024Z" fill="white"/>
</g>
<path d="M30.5938 11.3573C30.5938 11.2926 30.61 11.232 30.6424 11.1794C30.6909 11.0945 30.7677 11.0379 30.8607 11.0136C30.9537 10.9893 31.0508 11.0015 31.1316 11.05C31.2408 11.1147 31.3096 11.232 31.3096 11.3614C31.3096 11.4261 31.2934 11.4867 31.261 11.5393C31.2125 11.6242 31.1357 11.6808 31.0427 11.7051C30.9497 11.7293 30.8526 11.7172 30.7677 11.6687C30.6585 11.604 30.5898 11.4867 30.5898 11.3573L30.5938 11.3573Z" fill="white"/>
<g style="mix-blend-mode:overlay">
<path d="M17.5323 33.9774C17.5323 33.9127 17.5485 33.8521 17.5808 33.7995C17.6294 33.7146 17.7062 33.658 17.7992 33.6337C17.8922 33.6095 17.9892 33.6216 18.0701 33.6701C18.1793 33.7348 18.248 33.8521 18.248 33.9815C18.248 34.0462 18.2319 34.1068 18.1995 34.1594C18.151 34.2443 18.0742 34.3009 17.9812 34.3252C17.8882 34.3494 17.7911 34.3373 17.7102 34.2888C17.6011 34.2241 17.5323 34.1068 17.5323 33.9774Z" fill="white"/>
</g>
<path d="M27.4434 10.0508C27.4434 10.0185 27.4475 9.98611 27.4556 9.9578C27.4798 9.8648 27.5405 9.78797 27.6214 9.73944C27.7063 9.69092 27.8033 9.67879 27.8923 9.70305C28.05 9.74349 28.1592 9.88906 28.1592 10.0508C28.1592 10.0832 28.1592 10.1115 28.147 10.1438C28.0945 10.3339 27.8963 10.4511 27.7063 10.3986C27.5486 10.3581 27.4394 10.2126 27.4394 10.0508L27.4434 10.0508Z" fill="white"/>
<g style="mix-blend-mode:overlay">
<path d="M20.6816 35.2842C20.6816 35.2518 20.6816 35.2235 20.6937 35.1912C20.7463 35.0011 20.9444 34.8838 21.1345 34.9364C21.2922 34.9769 21.4014 35.1224 21.4014 35.2842C21.4014 35.3165 21.3973 35.3489 21.3892 35.3772C21.365 35.4702 21.3043 35.547 21.2234 35.5955C21.1385 35.6441 21.0455 35.6562 20.9525 35.6319C20.7948 35.5915 20.6856 35.4459 20.6856 35.2842L20.6816 35.2842Z" fill="white"/>
</g>
<path d="M24.062 9.60549C24.062 9.80426 24.2231 9.96538 24.4218 9.96538C24.6206 9.96538 24.7817 9.80426 24.7817 9.60549C24.7817 9.40673 24.6206 9.24561 24.4218 9.24561C24.2231 9.24561 24.062 9.40673 24.062 9.60549Z" fill="white"/>
<g style="mix-blend-mode:overlay">
<path d="M24.062 35.7276C24.062 35.9263 24.2231 36.0875 24.4218 36.0875C24.6206 36.0875 24.7817 35.9263 24.7817 35.7276C24.7817 35.5288 24.6206 35.3677 24.4218 35.3677C24.2231 35.3677 24.062 35.5288 24.062 35.7276Z" fill="white"/>
</g>
<g style="mix-blend-mode:overlay">
<path d="M20.6812 10.0508C20.6812 9.88906 20.7904 9.74753 20.9481 9.70305C21.0411 9.67879 21.1382 9.69092 21.219 9.73944C21.304 9.78797 21.3606 9.8648 21.3848 9.9578C21.3929 9.99015 21.397 10.0185 21.397 10.0508C21.397 10.2126 21.2878 10.3541 21.1301 10.3986C20.94 10.4511 20.7419 10.3339 20.6893 10.1438C20.6812 10.1115 20.6772 10.0832 20.6772 10.0508L20.6812 10.0508Z" fill="white"/>
</g>
<g style="mix-blend-mode:overlay">
<path d="M27.4423 35.2842C27.4423 35.1224 27.5515 34.9809 27.7092 34.9364C27.8993 34.8838 28.0974 35.0011 28.15 35.1912C28.1581 35.2235 28.1621 35.2518 28.1621 35.2842C28.1621 35.4459 28.0529 35.5875 27.8952 35.6319C27.8022 35.6562 27.7052 35.6441 27.6243 35.5955C27.5394 35.547 27.4828 35.4702 27.4585 35.3772C27.4504 35.3448 27.4464 35.3165 27.4464 35.2842L27.4423 35.2842Z" fill="white"/>
</g>
<g style="mix-blend-mode:overlay">
<path d="M17.5328 11.357C17.5328 11.2276 17.6015 11.1103 17.7107 11.0456C17.7956 10.9971 17.8927 10.9849 17.9817 11.0092C18.0747 11.0335 18.1515 11.0941 18.2 11.175C18.2324 11.2316 18.2485 11.2923 18.2485 11.3529C18.2485 11.4823 18.1798 11.5996 18.0706 11.6643C17.9857 11.7128 17.8886 11.7249 17.7997 11.7007C17.7067 11.6764 17.6298 11.6158 17.5813 11.5349C17.549 11.4783 17.5328 11.4176 17.5328 11.357Z" fill="white"/>
</g>
<g style="mix-blend-mode:overlay">
<path d="M30.5943 33.9782C30.5943 33.8488 30.6631 33.7315 30.7722 33.6668C30.9421 33.5698 31.1645 33.6264 31.2615 33.8003C31.2939 33.8569 31.3101 33.9175 31.3101 33.9782C31.3101 34.1076 31.2413 34.2248 31.1321 34.2895C31.0472 34.3381 30.9502 34.3502 30.8612 34.3259C30.7682 34.3017 30.6914 34.241 30.6428 34.1601C30.6105 34.1035 30.5943 34.0429 30.5943 33.9822L30.5943 33.9782Z" fill="white"/>
</g>
<g style="mix-blend-mode:overlay">
<path d="M14.8271 13.4307C14.8271 13.3337 14.8635 13.2447 14.9322 13.176C15.0738 13.0344 15.3002 13.0344 15.4417 13.176C15.5105 13.2447 15.5469 13.3337 15.5469 13.4307C15.5469 13.5278 15.5105 13.6167 15.4417 13.6855C15.3002 13.827 15.0738 13.827 14.9322 13.6855C14.8635 13.6167 14.8271 13.5278 14.8271 13.4307Z" fill="white"/>
</g>
<g style="mix-blend-mode:overlay">
<path d="M33.2988 31.9024C33.2988 31.8054 33.3352 31.7164 33.4039 31.6477C33.5454 31.5061 33.7719 31.5061 33.9134 31.6477C33.9822 31.7164 34.0186 31.8054 34.0186 31.9024C34.0186 31.9995 33.9822 32.0884 33.9134 32.1572C33.7719 32.2987 33.5454 32.2987 33.4039 32.1572C33.3352 32.0884 33.2988 31.9995 33.2988 31.9024Z" fill="white"/>
</g>
<g style="mix-blend-mode:overlay">
<path d="M12.7181 16.1247C12.7181 16.06 12.7342 15.9993 12.7666 15.9467C12.8677 15.7729 13.086 15.7163 13.2599 15.8133C13.3732 15.878 13.4419 15.9993 13.4419 16.1247C13.4419 16.1894 13.4257 16.25 13.3934 16.3026C13.2923 16.4765 13.0739 16.5331 12.9 16.436C12.7868 16.3713 12.7181 16.25 12.7181 16.1247Z" fill="white"/>
</g>
<g style="mix-blend-mode:overlay">
<path d="M35.3704 29.2052C35.3704 29.1405 35.3866 29.0799 35.4189 29.0273C35.52 28.8534 35.7384 28.7968 35.9123 28.8939C36.0255 28.9586 36.0942 29.0799 36.0942 29.2052C36.0942 29.2699 36.0781 29.3306 36.0457 29.3832C35.9446 29.557 35.7263 29.6136 35.5524 29.5166C35.4392 29.4519 35.3704 29.3306 35.3704 29.2052Z" fill="white"/>
</g>
<g style="mix-blend-mode:overlay">
<path d="M11.4119 19.2842C11.4119 19.2519 11.416 19.2195 11.4241 19.1912C11.4483 19.0982 11.509 19.0214 11.5939 18.9728C11.6788 18.9243 11.7759 18.9122 11.8689 18.9364C12.0266 18.9769 12.1357 19.1225 12.1357 19.2842C12.1357 19.3166 12.1317 19.3489 12.1236 19.3772C12.0993 19.4702 12.0387 19.547 11.9538 19.5956C11.8689 19.6441 11.7718 19.6562 11.6788 19.632C11.5211 19.5915 11.4119 19.446 11.4119 19.2842Z" fill="white"/>
</g>
<g style="mix-blend-mode:overlay">
<path d="M36.6762 26.0537C36.6762 26.0214 36.6803 25.989 36.6883 25.9607C36.7409 25.7706 36.9391 25.6534 37.1291 25.7059C37.2868 25.7464 37.396 25.892 37.396 26.0537C37.396 26.0861 37.392 26.1184 37.3839 26.1467C37.3596 26.2397 37.2989 26.3165 37.214 26.3651C37.1291 26.4136 37.0321 26.4257 36.9391 26.4015C36.7814 26.361 36.6722 26.2155 36.6722 26.0537L36.6762 26.0537Z" fill="white"/>
</g>
<path d="M37.124 22.667C37.124 22.4689 37.2857 22.3071 37.4839 22.3071C37.682 22.3071 37.8437 22.4689 37.8437 22.667C37.8437 22.8652 37.682 23.0269 37.4839 23.0269C37.2857 23.0269 37.124 22.8652 37.124 22.667Z" fill="white"/>
<g style="mix-blend-mode:overlay">
<path d="M10.9648 22.667C10.9648 22.4689 11.1265 22.3071 11.3247 22.3071C11.5228 22.3071 11.6846 22.4689 11.6846 22.667C11.6846 22.8652 11.5228 23.0269 11.3247 23.0269C11.1265 23.0269 10.9648 22.8652 10.9648 22.667Z" fill="white"/>
</g>
<path d="M36.6791 19.2866C36.6791 19.1249 36.7883 18.9833 36.946 18.9389C37.1361 18.8863 37.3342 19.0036 37.3868 19.1936C37.3949 19.226 37.3989 19.2543 37.3989 19.2866C37.3989 19.4484 37.2897 19.5899 37.132 19.6344C36.942 19.6869 36.7438 19.5697 36.6913 19.3796C36.6832 19.3473 36.6791 19.319 36.6791 19.2866Z" fill="white"/>
<g style="mix-blend-mode:overlay">
<path d="M11.4459 26.0479C11.4459 25.8861 11.5551 25.7446 11.7128 25.7001C11.8058 25.6759 11.9028 25.688 11.9837 25.7365C12.0646 25.785 12.1252 25.8619 12.1495 25.9549C12.1576 25.9872 12.1616 26.0155 12.1616 26.0479C12.1616 26.2096 12.0524 26.3512 11.8947 26.3956C11.8017 26.4199 11.7047 26.4078 11.6238 26.3592C11.5389 26.3107 11.4823 26.2339 11.458 26.1409C11.4499 26.1085 11.4459 26.0802 11.4459 26.0479Z" fill="white"/>
</g>
</g>
<path d="M35.5063 22.667C35.5063 16.5367 30.5366 11.563 24.4024 11.563C18.2681 11.563 13.2984 16.5327 13.2984 22.667C13.2984 28.8013 18.2681 33.771 24.4024 33.771C30.5366 33.771 35.5063 28.7972 35.5063 22.667ZM14.3417 22.667C14.3417 17.1109 18.8463 12.6022 24.4064 12.6022C29.9665 12.6022 34.4671 17.1109 34.4671 22.667C34.4671 28.223 29.9624 32.7317 24.4024 32.7317C18.8423 32.7317 14.3376 28.227 14.3376 22.667L14.3417 22.667Z" fill="white"/>
<path d="M35.3726 16.1367C35.3726 16.0073 35.4414 15.89 35.5506 15.8254C35.7204 15.7243 35.9428 15.7849 36.0399 15.9588C36.0722 16.0154 36.0884 16.0761 36.0884 16.1367C36.0884 16.2661 36.0196 16.3834 35.9105 16.4481C35.8255 16.4966 35.7285 16.5087 35.6395 16.4845C35.5465 16.4602 35.4697 16.3996 35.4212 16.3187C35.3888 16.2621 35.3726 16.2014 35.3726 16.1408L35.3726 16.1367Z" fill="white"/>
<g style="mix-blend-mode:overlay">
<path d="M12.7516 29.1978C12.7516 29.0684 12.8203 28.9511 12.9295 28.8864C13.0144 28.8379 13.1114 28.8258 13.2004 28.85C13.2934 28.8743 13.3702 28.9349 13.4188 29.0158C13.4511 29.0724 13.4673 29.1331 13.4673 29.1937C13.4673 29.3231 13.3985 29.4404 13.2894 29.5051C13.2044 29.5536 13.1074 29.5658 13.0184 29.5415C12.9295 29.5172 12.8486 29.4566 12.8001 29.3757C12.7677 29.3191 12.7516 29.2584 12.7516 29.1978Z" fill="white"/>
</g>
<path d="M33.2988 13.4307C33.2988 13.3337 33.3352 13.2447 33.4039 13.176C33.5454 13.0344 33.7719 13.0344 33.9134 13.176C33.9822 13.2447 34.0186 13.3337 34.0186 13.4307C34.0186 13.5278 33.9822 13.6167 33.9134 13.6855C33.7719 13.827 33.5454 13.827 33.4039 13.6855C33.3352 13.6167 33.2988 13.5278 33.2988 13.4307Z" fill="white"/>
<g style="mix-blend-mode:overlay">
<path d="M14.8271 31.9024C14.8271 31.8054 14.8635 31.7164 14.9322 31.6477C15.0738 31.5061 15.3002 31.5061 15.4417 31.6477C15.5105 31.7164 15.5469 31.8054 15.5469 31.9024C15.5469 31.9995 15.5105 32.0884 15.4417 32.1572C15.3002 32.2987 15.0738 32.2987 14.9322 32.1572C14.8635 32.0884 14.8271 31.9995 14.8271 31.9024Z" fill="white"/>
</g>
<path d="M30.5938 11.3573C30.5938 11.2926 30.61 11.232 30.6424 11.1794C30.6909 11.0945 30.7677 11.0379 30.8607 11.0136C30.9537 10.9893 31.0508 11.0015 31.1316 11.05C31.2408 11.1147 31.3096 11.232 31.3096 11.3614C31.3096 11.4261 31.2934 11.4867 31.261 11.5393C31.2125 11.6242 31.1357 11.6808 31.0427 11.7051C30.9497 11.7293 30.8526 11.7172 30.7677 11.6687C30.6585 11.604 30.5898 11.4867 30.5898 11.3573L30.5938 11.3573Z" fill="white"/>
<g style="mix-blend-mode:overlay">
<path d="M17.5323 33.9774C17.5323 33.9127 17.5485 33.8521 17.5808 33.7995C17.6294 33.7146 17.7062 33.658 17.7992 33.6337C17.8922 33.6095 17.9892 33.6216 18.0701 33.6701C18.1793 33.7348 18.248 33.8521 18.248 33.9815C18.248 34.0462 18.2319 34.1068 18.1995 34.1594C18.151 34.2443 18.0742 34.3009 17.9812 34.3252C17.8882 34.3494 17.7911 34.3373 17.7102 34.2888C17.6011 34.2241 17.5323 34.1068 17.5323 33.9774Z" fill="white"/>
</g>
<path d="M27.4434 10.0508C27.4434 10.0185 27.4475 9.98611 27.4556 9.9578C27.4798 9.8648 27.5405 9.78797 27.6214 9.73944C27.7063 9.69092 27.8033 9.67879 27.8923 9.70305C28.05 9.74349 28.1592 9.88906 28.1592 10.0508C28.1592 10.0832 28.1592 10.1115 28.147 10.1438C28.0945 10.3339 27.8963 10.4511 27.7063 10.3986C27.5486 10.3581 27.4394 10.2126 27.4394 10.0508L27.4434 10.0508Z" fill="white"/>
<g style="mix-blend-mode:overlay">
<path d="M20.6816 35.2842C20.6816 35.2518 20.6816 35.2235 20.6937 35.1912C20.7463 35.0011 20.9444 34.8838 21.1345 34.9364C21.2922 34.9769 21.4014 35.1224 21.4014 35.2842C21.4014 35.3165 21.3973 35.3489 21.3892 35.3772C21.365 35.4702 21.3043 35.547 21.2234 35.5955C21.1385 35.6441 21.0455 35.6562 20.9525 35.6319C20.7948 35.5915 20.6856 35.4459 20.6856 35.2842L20.6816 35.2842Z" fill="white"/>
</g>
<path d="M24.062 9.60549C24.062 9.80426 24.2231 9.96538 24.4218 9.96538C24.6206 9.96538 24.7817 9.80426 24.7817 9.60549C24.7817 9.40673 24.6206 9.24561 24.4218 9.24561C24.2231 9.24561 24.062 9.40673 24.062 9.60549Z" fill="white"/>
<g style="mix-blend-mode:overlay">
<path d="M24.062 35.7276C24.062 35.9263 24.2231 36.0875 24.4218 36.0875C24.6206 36.0875 24.7817 35.9263 24.7817 35.7276C24.7817 35.5288 24.6206 35.3677 24.4218 35.3677C24.2231 35.3677 24.062 35.5288 24.062 35.7276Z" fill="white"/>
</g>
<g style="mix-blend-mode:overlay">
<path d="M20.6812 10.0508C20.6812 9.88906 20.7904 9.74753 20.9481 9.70305C21.0411 9.67879 21.1382 9.69092 21.219 9.73944C21.304 9.78797 21.3606 9.8648 21.3848 9.9578C21.3929 9.99015 21.397 10.0185 21.397 10.0508C21.397 10.2126 21.2878 10.3541 21.1301 10.3986C20.94 10.4511 20.7419 10.3339 20.6893 10.1438C20.6812 10.1115 20.6772 10.0832 20.6772 10.0508L20.6812 10.0508Z" fill="white"/>
</g>
<g style="mix-blend-mode:overlay">
<path d="M27.4423 35.2842C27.4423 35.1224 27.5515 34.9809 27.7092 34.9364C27.8993 34.8838 28.0974 35.0011 28.15 35.1912C28.1581 35.2235 28.1621 35.2518 28.1621 35.2842C28.1621 35.4459 28.0529 35.5875 27.8952 35.6319C27.8022 35.6562 27.7052 35.6441 27.6243 35.5955C27.5394 35.547 27.4828 35.4702 27.4585 35.3772C27.4504 35.3448 27.4464 35.3165 27.4464 35.2842L27.4423 35.2842Z" fill="white"/>
</g>
<g style="mix-blend-mode:overlay">
<path d="M17.5328 11.357C17.5328 11.2276 17.6015 11.1103 17.7107 11.0456C17.7956 10.9971 17.8927 10.9849 17.9817 11.0092C18.0747 11.0335 18.1515 11.0941 18.2 11.175C18.2324 11.2316 18.2485 11.2923 18.2485 11.3529C18.2485 11.4823 18.1798 11.5996 18.0706 11.6643C17.9857 11.7128 17.8886 11.7249 17.7997 11.7007C17.7067 11.6764 17.6298 11.6158 17.5813 11.5349C17.549 11.4783 17.5328 11.4176 17.5328 11.357Z" fill="white"/>
</g>
<g style="mix-blend-mode:overlay">
<path d="M30.5943 33.9782C30.5943 33.8488 30.6631 33.7315 30.7722 33.6668C30.9421 33.5698 31.1645 33.6264 31.2615 33.8003C31.2939 33.8569 31.3101 33.9175 31.3101 33.9782C31.3101 34.1076 31.2413 34.2248 31.1321 34.2895C31.0472 34.3381 30.9502 34.3502 30.8612 34.3259C30.7682 34.3017 30.6914 34.241 30.6428 34.1601C30.6105 34.1035 30.5943 34.0429 30.5943 33.9822L30.5943 33.9782Z" fill="white"/>
</g>
<g style="mix-blend-mode:overlay">
<path d="M14.8271 13.4307C14.8271 13.3337 14.8635 13.2447 14.9322 13.176C15.0738 13.0344 15.3002 13.0344 15.4417 13.176C15.5105 13.2447 15.5469 13.3337 15.5469 13.4307C15.5469 13.5278 15.5105 13.6167 15.4417 13.6855C15.3002 13.827 15.0738 13.827 14.9322 13.6855C14.8635 13.6167 14.8271 13.5278 14.8271 13.4307Z" fill="white"/>
</g>
<g style="mix-blend-mode:overlay">
<path d="M33.2988 31.9024C33.2988 31.8054 33.3352 31.7164 33.4039 31.6477C33.5454 31.5061 33.7719 31.5061 33.9134 31.6477C33.9822 31.7164 34.0186 31.8054 34.0186 31.9024C34.0186 31.9995 33.9822 32.0884 33.9134 32.1572C33.7719 32.2987 33.5454 32.2987 33.4039 32.1572C33.3352 32.0884 33.2988 31.9995 33.2988 31.9024Z" fill="white"/>
</g>
<g style="mix-blend-mode:overlay">
<path d="M12.7181 16.1247C12.7181 16.06 12.7342 15.9993 12.7666 15.9467C12.8677 15.7729 13.086 15.7163 13.2599 15.8133C13.3732 15.878 13.4419 15.9993 13.4419 16.1247C13.4419 16.1894 13.4257 16.25 13.3934 16.3026C13.2923 16.4765 13.0739 16.5331 12.9 16.436C12.7868 16.3713 12.7181 16.25 12.7181 16.1247Z" fill="white"/>
</g>
<g style="mix-blend-mode:overlay">
<path d="M35.3704 29.2052C35.3704 29.1405 35.3866 29.0799 35.4189 29.0273C35.52 28.8534 35.7384 28.7968 35.9123 28.8939C36.0255 28.9586 36.0942 29.0799 36.0942 29.2052C36.0942 29.2699 36.0781 29.3306 36.0457 29.3832C35.9446 29.557 35.7263 29.6136 35.5524 29.5166C35.4392 29.4519 35.3704 29.3306 35.3704 29.2052Z" fill="white"/>
</g>
<g style="mix-blend-mode:overlay">
<path d="M11.4119 19.2842C11.4119 19.2519 11.416 19.2195 11.4241 19.1912C11.4483 19.0982 11.509 19.0214 11.5939 18.9728C11.6788 18.9243 11.7759 18.9122 11.8689 18.9364C12.0266 18.9769 12.1357 19.1225 12.1357 19.2842C12.1357 19.3166 12.1317 19.3489 12.1236 19.3772C12.0993 19.4702 12.0387 19.547 11.9538 19.5956C11.8689 19.6441 11.7718 19.6562 11.6788 19.632C11.5211 19.5915 11.4119 19.446 11.4119 19.2842Z" fill="white"/>
</g>
<g style="mix-blend-mode:overlay">
<path d="M36.6762 26.0537C36.6762 26.0214 36.6803 25.989 36.6883 25.9607C36.7409 25.7706 36.9391 25.6534 37.1291 25.7059C37.2868 25.7464 37.396 25.892 37.396 26.0537C37.396 26.0861 37.392 26.1184 37.3839 26.1467C37.3596 26.2397 37.2989 26.3165 37.214 26.3651C37.1291 26.4136 37.0321 26.4257 36.9391 26.4015C36.7814 26.361 36.6722 26.2155 36.6722 26.0537L36.6762 26.0537Z" fill="white"/>
</g>
<path d="M37.124 22.667C37.124 22.4689 37.2857 22.3071 37.4839 22.3071C37.682 22.3071 37.8437 22.4689 37.8437 22.667C37.8437 22.8652 37.682 23.0269 37.4839 23.0269C37.2857 23.0269 37.124 22.8652 37.124 22.667Z" fill="white"/>
<g style="mix-blend-mode:overlay">
<path d="M10.9648 22.667C10.9648 22.4689 11.1265 22.3071 11.3247 22.3071C11.5228 22.3071 11.6846 22.4689 11.6846 22.667C11.6846 22.8652 11.5228 23.0269 11.3247 23.0269C11.1265 23.0269 10.9648 22.8652 10.9648 22.667Z" fill="white"/>
</g>
<path d="M36.6791 19.2866C36.6791 19.1249 36.7883 18.9833 36.946 18.9389C37.1361 18.8863 37.3342 19.0036 37.3868 19.1936C37.3949 19.226 37.3989 19.2543 37.3989 19.2866C37.3989 19.4484 37.2897 19.5899 37.132 19.6344C36.942 19.6869 36.7438 19.5697 36.6913 19.3796C36.6832 19.3473 36.6791 19.319 36.6791 19.2866Z" fill="white"/>
<g style="mix-blend-mode:overlay">
<path d="M11.4459 26.0479C11.4459 25.8861 11.5551 25.7446 11.7128 25.7001C11.8058 25.6759 11.9028 25.688 11.9837 25.7365C12.0646 25.785 12.1252 25.8619 12.1495 25.9549C12.1576 25.9872 12.1616 26.0155 12.1616 26.0479C12.1616 26.2096 12.0524 26.3512 11.8947 26.3956C11.8017 26.4199 11.7047 26.4078 11.6238 26.3592C11.5389 26.3107 11.4823 26.2339 11.458 26.1409C11.4499 26.1085 11.4459 26.0802 11.4459 26.0479Z" fill="white"/>
</g>
<g clip-path="url(#clip0_151_4792)">
<g clip-path="url(#clip1_151_4792)">
<path d="M27.2737 27.8564H27.9009V25.3477H27.2737V27.8564ZM28.8416 27.8564H29.4688V25.3477H28.8416V27.8564ZM20.6413 20.4714H28.1674V19.5307H20.6413V20.4714ZM28.3634 29.5498C27.5533 29.5498 26.8608 29.2598 26.2859 28.6796C25.711 28.0995 25.4235 27.4122 25.4235 26.6178C25.4235 25.7979 25.7109 25.099 26.2857 24.5212C26.8605 23.9433 27.5557 23.6544 28.3712 23.6544C29.1761 23.6544 29.8686 23.9433 30.4488 24.5212C31.0289 25.099 31.319 25.7979 31.319 26.6178C31.319 27.4122 31.0289 28.0995 30.4488 28.6796C29.8686 29.2598 29.1735 29.5498 28.3634 29.5498ZM18.7598 28.9227V17.9627C18.7598 17.704 18.8519 17.4826 19.0361 17.2983C19.2203 17.1141 19.4418 17.022 19.7005 17.022H29.1082C29.3669 17.022 29.5884 17.1141 29.7726 17.2983C29.9568 17.4826 30.0489 17.704 30.0489 17.9627V23.0899C29.7876 22.9749 29.5183 22.8861 29.2411 22.8234C28.9639 22.7606 28.6844 22.7293 28.4026 22.7293V22.1962H20.6413V23.1369H26.6622C26.2859 23.3251 25.9488 23.5681 25.6509 23.866C25.353 24.1639 25.1099 24.4958 24.9218 24.8617H20.6413V25.8024H24.5925C24.5611 25.9383 24.5376 26.0742 24.522 26.2101C24.5063 26.346 24.4984 26.4871 24.4984 26.6335C24.4984 26.9366 24.5324 27.2397 24.6003 27.5429C24.6683 27.846 24.7754 28.1335 24.9218 28.4052L24.4044 28.9227L23.4636 27.9819L22.5228 28.9227L21.5821 27.9819L20.6413 28.9227L19.7005 27.9819L18.7598 28.9227Z" fill="white"/>
</g>
</g>
<defs>
<filter id="filter0_f_151_4792" x="0.213243" y="-1.50599" width="48.3821" height="48.345" filterUnits="userSpaceOnUse" color-interpolation-filters="sRGB">
<feFlood flood-opacity="0" result="BackgroundImageFix"/>
<feBlend mode="normal" in="SourceGraphic" in2="BackgroundImageFix" result="shape"/>
<feGaussianBlur stdDeviation="5.3758" result="effect1_foregroundBlur_151_4792"/>
</filter>
<clipPath id="clip0_151_4792">
<rect width="15.0522" height="15.0522" fill="white" transform="translate(16.8784 15.1401)"/>
</clipPath>
<clipPath id="clip1_151_4792">
<rect width="15.0522" height="15.0522" fill="white" transform="translate(16.8784 15.1401)"/>
</clipPath>
</defs>
</svg>
