<svg width="49" height="47" viewBox="0 0 49 47" fill="none" xmlns="http://www.w3.org/2000/svg">
<g filter="url(#filter0_f_151_6365)">
<path d="M35.6758 22.667C35.6758 16.5367 30.7061 11.563 24.5718 11.563C18.4375 11.563 13.4678 16.5327 13.4678 22.667C13.4678 28.8013 18.4375 33.771 24.5718 33.771C30.7061 33.771 35.6758 28.7972 35.6758 22.667ZM14.5111 22.667C14.5111 17.1109 19.0158 12.6022 24.5758 12.6022C30.1359 12.6022 34.6366 17.1109 34.6366 22.667C34.6366 28.223 30.1319 32.7317 24.5718 32.7317C19.0117 32.7317 14.507 28.227 14.507 22.667L14.5111 22.667Z" fill="white"/>
<path d="M35.5431 16.1372C35.5431 16.0078 35.6118 15.8905 35.721 15.8258C35.8908 15.7247 36.1132 15.7854 36.2103 15.9593C36.2426 16.0159 36.2588 16.0765 36.2588 16.1372C36.2588 16.2666 36.19 16.3839 36.0809 16.4486C35.9959 16.4971 35.8989 16.5092 35.8099 16.485C35.7169 16.4607 35.6401 16.4 35.5916 16.3192C35.5592 16.2626 35.5431 16.2019 35.5431 16.1412L35.5431 16.1372Z" fill="white"/>
<g style="mix-blend-mode:overlay">
<path d="M12.922 29.1983C12.922 29.0689 12.9907 28.9516 13.0999 28.8869C13.1848 28.8384 13.2819 28.8262 13.3708 28.8505C13.4638 28.8748 13.5406 28.9354 13.5892 29.0163C13.6215 29.0729 13.6377 29.1336 13.6377 29.1942C13.6377 29.3236 13.569 29.4409 13.4598 29.5056C13.3749 29.5541 13.2778 29.5662 13.1888 29.542C13.0999 29.5177 13.019 29.4571 12.9705 29.3762C12.9381 29.3196 12.922 29.2589 12.922 29.1983Z" fill="white"/>
</g>
<path d="M33.4697 13.4307C33.4697 13.3337 33.5061 13.2447 33.5748 13.176C33.7163 13.0344 33.9428 13.0344 34.0843 13.176C34.1531 13.2447 34.1895 13.3337 34.1895 13.4307C34.1895 13.5278 34.1531 13.6167 34.0843 13.6855C33.9428 13.827 33.7163 13.827 33.5748 13.6855C33.5061 13.6167 33.4697 13.5278 33.4697 13.4307Z" fill="white"/>
<g style="mix-blend-mode:overlay">
<path d="M14.998 31.9029C14.998 31.8058 15.0344 31.7169 15.1031 31.6481C15.2447 31.5066 15.4711 31.5066 15.6126 31.6481C15.6814 31.7169 15.7178 31.8058 15.7178 31.9029C15.7178 31.9999 15.6814 32.0889 15.6126 32.1576C15.4711 32.2992 15.2447 32.2992 15.1031 32.1576C15.0344 32.0889 14.998 31.9999 14.998 31.9029Z" fill="white"/>
</g>
<path d="M30.7647 11.3573C30.7647 11.2926 30.7809 11.232 30.8133 11.1794C30.8618 11.0945 30.9386 11.0379 31.0316 11.0136C31.1246 10.9893 31.2217 11.0015 31.3025 11.05C31.4117 11.1147 31.4805 11.232 31.4805 11.3614C31.4805 11.4261 31.4643 11.4867 31.4319 11.5393C31.3834 11.6242 31.3066 11.6808 31.2136 11.7051C31.1206 11.7293 31.0235 11.7172 30.9386 11.6687C30.8294 11.604 30.7607 11.4867 30.7607 11.3573L30.7647 11.3573Z" fill="white"/>
<g style="mix-blend-mode:overlay">
<path d="M17.7032 33.9774C17.7032 33.9127 17.7194 33.8521 17.7517 33.7995C17.8003 33.7146 17.8771 33.658 17.9701 33.6337C18.0631 33.6095 18.1601 33.6216 18.241 33.6701C18.3502 33.7348 18.4189 33.8521 18.4189 33.9815C18.4189 34.0462 18.4028 34.1068 18.3704 34.1594C18.3219 34.2443 18.2451 34.3009 18.1521 34.3252C18.0591 34.3494 17.962 34.3373 17.8811 34.2888C17.772 34.2241 17.7032 34.1068 17.7032 33.9774Z" fill="white"/>
</g>
<path d="M27.6134 10.0508C27.6134 10.0185 27.6174 9.98611 27.6255 9.9578C27.6498 9.8648 27.7104 9.78797 27.7913 9.73944C27.8762 9.69092 27.9733 9.67879 28.0622 9.70305C28.2199 9.74349 28.3291 9.88906 28.3291 10.0508C28.3291 10.0832 28.3291 10.1115 28.317 10.1438C28.2644 10.3339 28.0663 10.4511 27.8762 10.3986C27.7185 10.3581 27.6093 10.2126 27.6093 10.0508L27.6134 10.0508Z" fill="white"/>
<g style="mix-blend-mode:overlay">
<path d="M20.8515 35.2842C20.8515 35.2518 20.8515 35.2235 20.8636 35.1912C20.9162 35.0011 21.1144 34.8838 21.3044 34.9364C21.4621 34.9769 21.5713 35.1224 21.5713 35.2842C21.5713 35.3165 21.5672 35.3489 21.5592 35.3772C21.5349 35.4702 21.4742 35.547 21.3934 35.5955C21.3084 35.6441 21.2154 35.6562 21.1224 35.6319C20.9647 35.5915 20.8556 35.4459 20.8556 35.2842L20.8515 35.2842Z" fill="white"/>
</g>
<path d="M24.2324 9.60549C24.2324 9.80426 24.3935 9.96538 24.5923 9.96538C24.791 9.96538 24.9521 9.80426 24.9521 9.60549C24.9521 9.40673 24.791 9.24561 24.5923 9.24561C24.3935 9.24561 24.2324 9.40673 24.2324 9.60549Z" fill="white"/>
<g style="mix-blend-mode:overlay">
<path d="M24.2324 35.7276C24.2324 35.9263 24.3935 36.0875 24.5923 36.0875C24.791 36.0875 24.9521 35.9263 24.9521 35.7276C24.9521 35.5288 24.791 35.3677 24.5923 35.3677C24.3935 35.3677 24.2324 35.5288 24.2324 35.7276Z" fill="white"/>
</g>
<g style="mix-blend-mode:overlay">
<path d="M20.8516 10.0508C20.8516 9.88906 20.9608 9.74753 21.1185 9.70305C21.2115 9.67879 21.3086 9.69092 21.3895 9.73944C21.4744 9.78797 21.531 9.8648 21.5553 9.9578C21.5633 9.99015 21.5674 10.0185 21.5674 10.0508C21.5674 10.2126 21.4582 10.3541 21.3005 10.3986C21.1104 10.4511 20.9123 10.3339 20.8597 10.1438C20.8516 10.1115 20.8476 10.0832 20.8476 10.0508L20.8516 10.0508Z" fill="white"/>
</g>
<g style="mix-blend-mode:overlay">
<path d="M27.6123 35.2842C27.6123 35.1224 27.7214 34.9809 27.8791 34.9364C28.0692 34.8838 28.2673 35.0011 28.3199 35.1912C28.328 35.2235 28.332 35.2518 28.332 35.2842C28.332 35.4459 28.2229 35.5875 28.0651 35.6319C27.9721 35.6562 27.8751 35.6441 27.7942 35.5955C27.7093 35.547 27.6527 35.4702 27.6284 35.3772C27.6203 35.3448 27.6163 35.3165 27.6163 35.2842L27.6123 35.2842Z" fill="white"/>
</g>
<g style="mix-blend-mode:overlay">
<path d="M17.7032 11.357C17.7032 11.2276 17.772 11.1103 17.8811 11.0456C17.9661 10.9971 18.0631 10.9849 18.1521 11.0092C18.2451 11.0335 18.3219 11.0941 18.3704 11.175C18.4028 11.2316 18.4189 11.2923 18.4189 11.3529C18.4189 11.4823 18.3502 11.5996 18.241 11.6643C18.1561 11.7128 18.0591 11.7249 17.9701 11.7007C17.8771 11.6764 17.8003 11.6158 17.7517 11.5349C17.7194 11.4783 17.7032 11.4176 17.7032 11.357Z" fill="white"/>
</g>
<g style="mix-blend-mode:overlay">
<path d="M30.7647 33.9782C30.7647 33.8488 30.8335 33.7315 30.9427 33.6668C31.1125 33.5698 31.3349 33.6264 31.4319 33.8003C31.4643 33.8569 31.4805 33.9175 31.4805 33.9782C31.4805 34.1076 31.4117 34.2248 31.3025 34.2895C31.2176 34.3381 31.1206 34.3502 31.0316 34.3259C30.9386 34.3017 30.8618 34.241 30.8133 34.1601C30.7809 34.1035 30.7647 34.0429 30.7647 33.9822L30.7647 33.9782Z" fill="white"/>
</g>
<g style="mix-blend-mode:overlay">
<path d="M14.998 13.4307C14.998 13.3337 15.0344 13.2447 15.1031 13.176C15.2447 13.0344 15.4711 13.0344 15.6126 13.176C15.6814 13.2447 15.7178 13.3337 15.7178 13.4307C15.7178 13.5278 15.6814 13.6167 15.6126 13.6855C15.4711 13.827 15.2447 13.827 15.1031 13.6855C15.0344 13.6167 14.998 13.5278 14.998 13.4307Z" fill="white"/>
</g>
<g style="mix-blend-mode:overlay">
<path d="M33.4697 31.9029C33.4697 31.8058 33.5061 31.7169 33.5748 31.6481C33.7163 31.5066 33.9428 31.5066 34.0843 31.6481C34.1531 31.7169 34.1895 31.8058 34.1895 31.9029C34.1895 31.9999 34.1531 32.0889 34.0843 32.1576C33.9428 32.2992 33.7163 32.2992 33.5748 32.1576C33.5061 32.0889 33.4697 31.9999 33.4697 31.9029Z" fill="white"/>
</g>
<g style="mix-blend-mode:overlay">
<path d="M12.8865 16.1247C12.8865 16.06 12.9027 15.9993 12.9351 15.9467C13.0361 15.7729 13.2545 15.7163 13.4284 15.8133C13.5416 15.878 13.6104 15.9993 13.6104 16.1247C13.6104 16.1894 13.5942 16.25 13.5618 16.3026C13.4607 16.4765 13.2424 16.5331 13.0685 16.436C12.9553 16.3713 12.8865 16.25 12.8865 16.1247Z" fill="white"/>
</g>
<g style="mix-blend-mode:overlay">
<path d="M35.5399 29.2052C35.5399 29.1405 35.556 29.0799 35.5884 29.0273C35.6895 28.8534 35.9078 28.7968 36.0817 28.8939C36.1949 28.9586 36.2637 29.0799 36.2637 29.2052C36.2637 29.2699 36.2475 29.3306 36.2151 29.3832C36.1141 29.557 35.8957 29.6136 35.7218 29.5166C35.6086 29.4519 35.5399 29.3306 35.5399 29.2052Z" fill="white"/>
</g>
<g style="mix-blend-mode:overlay">
<path d="M11.5809 19.2842C11.5809 19.2519 11.5849 19.2195 11.593 19.1912C11.6173 19.0982 11.6779 19.0214 11.7628 18.9728C11.8478 18.9243 11.9448 18.9122 12.0378 18.9364C12.1955 18.9769 12.3047 19.1225 12.3047 19.2842C12.3047 19.3166 12.3006 19.3489 12.2926 19.3772C12.2683 19.4702 12.2076 19.547 12.1227 19.5956C12.0378 19.6441 11.9408 19.6562 11.8478 19.632C11.69 19.5915 11.5809 19.446 11.5809 19.2842Z" fill="white"/>
</g>
<g style="mix-blend-mode:overlay">
<path d="M36.8457 26.0537C36.8457 26.0214 36.8497 25.989 36.8578 25.9607C36.9104 25.7706 37.1085 25.6534 37.2985 25.7059C37.4562 25.7464 37.5654 25.892 37.5654 26.0537C37.5654 26.0861 37.5614 26.1184 37.5533 26.1467C37.529 26.2397 37.4684 26.3165 37.3835 26.3651C37.2985 26.4136 37.2015 26.4257 37.1085 26.4015C36.9508 26.361 36.8416 26.2155 36.8416 26.0537L36.8457 26.0537Z" fill="white"/>
</g>
<path d="M37.2939 22.667C37.2939 22.4689 37.4556 22.3071 37.6538 22.3071C37.8519 22.3071 38.0137 22.4689 38.0137 22.667C38.0137 22.8652 37.8519 23.0269 37.6538 23.0269C37.4556 23.0269 37.2939 22.8652 37.2939 22.667Z" fill="white"/>
<g style="mix-blend-mode:overlay">
<path d="M11.1357 22.667C11.1357 22.4689 11.2974 22.3071 11.4956 22.3071C11.6937 22.3071 11.8555 22.4689 11.8555 22.667C11.8555 22.8652 11.6937 23.0269 11.4956 23.0269C11.2974 23.0269 11.1357 22.8652 11.1357 22.667Z" fill="white"/>
</g>
<path d="M36.8496 19.2871C36.8496 19.1254 36.9587 18.9838 37.1164 18.9393C37.3065 18.8868 37.5046 19.004 37.5572 19.1941C37.5653 19.2264 37.5693 19.2548 37.5693 19.2871C37.5693 19.4489 37.4602 19.5904 37.3025 19.6349C37.1124 19.6874 36.9143 19.5702 36.8617 19.3801C36.8536 19.3478 36.8496 19.3195 36.8496 19.2871Z" fill="white"/>
<g style="mix-blend-mode:overlay">
<path d="M11.6163 26.0484C11.6163 25.8866 11.7255 25.7451 11.8832 25.7006C11.9762 25.6763 12.0732 25.6885 12.1541 25.737C12.235 25.7855 12.2956 25.8624 12.3199 25.9554C12.328 25.9877 12.332 26.016 12.332 26.0484C12.332 26.2101 12.2229 26.3516 12.0651 26.3961C11.9721 26.4204 11.8751 26.4083 11.7942 26.3597C11.7093 26.3112 11.6527 26.2344 11.6284 26.1414C11.6203 26.109 11.6163 26.0807 11.6163 26.0484Z" fill="white"/>
</g>
</g>
<path d="M35.6758 22.667C35.6758 16.5367 30.7061 11.563 24.5718 11.563C18.4375 11.563 13.4678 16.5327 13.4678 22.667C13.4678 28.8013 18.4375 33.771 24.5718 33.771C30.7061 33.771 35.6758 28.7972 35.6758 22.667ZM14.5111 22.667C14.5111 17.1109 19.0158 12.6022 24.5758 12.6022C30.1359 12.6022 34.6366 17.1109 34.6366 22.667C34.6366 28.223 30.1319 32.7317 24.5718 32.7317C19.0117 32.7317 14.507 28.227 14.507 22.667L14.5111 22.667Z" fill="white"/>
<path d="M35.5431 16.1372C35.5431 16.0078 35.6118 15.8905 35.721 15.8258C35.8908 15.7247 36.1132 15.7854 36.2103 15.9593C36.2426 16.0159 36.2588 16.0765 36.2588 16.1372C36.2588 16.2666 36.19 16.3839 36.0809 16.4486C35.9959 16.4971 35.8989 16.5092 35.8099 16.485C35.7169 16.4607 35.6401 16.4 35.5916 16.3192C35.5592 16.2626 35.5431 16.2019 35.5431 16.1412L35.5431 16.1372Z" fill="white"/>
<g style="mix-blend-mode:overlay">
<path d="M12.922 29.1983C12.922 29.0689 12.9907 28.9516 13.0999 28.8869C13.1848 28.8384 13.2819 28.8262 13.3708 28.8505C13.4638 28.8748 13.5406 28.9354 13.5892 29.0163C13.6215 29.0729 13.6377 29.1336 13.6377 29.1942C13.6377 29.3236 13.569 29.4409 13.4598 29.5056C13.3749 29.5541 13.2778 29.5662 13.1888 29.542C13.0999 29.5177 13.019 29.4571 12.9705 29.3762C12.9381 29.3196 12.922 29.2589 12.922 29.1983Z" fill="white"/>
</g>
<path d="M33.4697 13.4307C33.4697 13.3337 33.5061 13.2447 33.5748 13.176C33.7163 13.0344 33.9428 13.0344 34.0843 13.176C34.1531 13.2447 34.1895 13.3337 34.1895 13.4307C34.1895 13.5278 34.1531 13.6167 34.0843 13.6855C33.9428 13.827 33.7163 13.827 33.5748 13.6855C33.5061 13.6167 33.4697 13.5278 33.4697 13.4307Z" fill="white"/>
<g style="mix-blend-mode:overlay">
<path d="M14.998 31.9029C14.998 31.8058 15.0344 31.7169 15.1031 31.6481C15.2447 31.5066 15.4711 31.5066 15.6126 31.6481C15.6814 31.7169 15.7178 31.8058 15.7178 31.9029C15.7178 31.9999 15.6814 32.0889 15.6126 32.1576C15.4711 32.2992 15.2447 32.2992 15.1031 32.1576C15.0344 32.0889 14.998 31.9999 14.998 31.9029Z" fill="white"/>
</g>
<path d="M30.7647 11.3573C30.7647 11.2926 30.7809 11.232 30.8133 11.1794C30.8618 11.0945 30.9386 11.0379 31.0316 11.0136C31.1246 10.9893 31.2217 11.0015 31.3025 11.05C31.4117 11.1147 31.4805 11.232 31.4805 11.3614C31.4805 11.4261 31.4643 11.4867 31.4319 11.5393C31.3834 11.6242 31.3066 11.6808 31.2136 11.7051C31.1206 11.7293 31.0235 11.7172 30.9386 11.6687C30.8294 11.604 30.7607 11.4867 30.7607 11.3573L30.7647 11.3573Z" fill="white"/>
<g style="mix-blend-mode:overlay">
<path d="M17.7032 33.9774C17.7032 33.9127 17.7194 33.8521 17.7517 33.7995C17.8003 33.7146 17.8771 33.658 17.9701 33.6337C18.0631 33.6095 18.1601 33.6216 18.241 33.6701C18.3502 33.7348 18.4189 33.8521 18.4189 33.9815C18.4189 34.0462 18.4028 34.1068 18.3704 34.1594C18.3219 34.2443 18.2451 34.3009 18.1521 34.3252C18.0591 34.3494 17.962 34.3373 17.8811 34.2888C17.772 34.2241 17.7032 34.1068 17.7032 33.9774Z" fill="white"/>
</g>
<path d="M27.6134 10.0508C27.6134 10.0185 27.6174 9.98611 27.6255 9.9578C27.6498 9.8648 27.7104 9.78797 27.7913 9.73944C27.8762 9.69092 27.9733 9.67879 28.0622 9.70305C28.2199 9.74349 28.3291 9.88906 28.3291 10.0508C28.3291 10.0832 28.3291 10.1115 28.317 10.1438C28.2644 10.3339 28.0663 10.4511 27.8762 10.3986C27.7185 10.3581 27.6093 10.2126 27.6093 10.0508L27.6134 10.0508Z" fill="white"/>
<g style="mix-blend-mode:overlay">
<path d="M20.8515 35.2842C20.8515 35.2518 20.8515 35.2235 20.8636 35.1912C20.9162 35.0011 21.1144 34.8838 21.3044 34.9364C21.4621 34.9769 21.5713 35.1224 21.5713 35.2842C21.5713 35.3165 21.5672 35.3489 21.5592 35.3772C21.5349 35.4702 21.4742 35.547 21.3934 35.5955C21.3084 35.6441 21.2154 35.6562 21.1224 35.6319C20.9647 35.5915 20.8556 35.4459 20.8556 35.2842L20.8515 35.2842Z" fill="white"/>
</g>
<path d="M24.2324 9.60549C24.2324 9.80426 24.3935 9.96538 24.5923 9.96538C24.791 9.96538 24.9521 9.80426 24.9521 9.60549C24.9521 9.40673 24.791 9.24561 24.5923 9.24561C24.3935 9.24561 24.2324 9.40673 24.2324 9.60549Z" fill="white"/>
<g style="mix-blend-mode:overlay">
<path d="M24.2324 35.7276C24.2324 35.9263 24.3935 36.0875 24.5923 36.0875C24.791 36.0875 24.9521 35.9263 24.9521 35.7276C24.9521 35.5288 24.791 35.3677 24.5923 35.3677C24.3935 35.3677 24.2324 35.5288 24.2324 35.7276Z" fill="white"/>
</g>
<g style="mix-blend-mode:overlay">
<path d="M20.8516 10.0508C20.8516 9.88906 20.9608 9.74753 21.1185 9.70305C21.2115 9.67879 21.3086 9.69092 21.3895 9.73944C21.4744 9.78797 21.531 9.8648 21.5553 9.9578C21.5633 9.99015 21.5674 10.0185 21.5674 10.0508C21.5674 10.2126 21.4582 10.3541 21.3005 10.3986C21.1104 10.4511 20.9123 10.3339 20.8597 10.1438C20.8516 10.1115 20.8476 10.0832 20.8476 10.0508L20.8516 10.0508Z" fill="white"/>
</g>
<g style="mix-blend-mode:overlay">
<path d="M27.6123 35.2842C27.6123 35.1224 27.7214 34.9809 27.8791 34.9364C28.0692 34.8838 28.2673 35.0011 28.3199 35.1912C28.328 35.2235 28.332 35.2518 28.332 35.2842C28.332 35.4459 28.2229 35.5875 28.0651 35.6319C27.9721 35.6562 27.8751 35.6441 27.7942 35.5955C27.7093 35.547 27.6527 35.4702 27.6284 35.3772C27.6203 35.3448 27.6163 35.3165 27.6163 35.2842L27.6123 35.2842Z" fill="white"/>
</g>
<g style="mix-blend-mode:overlay">
<path d="M17.7032 11.357C17.7032 11.2276 17.772 11.1103 17.8811 11.0456C17.9661 10.9971 18.0631 10.9849 18.1521 11.0092C18.2451 11.0335 18.3219 11.0941 18.3704 11.175C18.4028 11.2316 18.4189 11.2923 18.4189 11.3529C18.4189 11.4823 18.3502 11.5996 18.241 11.6643C18.1561 11.7128 18.0591 11.7249 17.9701 11.7007C17.8771 11.6764 17.8003 11.6158 17.7517 11.5349C17.7194 11.4783 17.7032 11.4176 17.7032 11.357Z" fill="white"/>
</g>
<g style="mix-blend-mode:overlay">
<path d="M30.7647 33.9782C30.7647 33.8488 30.8335 33.7315 30.9427 33.6668C31.1125 33.5698 31.3349 33.6264 31.4319 33.8003C31.4643 33.8569 31.4805 33.9175 31.4805 33.9782C31.4805 34.1076 31.4117 34.2248 31.3025 34.2895C31.2176 34.3381 31.1206 34.3502 31.0316 34.3259C30.9386 34.3017 30.8618 34.241 30.8133 34.1601C30.7809 34.1035 30.7647 34.0429 30.7647 33.9822L30.7647 33.9782Z" fill="white"/>
</g>
<g style="mix-blend-mode:overlay">
<path d="M14.998 13.4307C14.998 13.3337 15.0344 13.2447 15.1031 13.176C15.2447 13.0344 15.4711 13.0344 15.6126 13.176C15.6814 13.2447 15.7178 13.3337 15.7178 13.4307C15.7178 13.5278 15.6814 13.6167 15.6126 13.6855C15.4711 13.827 15.2447 13.827 15.1031 13.6855C15.0344 13.6167 14.998 13.5278 14.998 13.4307Z" fill="white"/>
</g>
<g style="mix-blend-mode:overlay">
<path d="M33.4697 31.9029C33.4697 31.8058 33.5061 31.7169 33.5748 31.6481C33.7163 31.5066 33.9428 31.5066 34.0843 31.6481C34.1531 31.7169 34.1895 31.8058 34.1895 31.9029C34.1895 31.9999 34.1531 32.0889 34.0843 32.1576C33.9428 32.2992 33.7163 32.2992 33.5748 32.1576C33.5061 32.0889 33.4697 31.9999 33.4697 31.9029Z" fill="white"/>
</g>
<g style="mix-blend-mode:overlay">
<path d="M12.8865 16.1247C12.8865 16.06 12.9027 15.9993 12.9351 15.9467C13.0361 15.7729 13.2545 15.7163 13.4284 15.8133C13.5416 15.878 13.6104 15.9993 13.6104 16.1247C13.6104 16.1894 13.5942 16.25 13.5618 16.3026C13.4607 16.4765 13.2424 16.5331 13.0685 16.436C12.9553 16.3713 12.8865 16.25 12.8865 16.1247Z" fill="white"/>
</g>
<g style="mix-blend-mode:overlay">
<path d="M35.5399 29.2052C35.5399 29.1405 35.556 29.0799 35.5884 29.0273C35.6895 28.8534 35.9078 28.7968 36.0817 28.8939C36.1949 28.9586 36.2637 29.0799 36.2637 29.2052C36.2637 29.2699 36.2475 29.3306 36.2151 29.3832C36.1141 29.557 35.8957 29.6136 35.7218 29.5166C35.6086 29.4519 35.5399 29.3306 35.5399 29.2052Z" fill="white"/>
</g>
<g style="mix-blend-mode:overlay">
<path d="M11.5809 19.2842C11.5809 19.2519 11.5849 19.2195 11.593 19.1912C11.6173 19.0982 11.6779 19.0214 11.7628 18.9728C11.8478 18.9243 11.9448 18.9122 12.0378 18.9364C12.1955 18.9769 12.3047 19.1225 12.3047 19.2842C12.3047 19.3166 12.3006 19.3489 12.2926 19.3772C12.2683 19.4702 12.2076 19.547 12.1227 19.5956C12.0378 19.6441 11.9408 19.6562 11.8478 19.632C11.69 19.5915 11.5809 19.446 11.5809 19.2842Z" fill="white"/>
</g>
<g style="mix-blend-mode:overlay">
<path d="M36.8457 26.0537C36.8457 26.0214 36.8497 25.989 36.8578 25.9607C36.9104 25.7706 37.1085 25.6534 37.2985 25.7059C37.4562 25.7464 37.5654 25.892 37.5654 26.0537C37.5654 26.0861 37.5614 26.1184 37.5533 26.1467C37.529 26.2397 37.4684 26.3165 37.3835 26.3651C37.2985 26.4136 37.2015 26.4257 37.1085 26.4015C36.9508 26.361 36.8416 26.2155 36.8416 26.0537L36.8457 26.0537Z" fill="white"/>
</g>
<path d="M37.2939 22.667C37.2939 22.4689 37.4556 22.3071 37.6538 22.3071C37.8519 22.3071 38.0137 22.4689 38.0137 22.667C38.0137 22.8652 37.8519 23.0269 37.6538 23.0269C37.4556 23.0269 37.2939 22.8652 37.2939 22.667Z" fill="white"/>
<g style="mix-blend-mode:overlay">
<path d="M11.1357 22.667C11.1357 22.4689 11.2974 22.3071 11.4956 22.3071C11.6937 22.3071 11.8555 22.4689 11.8555 22.667C11.8555 22.8652 11.6937 23.0269 11.4956 23.0269C11.2974 23.0269 11.1357 22.8652 11.1357 22.667Z" fill="white"/>
</g>
<path d="M36.8496 19.2871C36.8496 19.1254 36.9587 18.9838 37.1164 18.9393C37.3065 18.8868 37.5046 19.004 37.5572 19.1941C37.5653 19.2264 37.5693 19.2548 37.5693 19.2871C37.5693 19.4489 37.4602 19.5904 37.3025 19.6349C37.1124 19.6874 36.9143 19.5702 36.8617 19.3801C36.8536 19.3478 36.8496 19.3195 36.8496 19.2871Z" fill="white"/>
<g style="mix-blend-mode:overlay">
<path d="M11.6163 26.0484C11.6163 25.8866 11.7255 25.7451 11.8832 25.7006C11.9762 25.6763 12.0732 25.6885 12.1541 25.737C12.235 25.7855 12.2956 25.8624 12.3199 25.9554C12.328 25.9877 12.332 26.016 12.332 26.0484C12.332 26.2101 12.2229 26.3516 12.0651 26.3961C11.9721 26.4204 11.8751 26.4083 11.7942 26.3597C11.7093 26.3112 11.6527 26.2344 11.6284 26.1414C11.6203 26.109 11.6163 26.0807 11.6163 26.0484Z" fill="white"/>
</g>
<g clip-path="url(#clip0_151_6365)">
<path d="M24.5741 22.0078C25.2953 22.0078 25.9042 21.7438 26.4007 21.216C26.8972 20.6881 27.1455 20.0531 27.1455 19.3109V17.3353H22.0026V19.3109C22.0026 20.0531 22.2509 20.6881 22.7474 21.216C23.2439 21.7438 23.8528 22.0078 24.5741 22.0078ZM19.5566 28.9381V27.9973H21.0619V26.006C21.0619 25.2743 21.2526 24.6027 21.6342 23.9912C22.0157 23.3797 22.5462 22.9381 23.2256 22.6663C22.5462 22.3945 22.0157 21.9503 21.6342 21.3335C21.2526 20.7168 21.0619 20.0426 21.0619 19.3109V17.3353H19.5566V16.3945H29.5915V17.3353H28.0862V19.3109C28.0862 20.0426 27.8955 20.7168 27.5139 21.3335C27.1324 21.9503 26.6019 22.3945 25.9225 22.6663C26.6019 22.9381 27.1324 23.3797 27.5139 23.9912C27.8955 24.6027 28.0862 25.2743 28.0862 26.006V27.9973H29.5915V28.9381H19.5566Z" fill="white"/>
</g>
<defs>
<filter id="filter0_f_151_6365" x="0.384142" y="-1.50599" width="48.3811" height="48.345" filterUnits="userSpaceOnUse" color-interpolation-filters="sRGB">
<feFlood flood-opacity="0" result="BackgroundImageFix"/>
<feBlend mode="normal" in="SourceGraphic" in2="BackgroundImageFix" result="shape"/>
<feGaussianBlur stdDeviation="5.3758" result="effect1_foregroundBlur_151_6365"/>
</filter>
<clipPath id="clip0_151_6365">
<rect width="15.0522" height="15.0522" fill="white" transform="translate(17.0479 15.1401)"/>
</clipPath>
</defs>
</svg>
