<svg width="50" height="47" viewBox="0 0 50 47" fill="none" xmlns="http://www.w3.org/2000/svg">
<g filter="url(#filter0_f_151_5020)">
<path d="M36.144 22.7363C36.144 16.6061 31.1743 11.6323 25.0401 11.6323C18.9058 11.6323 13.9361 16.602 13.9361 22.7363C13.9361 28.8706 18.9058 33.8403 25.0401 33.8403C31.1743 33.8403 36.144 28.8665 36.144 22.7363ZM14.9794 22.7363C14.9794 17.1803 19.484 12.6716 25.0441 12.6716C30.6042 12.6716 35.1048 17.1803 35.1048 22.7363C35.1048 28.2923 30.6001 32.8011 25.0401 32.8011C19.48 32.8011 14.9753 28.2964 14.9753 22.7363L14.9794 22.7363Z" fill="url(#paint0_linear_151_5020)"/>
<path d="M36.0108 16.2051C36.0108 16.0757 36.0796 15.9584 36.1888 15.8937C36.3586 15.7926 36.581 15.8533 36.678 16.0272C36.7104 16.0838 36.7266 16.1444 36.7266 16.2051C36.7266 16.3345 36.6578 16.4517 36.5486 16.5164C36.4637 16.565 36.3667 16.5771 36.2777 16.5528C36.1847 16.5286 36.1079 16.4679 36.0594 16.387C36.027 16.3304 36.0108 16.2698 36.0108 16.2091L36.0108 16.2051Z" fill="url(#paint1_linear_151_5020)"/>
<g style="mix-blend-mode:overlay">
<path d="M13.3897 29.2661C13.3897 29.1367 13.4585 29.0195 13.5677 28.9548C13.6526 28.9063 13.7496 28.8941 13.8386 28.9184C13.9316 28.9426 14.0084 29.0033 14.0569 29.0842C14.0893 29.1408 14.1055 29.2014 14.1055 29.2621C14.1055 29.3915 14.0367 29.5088 13.9275 29.5735C13.8426 29.622 13.7456 29.6341 13.6566 29.6099C13.5677 29.5856 13.4868 29.5249 13.4383 29.4441C13.4059 29.3874 13.3897 29.3268 13.3897 29.2661Z" fill="url(#paint2_linear_151_5020)"/>
</g>
<path d="M33.9365 13.501C33.9365 13.404 33.9729 13.315 34.0416 13.2463C34.1831 13.1048 34.4096 13.1048 34.5511 13.2463C34.6199 13.315 34.6562 13.404 34.6562 13.501C34.6562 13.5981 34.6199 13.687 34.5511 13.7558C34.4096 13.8973 34.1831 13.8973 34.0416 13.7558C33.9729 13.687 33.9365 13.5981 33.9365 13.501Z" fill="url(#paint3_linear_151_5020)"/>
<g style="mix-blend-mode:overlay">
<path d="M15.4648 31.9727C15.4648 31.8757 15.5012 31.7867 15.5699 31.718C15.7115 31.5764 15.9379 31.5764 16.0794 31.718C16.1482 31.7867 16.1846 31.8757 16.1846 31.9727C16.1846 32.0698 16.1482 32.1587 16.0794 32.2275C15.9379 32.369 15.7115 32.369 15.5699 32.2275C15.5012 32.1587 15.4648 32.0698 15.4648 31.9727Z" fill="url(#paint4_linear_151_5020)"/>
</g>
<path d="M31.2315 11.4247C31.2315 11.36 31.2477 11.2993 31.2801 11.2468C31.3286 11.1619 31.4054 11.1052 31.4984 11.081C31.5914 11.0567 31.6885 11.0688 31.7693 11.1174C31.8785 11.1821 31.9473 11.2993 31.9473 11.4287C31.9473 11.4934 31.9311 11.5541 31.8987 11.6067C31.8502 11.6916 31.7734 11.7482 31.6804 11.7725C31.5874 11.7967 31.4903 11.7846 31.4054 11.7361C31.2962 11.6714 31.2275 11.5541 31.2275 11.4247L31.2315 11.4247Z" fill="url(#paint5_linear_151_5020)"/>
<g style="mix-blend-mode:overlay">
<path d="M18.17 34.0443C18.17 33.9796 18.1862 33.919 18.2185 33.8664C18.2671 33.7815 18.3439 33.7249 18.4369 33.7006C18.5299 33.6763 18.6269 33.6885 18.7078 33.737C18.817 33.8017 18.8857 33.919 18.8857 34.0484C18.8857 34.1131 18.8696 34.1737 18.8372 34.2263C18.7887 34.3112 18.7119 34.3678 18.6189 34.3921C18.5259 34.4163 18.4288 34.4042 18.3479 34.3557C18.2388 34.291 18.17 34.1737 18.17 34.0443Z" fill="url(#paint6_linear_151_5020)"/>
</g>
<path d="M28.0811 10.1192C28.0811 10.0868 28.0852 10.0545 28.0933 10.0262C28.1175 9.93316 28.1782 9.85633 28.2591 9.8078C28.344 9.75928 28.441 9.74715 28.53 9.77141C28.6877 9.81185 28.7969 9.95742 28.7969 10.1192C28.7969 10.1515 28.7969 10.1798 28.7847 10.2122C28.7322 10.4022 28.534 10.5195 28.344 10.4669C28.1863 10.4265 28.0771 10.2809 28.0771 10.1192L28.0811 10.1192Z" fill="url(#paint7_linear_151_5020)"/>
<g style="mix-blend-mode:overlay">
<path d="M21.3193 35.353C21.3193 35.3207 21.3193 35.2924 21.3314 35.26C21.384 35.07 21.5821 34.9527 21.7722 35.0053C21.9299 35.0457 22.0391 35.1913 22.0391 35.353C22.0391 35.3854 22.035 35.4177 22.0269 35.446C22.0027 35.539 21.942 35.6159 21.8611 35.6644C21.7762 35.7129 21.6832 35.725 21.5902 35.7008C21.4325 35.6603 21.3233 35.5148 21.3233 35.353L21.3193 35.353Z" fill="url(#paint8_linear_151_5020)"/>
</g>
<path d="M24.6997 9.67434C24.6997 9.8731 24.8608 10.0342 25.0595 10.0342C25.2583 10.0342 25.4194 9.8731 25.4194 9.67434C25.4194 9.47558 25.2583 9.31445 25.0595 9.31445C24.8608 9.31445 24.6997 9.47558 24.6997 9.67434Z" fill="url(#paint9_linear_151_5020)"/>
<g style="mix-blend-mode:overlay">
<path d="M24.6997 35.7959C24.6997 35.9947 24.8608 36.1558 25.0595 36.1558C25.2583 36.1558 25.4194 35.9947 25.4194 35.7959C25.4194 35.5972 25.2583 35.436 25.0595 35.436C24.8608 35.436 24.6997 35.5972 24.6997 35.7959Z" fill="url(#paint10_linear_151_5020)"/>
</g>
<g style="mix-blend-mode:overlay">
<path d="M21.3189 10.1192C21.3189 9.95742 21.4281 9.81589 21.5858 9.77141C21.6788 9.74715 21.7759 9.75928 21.8567 9.8078C21.9417 9.85633 21.9983 9.93316 22.0225 10.0262C22.0306 10.0585 22.0347 10.0868 22.0347 10.1192C22.0347 10.2809 21.9255 10.4224 21.7678 10.4669C21.5777 10.5195 21.3796 10.4022 21.327 10.2122C21.3189 10.1798 21.3149 10.1515 21.3149 10.1192L21.3189 10.1192Z" fill="url(#paint11_linear_151_5020)"/>
</g>
<g style="mix-blend-mode:overlay">
<path d="M28.08 35.354C28.08 35.1923 28.1892 35.0507 28.3469 35.0062C28.537 34.9537 28.7351 35.0709 28.7877 35.261C28.7958 35.2933 28.7998 35.3216 28.7998 35.354C28.7998 35.5157 28.6906 35.6573 28.5329 35.7018C28.4399 35.726 28.3429 35.7139 28.262 35.6654C28.1771 35.6168 28.1205 35.54 28.0962 35.447C28.0881 35.4147 28.0841 35.3863 28.0841 35.354L28.08 35.354Z" fill="url(#paint12_linear_151_5020)"/>
</g>
<g style="mix-blend-mode:overlay">
<path d="M18.17 11.4243C18.17 11.2949 18.2388 11.1777 18.3479 11.113C18.4328 11.0645 18.5299 11.0523 18.6189 11.0766C18.7119 11.1008 18.7887 11.1615 18.8372 11.2424C18.8696 11.299 18.8857 11.3596 18.8857 11.4203C18.8857 11.5497 18.817 11.667 18.7078 11.7317C18.6229 11.7802 18.5259 11.7923 18.4369 11.7681C18.3439 11.7438 18.2671 11.6831 18.2185 11.6023C18.1862 11.5457 18.17 11.485 18.17 11.4243Z" fill="url(#paint13_linear_151_5020)"/>
</g>
<g style="mix-blend-mode:overlay">
<path d="M31.2315 34.0456C31.2315 33.9162 31.3003 33.7989 31.4095 33.7342C31.5793 33.6371 31.8017 33.6938 31.8987 33.8676C31.9311 33.9243 31.9473 33.9849 31.9473 34.0456C31.9473 34.175 31.8785 34.2922 31.7693 34.3569C31.6844 34.4055 31.5874 34.4176 31.4984 34.3933C31.4054 34.3691 31.3286 34.3084 31.2801 34.2275C31.2477 34.1709 31.2315 34.1103 31.2315 34.0496L31.2315 34.0456Z" fill="url(#paint14_linear_151_5020)"/>
</g>
<g style="mix-blend-mode:overlay">
<path d="M15.4643 13.501C15.4643 13.404 15.5007 13.315 15.5694 13.2463C15.711 13.1048 15.9374 13.1048 16.0789 13.2463C16.1477 13.315 16.1841 13.404 16.1841 13.501C16.1841 13.5981 16.1477 13.687 16.0789 13.7558C15.9374 13.8973 15.711 13.8973 15.5694 13.7558C15.5007 13.687 15.4643 13.5981 15.4643 13.501Z" fill="url(#paint15_linear_151_5020)"/>
</g>
<g style="mix-blend-mode:overlay">
<path d="M33.936 31.9742C33.936 31.8771 33.9724 31.7882 34.0411 31.7194C34.1826 31.5779 34.4091 31.5779 34.5506 31.7194C34.6194 31.7882 34.6558 31.8771 34.6558 31.9742C34.6558 32.0712 34.6194 32.1602 34.5506 32.2289C34.4091 32.3705 34.1826 32.3705 34.0411 32.2289C33.9724 32.1602 33.936 32.0712 33.936 31.9742Z" fill="url(#paint16_linear_151_5020)"/>
</g>
<g style="mix-blend-mode:overlay">
<path d="M13.3558 16.1935C13.3558 16.1288 13.3719 16.0682 13.4043 16.0156C13.5054 15.8417 13.7237 15.7851 13.8976 15.8821C14.0108 15.9468 14.0796 16.0682 14.0796 16.1935C14.0796 16.2582 14.0634 16.3189 14.0311 16.3714C13.93 16.5453 13.7116 16.6019 13.5377 16.5049C13.4245 16.4402 13.3558 16.3189 13.3558 16.1935Z" fill="url(#paint17_linear_151_5020)"/>
</g>
<g style="mix-blend-mode:overlay">
<path d="M36.0081 29.2736C36.0081 29.2089 36.0243 29.1482 36.0566 29.0957C36.1577 28.9218 36.3761 28.8652 36.55 28.9622C36.6632 29.0269 36.7319 29.1482 36.7319 29.2736C36.7319 29.3383 36.7158 29.3989 36.6834 29.4515C36.5823 29.6254 36.364 29.682 36.1901 29.585C36.0769 29.5203 36.0081 29.3989 36.0081 29.2736Z" fill="url(#paint18_linear_151_5020)"/>
</g>
<g style="mix-blend-mode:overlay">
<path d="M12.0496 19.3516C12.0496 19.3192 12.0537 19.2869 12.0617 19.2586C12.086 19.1656 12.1467 19.0887 12.2316 19.0402C12.3165 18.9917 12.4136 18.9796 12.5066 19.0038C12.6643 19.0443 12.7734 19.1898 12.7734 19.3516C12.7734 19.3839 12.7694 19.4163 12.7613 19.4446C12.737 19.5376 12.6764 19.6144 12.5915 19.663C12.5066 19.7115 12.4095 19.7236 12.3165 19.6993C12.1588 19.6589 12.0496 19.5133 12.0496 19.3516Z" fill="url(#paint19_linear_151_5020)"/>
</g>
<g style="mix-blend-mode:overlay">
<path d="M37.3139 26.1216C37.3139 26.0892 37.318 26.0569 37.326 26.0286C37.3786 25.8385 37.5768 25.7213 37.7668 25.7738C37.9245 25.8143 38.0337 25.9598 38.0337 26.1216C38.0337 26.1539 38.0296 26.1863 38.0216 26.2146C37.9973 26.3076 37.9366 26.3844 37.8517 26.4329C37.7668 26.4815 37.6698 26.4936 37.5768 26.4693C37.419 26.4289 37.3099 26.2833 37.3099 26.1216L37.3139 26.1216Z" fill="url(#paint20_linear_151_5020)"/>
</g>
<path d="M37.7617 22.7359C37.7617 22.5377 37.9234 22.376 38.1216 22.376C38.3197 22.376 38.4814 22.5377 38.4814 22.7359C38.4814 22.934 38.3197 23.0958 38.1216 23.0958C37.9234 23.0958 37.7617 22.934 37.7617 22.7359Z" fill="url(#paint21_linear_151_5020)"/>
<g style="mix-blend-mode:overlay">
<path d="M11.6025 22.7359C11.6025 22.5377 11.7642 22.376 11.9624 22.376C12.1605 22.376 12.3223 22.5377 12.3223 22.7359C12.3223 22.934 12.1605 23.0958 11.9624 23.0958C11.7642 23.0958 11.6025 22.934 11.6025 22.7359Z" fill="url(#paint22_linear_151_5020)"/>
</g>
<path d="M37.3168 19.3555C37.3168 19.1937 37.426 19.0522 37.5837 19.0077C37.7738 18.9551 37.9719 19.0724 38.0245 19.2625C38.0326 19.2948 38.0366 19.3231 38.0366 19.3555C38.0366 19.5172 37.9274 19.6587 37.7697 19.7032C37.5797 19.7558 37.3815 19.6385 37.329 19.4485C37.3209 19.4161 37.3168 19.3878 37.3168 19.3555Z" fill="url(#paint23_linear_151_5020)"/>
<g style="mix-blend-mode:overlay">
<path d="M12.0836 26.1167C12.0836 25.955 12.1928 25.8134 12.3505 25.769C12.4435 25.7447 12.5405 25.7568 12.6214 25.8054C12.7023 25.8539 12.7629 25.9307 12.7872 26.0237C12.7953 26.0561 12.7993 26.0844 12.7993 26.1167C12.7993 26.2785 12.6901 26.42 12.5324 26.4645C12.4394 26.4887 12.3424 26.4766 12.2615 26.4281C12.1766 26.3796 12.12 26.3027 12.0957 26.2097C12.0876 26.1774 12.0836 26.1491 12.0836 26.1167Z" fill="url(#paint24_linear_151_5020)"/>
</g>
</g>
<path d="M36.144 22.7363C36.144 16.6061 31.1743 11.6323 25.0401 11.6323C18.9058 11.6323 13.9361 16.602 13.9361 22.7363C13.9361 28.8706 18.9058 33.8403 25.0401 33.8403C31.1743 33.8403 36.144 28.8665 36.144 22.7363ZM14.9794 22.7363C14.9794 17.1803 19.484 12.6716 25.0441 12.6716C30.6042 12.6716 35.1048 17.1803 35.1048 22.7363C35.1048 28.2923 30.6001 32.8011 25.0401 32.8011C19.48 32.8011 14.9753 28.2964 14.9753 22.7363L14.9794 22.7363Z" fill="white"/>
<path d="M36.0108 16.2051C36.0108 16.0757 36.0796 15.9584 36.1888 15.8937C36.3586 15.7926 36.581 15.8533 36.678 16.0272C36.7104 16.0838 36.7266 16.1444 36.7266 16.2051C36.7266 16.3345 36.6578 16.4517 36.5486 16.5164C36.4637 16.565 36.3667 16.5771 36.2777 16.5528C36.1847 16.5286 36.1079 16.4679 36.0594 16.387C36.027 16.3304 36.0108 16.2698 36.0108 16.2091L36.0108 16.2051Z" fill="white"/>
<g style="mix-blend-mode:overlay">
<path d="M13.3897 29.2661C13.3897 29.1367 13.4585 29.0195 13.5677 28.9548C13.6526 28.9063 13.7496 28.8941 13.8386 28.9184C13.9316 28.9426 14.0084 29.0033 14.0569 29.0842C14.0893 29.1408 14.1055 29.2014 14.1055 29.2621C14.1055 29.3915 14.0367 29.5088 13.9275 29.5735C13.8426 29.622 13.7456 29.6341 13.6566 29.6099C13.5677 29.5856 13.4868 29.5249 13.4383 29.4441C13.4059 29.3874 13.3897 29.3268 13.3897 29.2661Z" fill="white"/>
</g>
<path d="M33.9365 13.501C33.9365 13.404 33.9729 13.315 34.0416 13.2463C34.1831 13.1048 34.4096 13.1048 34.5511 13.2463C34.6199 13.315 34.6562 13.404 34.6562 13.501C34.6562 13.5981 34.6199 13.687 34.5511 13.7558C34.4096 13.8973 34.1831 13.8973 34.0416 13.7558C33.9729 13.687 33.9365 13.5981 33.9365 13.501Z" fill="white"/>
<g style="mix-blend-mode:overlay">
<path d="M15.4648 31.9727C15.4648 31.8757 15.5012 31.7867 15.5699 31.718C15.7115 31.5764 15.9379 31.5764 16.0794 31.718C16.1482 31.7867 16.1846 31.8757 16.1846 31.9727C16.1846 32.0698 16.1482 32.1587 16.0794 32.2275C15.9379 32.369 15.7115 32.369 15.5699 32.2275C15.5012 32.1587 15.4648 32.0698 15.4648 31.9727Z" fill="white"/>
</g>
<path d="M31.2315 11.4247C31.2315 11.36 31.2477 11.2993 31.2801 11.2468C31.3286 11.1619 31.4054 11.1052 31.4984 11.081C31.5914 11.0567 31.6885 11.0688 31.7693 11.1174C31.8785 11.1821 31.9473 11.2993 31.9473 11.4287C31.9473 11.4934 31.9311 11.5541 31.8987 11.6067C31.8502 11.6916 31.7734 11.7482 31.6804 11.7725C31.5874 11.7967 31.4903 11.7846 31.4054 11.7361C31.2962 11.6714 31.2275 11.5541 31.2275 11.4247L31.2315 11.4247Z" fill="white"/>
<g style="mix-blend-mode:overlay">
<path d="M18.17 34.0443C18.17 33.9796 18.1862 33.919 18.2185 33.8664C18.2671 33.7815 18.3439 33.7249 18.4369 33.7006C18.5299 33.6763 18.6269 33.6885 18.7078 33.737C18.817 33.8017 18.8857 33.919 18.8857 34.0484C18.8857 34.1131 18.8696 34.1737 18.8372 34.2263C18.7887 34.3112 18.7119 34.3678 18.6189 34.3921C18.5259 34.4163 18.4288 34.4042 18.3479 34.3557C18.2388 34.291 18.17 34.1737 18.17 34.0443Z" fill="white"/>
</g>
<path d="M28.0811 10.1192C28.0811 10.0868 28.0852 10.0545 28.0933 10.0262C28.1175 9.93316 28.1782 9.85633 28.2591 9.8078C28.344 9.75928 28.441 9.74715 28.53 9.77141C28.6877 9.81185 28.7969 9.95742 28.7969 10.1192C28.7969 10.1515 28.7969 10.1798 28.7847 10.2122C28.7322 10.4022 28.534 10.5195 28.344 10.4669C28.1863 10.4265 28.0771 10.2809 28.0771 10.1192L28.0811 10.1192Z" fill="white"/>
<g style="mix-blend-mode:overlay">
<path d="M21.3193 35.353C21.3193 35.3207 21.3193 35.2924 21.3314 35.26C21.384 35.07 21.5821 34.9527 21.7722 35.0053C21.9299 35.0457 22.0391 35.1913 22.0391 35.353C22.0391 35.3854 22.035 35.4177 22.0269 35.446C22.0027 35.539 21.942 35.6159 21.8611 35.6644C21.7762 35.7129 21.6832 35.725 21.5902 35.7008C21.4325 35.6603 21.3233 35.5148 21.3233 35.353L21.3193 35.353Z" fill="white"/>
</g>
<path d="M24.6997 9.67434C24.6997 9.8731 24.8608 10.0342 25.0595 10.0342C25.2583 10.0342 25.4194 9.8731 25.4194 9.67434C25.4194 9.47558 25.2583 9.31445 25.0595 9.31445C24.8608 9.31445 24.6997 9.47558 24.6997 9.67434Z" fill="white"/>
<g style="mix-blend-mode:overlay">
<path d="M24.6997 35.7959C24.6997 35.9947 24.8608 36.1558 25.0595 36.1558C25.2583 36.1558 25.4194 35.9947 25.4194 35.7959C25.4194 35.5972 25.2583 35.436 25.0595 35.436C24.8608 35.436 24.6997 35.5972 24.6997 35.7959Z" fill="white"/>
</g>
<g style="mix-blend-mode:overlay">
<path d="M21.3189 10.1192C21.3189 9.95742 21.4281 9.81589 21.5858 9.77141C21.6788 9.74715 21.7759 9.75928 21.8567 9.8078C21.9417 9.85633 21.9983 9.93316 22.0225 10.0262C22.0306 10.0585 22.0347 10.0868 22.0347 10.1192C22.0347 10.2809 21.9255 10.4224 21.7678 10.4669C21.5777 10.5195 21.3796 10.4022 21.327 10.2122C21.3189 10.1798 21.3149 10.1515 21.3149 10.1192L21.3189 10.1192Z" fill="white"/>
</g>
<g style="mix-blend-mode:overlay">
<path d="M28.08 35.354C28.08 35.1923 28.1892 35.0507 28.3469 35.0062C28.537 34.9537 28.7351 35.0709 28.7877 35.261C28.7958 35.2933 28.7998 35.3216 28.7998 35.354C28.7998 35.5157 28.6906 35.6573 28.5329 35.7018C28.4399 35.726 28.3429 35.7139 28.262 35.6654C28.1771 35.6168 28.1205 35.54 28.0962 35.447C28.0881 35.4147 28.0841 35.3863 28.0841 35.354L28.08 35.354Z" fill="white"/>
</g>
<g style="mix-blend-mode:overlay">
<path d="M18.17 11.4243C18.17 11.2949 18.2388 11.1777 18.3479 11.113C18.4328 11.0645 18.5299 11.0523 18.6189 11.0766C18.7119 11.1008 18.7887 11.1615 18.8372 11.2424C18.8696 11.299 18.8857 11.3596 18.8857 11.4203C18.8857 11.5497 18.817 11.667 18.7078 11.7317C18.6229 11.7802 18.5259 11.7923 18.4369 11.7681C18.3439 11.7438 18.2671 11.6831 18.2185 11.6023C18.1862 11.5457 18.17 11.485 18.17 11.4243Z" fill="white"/>
</g>
<g style="mix-blend-mode:overlay">
<path d="M31.2315 34.0456C31.2315 33.9162 31.3003 33.7989 31.4095 33.7342C31.5793 33.6371 31.8017 33.6938 31.8987 33.8676C31.9311 33.9243 31.9473 33.9849 31.9473 34.0456C31.9473 34.175 31.8785 34.2922 31.7693 34.3569C31.6844 34.4055 31.5874 34.4176 31.4984 34.3933C31.4054 34.3691 31.3286 34.3084 31.2801 34.2275C31.2477 34.1709 31.2315 34.1103 31.2315 34.0496L31.2315 34.0456Z" fill="white"/>
</g>
<g style="mix-blend-mode:overlay">
<path d="M15.4643 13.501C15.4643 13.404 15.5007 13.315 15.5694 13.2463C15.711 13.1048 15.9374 13.1048 16.0789 13.2463C16.1477 13.315 16.1841 13.404 16.1841 13.501C16.1841 13.5981 16.1477 13.687 16.0789 13.7558C15.9374 13.8973 15.711 13.8973 15.5694 13.7558C15.5007 13.687 15.4643 13.5981 15.4643 13.501Z" fill="white"/>
</g>
<g style="mix-blend-mode:overlay">
<path d="M33.936 31.9742C33.936 31.8771 33.9724 31.7882 34.0411 31.7194C34.1826 31.5779 34.4091 31.5779 34.5506 31.7194C34.6194 31.7882 34.6558 31.8771 34.6558 31.9742C34.6558 32.0712 34.6194 32.1602 34.5506 32.2289C34.4091 32.3705 34.1826 32.3705 34.0411 32.2289C33.9724 32.1602 33.936 32.0712 33.936 31.9742Z" fill="white"/>
</g>
<g style="mix-blend-mode:overlay">
<path d="M13.3558 16.1935C13.3558 16.1288 13.3719 16.0682 13.4043 16.0156C13.5054 15.8417 13.7237 15.7851 13.8976 15.8821C14.0108 15.9468 14.0796 16.0682 14.0796 16.1935C14.0796 16.2582 14.0634 16.3189 14.0311 16.3714C13.93 16.5453 13.7116 16.6019 13.5377 16.5049C13.4245 16.4402 13.3558 16.3189 13.3558 16.1935Z" fill="white"/>
</g>
<g style="mix-blend-mode:overlay">
<path d="M36.0081 29.2736C36.0081 29.2089 36.0243 29.1482 36.0566 29.0957C36.1577 28.9218 36.3761 28.8652 36.55 28.9622C36.6632 29.0269 36.7319 29.1482 36.7319 29.2736C36.7319 29.3383 36.7158 29.3989 36.6834 29.4515C36.5823 29.6254 36.364 29.682 36.1901 29.585C36.0769 29.5203 36.0081 29.3989 36.0081 29.2736Z" fill="white"/>
</g>
<g style="mix-blend-mode:overlay">
<path d="M12.0496 19.3516C12.0496 19.3192 12.0537 19.2869 12.0617 19.2586C12.086 19.1656 12.1467 19.0887 12.2316 19.0402C12.3165 18.9917 12.4136 18.9796 12.5066 19.0038C12.6643 19.0443 12.7734 19.1898 12.7734 19.3516C12.7734 19.3839 12.7694 19.4163 12.7613 19.4446C12.737 19.5376 12.6764 19.6144 12.5915 19.663C12.5066 19.7115 12.4095 19.7236 12.3165 19.6993C12.1588 19.6589 12.0496 19.5133 12.0496 19.3516Z" fill="white"/>
</g>
<g style="mix-blend-mode:overlay">
<path d="M37.3139 26.1216C37.3139 26.0892 37.318 26.0569 37.326 26.0286C37.3786 25.8385 37.5768 25.7213 37.7668 25.7738C37.9245 25.8143 38.0337 25.9598 38.0337 26.1216C38.0337 26.1539 38.0296 26.1863 38.0216 26.2146C37.9973 26.3076 37.9366 26.3844 37.8517 26.4329C37.7668 26.4815 37.6698 26.4936 37.5768 26.4693C37.419 26.4289 37.3099 26.2833 37.3099 26.1216L37.3139 26.1216Z" fill="white"/>
</g>
<path d="M37.7617 22.7359C37.7617 22.5377 37.9234 22.376 38.1216 22.376C38.3197 22.376 38.4814 22.5377 38.4814 22.7359C38.4814 22.934 38.3197 23.0958 38.1216 23.0958C37.9234 23.0958 37.7617 22.934 37.7617 22.7359Z" fill="white"/>
<g style="mix-blend-mode:overlay">
<path d="M11.6025 22.7359C11.6025 22.5377 11.7642 22.376 11.9624 22.376C12.1605 22.376 12.3223 22.5377 12.3223 22.7359C12.3223 22.934 12.1605 23.0958 11.9624 23.0958C11.7642 23.0958 11.6025 22.934 11.6025 22.7359Z" fill="white"/>
</g>
<path d="M37.3168 19.3555C37.3168 19.1937 37.426 19.0522 37.5837 19.0077C37.7738 18.9551 37.9719 19.0724 38.0245 19.2625C38.0326 19.2948 38.0366 19.3231 38.0366 19.3555C38.0366 19.5172 37.9274 19.6587 37.7697 19.7032C37.5797 19.7558 37.3815 19.6385 37.329 19.4485C37.3209 19.4161 37.3168 19.3878 37.3168 19.3555Z" fill="white"/>
<g style="mix-blend-mode:overlay">
<path d="M12.0836 26.1167C12.0836 25.955 12.1928 25.8134 12.3505 25.769C12.4435 25.7447 12.5405 25.7568 12.6214 25.8054C12.7023 25.8539 12.7629 25.9307 12.7872 26.0237C12.7953 26.0561 12.7993 26.0844 12.7993 26.1167C12.7993 26.2785 12.6901 26.42 12.5324 26.4645C12.4394 26.4887 12.3424 26.4766 12.2615 26.4281C12.1766 26.3796 12.12 26.3027 12.0957 26.2097C12.0876 26.1774 12.0836 26.1491 12.0836 26.1167Z" fill="white"/>
</g>
<g clip-path="url(#clip0_151_5020)">
<path d="M26.924 27.7531C25.5233 27.7531 24.3369 27.267 23.3648 26.2949C22.3927 25.3228 21.9066 24.1364 21.9066 22.7357C21.9066 21.335 22.3927 20.1486 23.3648 19.1764C24.3369 18.2043 25.5233 17.7183 26.924 17.7183C28.3247 17.7183 29.5111 18.2043 30.4833 19.1764C31.4554 20.1486 31.9414 21.335 31.9414 22.7357C31.9414 24.1364 31.4554 25.3228 30.4833 26.2949C29.5111 27.267 28.3247 27.7531 26.924 27.7531ZM28.5233 24.9778L29.1819 24.3193L27.4101 22.5318L27.3944 20.227H26.4536V22.9238L28.5233 24.9778ZM18.7707 20.6974V19.7566H21.2794V20.6974H18.7707ZM18.1436 23.2061V22.2653H21.2794V23.2061H18.1436ZM18.7707 25.7148V24.774H21.2794V25.7148H18.7707Z" fill="white"/>
</g>
<defs>
<filter id="filter0_f_151_5020" x="0.850939" y="-1.43715" width="48.3821" height="48.3445" filterUnits="userSpaceOnUse" color-interpolation-filters="sRGB">
<feFlood flood-opacity="0" result="BackgroundImageFix"/>
<feBlend mode="normal" in="SourceGraphic" in2="BackgroundImageFix" result="shape"/>
<feGaussianBlur stdDeviation="5.3758" result="effect1_foregroundBlur_151_5020"/>
</filter>
<linearGradient id="paint0_linear_151_5020" x1="13.9361" y1="22.7363" x2="36.144" y2="22.7363" gradientUnits="userSpaceOnUse">
<stop stop-color="#003BFA"/>
<stop offset="0.786458" stop-color="#68EAFC"/>
</linearGradient>
<linearGradient id="paint1_linear_151_5020" x1="36.3707" y1="15.8452" x2="36.3707" y2="16.565" gradientUnits="userSpaceOnUse">
<stop stop-color="#08F2EB"/>
<stop offset="1" stop-color="#08B9FF"/>
</linearGradient>
<linearGradient id="paint2_linear_151_5020" x1="13.3897" y1="29.2641" x2="14.1055" y2="29.2641" gradientUnits="userSpaceOnUse">
<stop stop-color="#003BFA"/>
<stop offset="0.786458" stop-color="#68EAFC"/>
</linearGradient>
<linearGradient id="paint3_linear_151_5020" x1="34.2964" y1="13.1411" x2="34.2964" y2="13.8609" gradientUnits="userSpaceOnUse">
<stop stop-color="#08F2EB"/>
<stop offset="1" stop-color="#08B9FF"/>
</linearGradient>
<linearGradient id="paint4_linear_151_5020" x1="15.4648" y1="31.9727" x2="16.1846" y2="31.9727" gradientUnits="userSpaceOnUse">
<stop stop-color="#003BFA"/>
<stop offset="0.786458" stop-color="#68EAFC"/>
</linearGradient>
<linearGradient id="paint5_linear_151_5020" x1="31.5914" y1="11.0648" x2="31.5914" y2="11.7846" gradientUnits="userSpaceOnUse">
<stop stop-color="#08F2EB"/>
<stop offset="1" stop-color="#08B9FF"/>
</linearGradient>
<linearGradient id="paint6_linear_151_5020" x1="18.17" y1="34.0463" x2="18.8857" y2="34.0463" gradientUnits="userSpaceOnUse">
<stop stop-color="#003BFA"/>
<stop offset="0.786458" stop-color="#68EAFC"/>
</linearGradient>
<linearGradient id="paint7_linear_151_5020" x1="28.441" y1="9.75928" x2="28.441" y2="10.4791" gradientUnits="userSpaceOnUse">
<stop stop-color="#08F2EB"/>
<stop offset="1" stop-color="#08B9FF"/>
</linearGradient>
<linearGradient id="paint8_linear_151_5020" x1="21.3193" y1="35.3528" x2="22.0391" y2="35.3528" gradientUnits="userSpaceOnUse">
<stop stop-color="#003BFA"/>
<stop offset="0.786458" stop-color="#68EAFC"/>
</linearGradient>
<linearGradient id="paint9_linear_151_5020" x1="25.0595" y1="9.31445" x2="25.0595" y2="10.0342" gradientUnits="userSpaceOnUse">
<stop stop-color="#08F2EB"/>
<stop offset="1" stop-color="#08B9FF"/>
</linearGradient>
<linearGradient id="paint10_linear_151_5020" x1="24.6997" y1="35.7959" x2="25.4194" y2="35.7959" gradientUnits="userSpaceOnUse">
<stop stop-color="#003BFA"/>
<stop offset="0.786458" stop-color="#68EAFC"/>
</linearGradient>
<linearGradient id="paint11_linear_151_5020" x1="21.3149" y1="10.1194" x2="22.0347" y2="10.1194" gradientUnits="userSpaceOnUse">
<stop stop-color="#003BFA"/>
<stop offset="0.786458" stop-color="#68EAFC"/>
</linearGradient>
<linearGradient id="paint12_linear_151_5020" x1="28.08" y1="35.3538" x2="28.7998" y2="35.3538" gradientUnits="userSpaceOnUse">
<stop stop-color="#003BFA"/>
<stop offset="0.786458" stop-color="#68EAFC"/>
</linearGradient>
<linearGradient id="paint13_linear_151_5020" x1="18.17" y1="11.4223" x2="18.8857" y2="11.4223" gradientUnits="userSpaceOnUse">
<stop stop-color="#003BFA"/>
<stop offset="0.786458" stop-color="#68EAFC"/>
</linearGradient>
<linearGradient id="paint14_linear_151_5020" x1="31.2315" y1="34.0462" x2="31.9473" y2="34.0462" gradientUnits="userSpaceOnUse">
<stop stop-color="#003BFA"/>
<stop offset="0.786458" stop-color="#68EAFC"/>
</linearGradient>
<linearGradient id="paint15_linear_151_5020" x1="15.4643" y1="13.501" x2="16.1841" y2="13.501" gradientUnits="userSpaceOnUse">
<stop stop-color="#003BFA"/>
<stop offset="0.786458" stop-color="#68EAFC"/>
</linearGradient>
<linearGradient id="paint16_linear_151_5020" x1="33.936" y1="31.9742" x2="34.6558" y2="31.9742" gradientUnits="userSpaceOnUse">
<stop stop-color="#003BFA"/>
<stop offset="0.786458" stop-color="#68EAFC"/>
</linearGradient>
<linearGradient id="paint17_linear_151_5020" x1="13.3558" y1="16.1935" x2="14.0796" y2="16.1935" gradientUnits="userSpaceOnUse">
<stop stop-color="#003BFA"/>
<stop offset="0.786458" stop-color="#68EAFC"/>
</linearGradient>
<linearGradient id="paint18_linear_151_5020" x1="36.0081" y1="29.2736" x2="36.7319" y2="29.2736" gradientUnits="userSpaceOnUse">
<stop stop-color="#003BFA"/>
<stop offset="0.786458" stop-color="#68EAFC"/>
</linearGradient>
<linearGradient id="paint19_linear_151_5020" x1="12.0496" y1="19.3516" x2="12.7734" y2="19.3516" gradientUnits="userSpaceOnUse">
<stop stop-color="#003BFA"/>
<stop offset="0.786458" stop-color="#68EAFC"/>
</linearGradient>
<linearGradient id="paint20_linear_151_5020" x1="37.3099" y1="26.1213" x2="38.0337" y2="26.1213" gradientUnits="userSpaceOnUse">
<stop stop-color="#003BFA"/>
<stop offset="0.786458" stop-color="#68EAFC"/>
</linearGradient>
<linearGradient id="paint21_linear_151_5020" x1="37.7617" y1="22.7359" x2="38.4814" y2="22.7359" gradientUnits="userSpaceOnUse">
<stop stop-color="#003BFA"/>
<stop offset="0.786458" stop-color="#68EAFC"/>
</linearGradient>
<linearGradient id="paint22_linear_151_5020" x1="11.6025" y1="22.7359" x2="12.3223" y2="22.7359" gradientUnits="userSpaceOnUse">
<stop stop-color="#003BFA"/>
<stop offset="0.786458" stop-color="#68EAFC"/>
</linearGradient>
<linearGradient id="paint23_linear_151_5020" x1="37.3168" y1="19.3555" x2="38.0366" y2="19.3555" gradientUnits="userSpaceOnUse">
<stop stop-color="#003BFA"/>
<stop offset="0.786458" stop-color="#68EAFC"/>
</linearGradient>
<linearGradient id="paint24_linear_151_5020" x1="12.0836" y1="26.1167" x2="12.7993" y2="26.1167" gradientUnits="userSpaceOnUse">
<stop stop-color="#003BFA"/>
<stop offset="0.786458" stop-color="#68EAFC"/>
</linearGradient>
<clipPath id="clip0_151_5020">
<rect width="15.0522" height="15.0522" fill="white" transform="translate(17.5161 15.209)"/>
</clipPath>
</defs>
</svg>
