<svg width="49" height="47" viewBox="0 0 49 47" fill="none" xmlns="http://www.w3.org/2000/svg">
<g filter="url(#filter0_f_151_4906)">
<path d="M35.3472 22.667C35.3472 16.5367 30.3775 11.563 24.2432 11.563C18.1089 11.563 13.1392 16.5327 13.1392 22.667C13.1392 28.8013 18.1089 33.771 24.2432 33.771C30.3775 33.771 35.3472 28.7972 35.3472 22.667ZM14.1825 22.667C14.1825 17.1109 18.6872 12.6022 24.2472 12.6022C29.8073 12.6022 34.3079 17.1109 34.3079 22.667C34.3079 28.223 29.8033 32.7317 24.2432 32.7317C18.6831 32.7317 14.1784 28.227 14.1784 22.667L14.1825 22.667Z" fill="url(#paint0_linear_151_4906)"/>
<path d="M35.2135 16.1367C35.2135 16.0073 35.2822 15.89 35.3914 15.8254C35.5612 15.7243 35.7836 15.7849 35.8807 15.9588C35.913 16.0154 35.9292 16.0761 35.9292 16.1367C35.9292 16.2661 35.8605 16.3834 35.7513 16.4481C35.6664 16.4966 35.5693 16.5087 35.4803 16.4845C35.3873 16.4602 35.3105 16.3996 35.262 16.3187C35.2296 16.2621 35.2135 16.2014 35.2135 16.1408L35.2135 16.1367Z" fill="url(#paint1_linear_151_4906)"/>
<g style="mix-blend-mode:overlay">
<path d="M12.5924 29.1978C12.5924 29.0684 12.6611 28.9511 12.7703 28.8864C12.8552 28.8379 12.9523 28.8258 13.0412 28.85C13.1342 28.8743 13.2111 28.9349 13.2596 29.0158C13.2919 29.0724 13.3081 29.1331 13.3081 29.1937C13.3081 29.3231 13.2394 29.4404 13.1302 29.5051C13.0453 29.5536 12.9482 29.5658 12.8593 29.5415C12.7703 29.5172 12.6894 29.4566 12.6409 29.3757C12.6085 29.3191 12.5924 29.2584 12.5924 29.1978Z" fill="url(#paint2_linear_151_4906)"/>
</g>
<path d="M33.1396 13.4307C33.1396 13.3337 33.176 13.2447 33.2447 13.176C33.3863 13.0344 33.6127 13.0344 33.7542 13.176C33.823 13.2447 33.8594 13.3337 33.8594 13.4307C33.8594 13.5278 33.823 13.6167 33.7542 13.6855C33.6127 13.827 33.3863 13.827 33.2447 13.6855C33.176 13.6167 33.1396 13.5278 33.1396 13.4307Z" fill="url(#paint3_linear_151_4906)"/>
<g style="mix-blend-mode:overlay">
<path d="M14.6679 31.9024C14.6679 31.8054 14.7043 31.7164 14.7731 31.6477C14.9146 31.5061 15.141 31.5061 15.2826 31.6477C15.3513 31.7164 15.3877 31.8054 15.3877 31.9024C15.3877 31.9995 15.3513 32.0884 15.2826 32.1572C15.141 32.2987 14.9146 32.2987 14.7731 32.1572C14.7043 32.0884 14.6679 31.9995 14.6679 31.9024Z" fill="url(#paint4_linear_151_4906)"/>
</g>
<path d="M30.4347 11.3573C30.4347 11.2926 30.4508 11.232 30.4832 11.1794C30.5317 11.0945 30.6085 11.0379 30.7015 11.0136C30.7945 10.9893 30.8916 11.0015 30.9725 11.05C31.0816 11.1147 31.1504 11.232 31.1504 11.3614C31.1504 11.4261 31.1342 11.4867 31.1019 11.5393C31.0533 11.6242 30.9765 11.6808 30.8835 11.7051C30.7905 11.7293 30.6935 11.7172 30.6085 11.6687C30.4994 11.604 30.4306 11.4867 30.4306 11.3573L30.4347 11.3573Z" fill="url(#paint5_linear_151_4906)"/>
<g style="mix-blend-mode:overlay">
<path d="M17.3731 33.9774C17.3731 33.9127 17.3893 33.8521 17.4217 33.7995C17.4702 33.7146 17.547 33.658 17.64 33.6337C17.733 33.6095 17.8301 33.6216 17.9109 33.6701C18.0201 33.7348 18.0889 33.8521 18.0889 33.9815C18.0889 34.0462 18.0727 34.1068 18.0403 34.1594C17.9918 34.2443 17.915 34.3009 17.822 34.3252C17.729 34.3494 17.6319 34.3373 17.5511 34.2888C17.4419 34.2241 17.3731 34.1068 17.3731 33.9774Z" fill="url(#paint6_linear_151_4906)"/>
</g>
<path d="M27.2843 10.0508C27.2843 10.0185 27.2883 9.98611 27.2964 9.9578C27.3207 9.8648 27.3813 9.78797 27.4622 9.73944C27.5471 9.69092 27.6442 9.67879 27.7331 9.70305C27.8908 9.74349 28 9.88906 28 10.0508C28 10.0832 28 10.1115 27.9879 10.1438C27.9353 10.3339 27.7372 10.4511 27.5471 10.3986C27.3894 10.3581 27.2802 10.2126 27.2802 10.0508L27.2843 10.0508Z" fill="url(#paint7_linear_151_4906)"/>
<g style="mix-blend-mode:overlay">
<path d="M20.5224 35.2842C20.5224 35.2518 20.5224 35.2235 20.5345 35.1912C20.5871 35.0011 20.7853 34.8838 20.9753 34.9364C21.133 34.9769 21.2422 35.1224 21.2422 35.2842C21.2422 35.3165 21.2381 35.3489 21.2301 35.3772C21.2058 35.4702 21.1451 35.547 21.0643 35.5955C20.9793 35.6441 20.8863 35.6562 20.7933 35.6319C20.6356 35.5915 20.5265 35.4459 20.5265 35.2842L20.5224 35.2842Z" fill="url(#paint8_linear_151_4906)"/>
</g>
<path d="M23.9028 9.60549C23.9028 9.80426 24.0639 9.96538 24.2627 9.96538C24.4614 9.96538 24.6226 9.80426 24.6226 9.60549C24.6226 9.40673 24.4614 9.24561 24.2627 9.24561C24.0639 9.24561 23.9028 9.40673 23.9028 9.60549Z" fill="url(#paint9_linear_151_4906)"/>
<g style="mix-blend-mode:overlay">
<path d="M23.9028 35.7276C23.9028 35.9263 24.0639 36.0875 24.2627 36.0875C24.4614 36.0875 24.6226 35.9263 24.6226 35.7276C24.6226 35.5288 24.4614 35.3677 24.2627 35.3677C24.0639 35.3677 23.9028 35.5288 23.9028 35.7276Z" fill="url(#paint10_linear_151_4906)"/>
</g>
<g style="mix-blend-mode:overlay">
<path d="M20.5221 10.0508C20.5221 9.88906 20.6312 9.74753 20.7889 9.70305C20.8819 9.67879 20.979 9.69092 21.0599 9.73944C21.1448 9.78797 21.2014 9.8648 21.2257 9.9578C21.2337 9.99015 21.2378 10.0185 21.2378 10.0508C21.2378 10.2126 21.1286 10.3541 20.9709 10.3986C20.7809 10.4511 20.5827 10.3339 20.5301 10.1438C20.5221 10.1115 20.518 10.0832 20.518 10.0508L20.5221 10.0508Z" fill="url(#paint11_linear_151_4906)"/>
</g>
<g style="mix-blend-mode:overlay">
<path d="M27.2832 35.2842C27.2832 35.1224 27.3923 34.9809 27.55 34.9364C27.7401 34.8838 27.9382 35.0011 27.9908 35.1912C27.9989 35.2235 28.0029 35.2518 28.0029 35.2842C28.0029 35.4459 27.8937 35.5875 27.736 35.6319C27.643 35.6562 27.546 35.6441 27.4651 35.5955C27.3802 35.547 27.3236 35.4702 27.2993 35.3772C27.2912 35.3448 27.2872 35.3165 27.2872 35.2842L27.2832 35.2842Z" fill="url(#paint12_linear_151_4906)"/>
</g>
<g style="mix-blend-mode:overlay">
<path d="M17.3736 11.357C17.3736 11.2276 17.4424 11.1103 17.5515 11.0456C17.6365 10.9971 17.7335 10.9849 17.8225 11.0092C17.9155 11.0335 17.9923 11.0941 18.0408 11.175C18.0732 11.2316 18.0894 11.2923 18.0894 11.3529C18.0894 11.4823 18.0206 11.5996 17.9114 11.6643C17.8265 11.7128 17.7295 11.7249 17.6405 11.7007C17.5475 11.6764 17.4707 11.6158 17.4221 11.5349C17.3898 11.4783 17.3736 11.4176 17.3736 11.357Z" fill="url(#paint13_linear_151_4906)"/>
</g>
<g style="mix-blend-mode:overlay">
<path d="M30.4351 33.9782C30.4351 33.8488 30.5039 33.7315 30.6131 33.6668C30.7829 33.5698 31.0053 33.6264 31.1024 33.8003C31.1347 33.8569 31.1509 33.9175 31.1509 33.9782C31.1509 34.1076 31.0821 34.2248 30.973 34.2895C30.888 34.3381 30.791 34.3502 30.702 34.3259C30.609 34.3017 30.5322 34.241 30.4837 34.1601C30.4513 34.1035 30.4351 34.0429 30.4351 33.9822L30.4351 33.9782Z" fill="url(#paint14_linear_151_4906)"/>
</g>
<g style="mix-blend-mode:overlay">
<path d="M14.6679 13.4307C14.6679 13.3337 14.7043 13.2447 14.7731 13.176C14.9146 13.0344 15.141 13.0344 15.2826 13.176C15.3513 13.2447 15.3877 13.3337 15.3877 13.4307C15.3877 13.5278 15.3513 13.6167 15.2826 13.6855C15.141 13.827 14.9146 13.827 14.7731 13.6855C14.7043 13.6167 14.6679 13.5278 14.6679 13.4307Z" fill="url(#paint15_linear_151_4906)"/>
</g>
<g style="mix-blend-mode:overlay">
<path d="M33.1396 31.9024C33.1396 31.8054 33.176 31.7164 33.2447 31.6477C33.3863 31.5061 33.6127 31.5061 33.7542 31.6477C33.823 31.7164 33.8594 31.8054 33.8594 31.9024C33.8594 31.9995 33.823 32.0884 33.7542 32.1572C33.6127 32.2987 33.3863 32.2987 33.2447 32.1572C33.176 32.0884 33.1396 31.9995 33.1396 31.9024Z" fill="url(#paint16_linear_151_4906)"/>
</g>
<g style="mix-blend-mode:overlay">
<path d="M12.5589 16.1247C12.5589 16.06 12.5751 15.9993 12.6074 15.9467C12.7085 15.7729 12.9269 15.7163 13.1007 15.8133C13.214 15.878 13.2827 15.9993 13.2827 16.1247C13.2827 16.1894 13.2665 16.25 13.2342 16.3026C13.1331 16.4765 12.9147 16.5331 12.7409 16.436C12.6276 16.3713 12.5589 16.25 12.5589 16.1247Z" fill="url(#paint17_linear_151_4906)"/>
</g>
<g style="mix-blend-mode:overlay">
<path d="M35.2112 29.2052C35.2112 29.1405 35.2274 29.0799 35.2598 29.0273C35.3609 28.8534 35.5792 28.7968 35.7531 28.8939C35.8663 28.9586 35.9351 29.0799 35.9351 29.2052C35.9351 29.2699 35.9189 29.3306 35.8865 29.3832C35.7854 29.557 35.5671 29.6136 35.3932 29.5166C35.28 29.4519 35.2112 29.3306 35.2112 29.2052Z" fill="url(#paint18_linear_151_4906)"/>
</g>
<g style="mix-blend-mode:overlay">
<path d="M11.2527 19.2842C11.2527 19.2519 11.2568 19.2195 11.2649 19.1912C11.2891 19.0982 11.3498 19.0214 11.4347 18.9728C11.5196 18.9243 11.6167 18.9122 11.7097 18.9364C11.8674 18.9769 11.9766 19.1225 11.9766 19.2842C11.9766 19.3166 11.9725 19.3489 11.9644 19.3772C11.9402 19.4702 11.8795 19.547 11.7946 19.5956C11.7097 19.6441 11.6126 19.6562 11.5196 19.632C11.3619 19.5915 11.2527 19.446 11.2527 19.2842Z" fill="url(#paint19_linear_151_4906)"/>
</g>
<g style="mix-blend-mode:overlay">
<path d="M36.517 26.0537C36.517 26.0214 36.5211 25.989 36.5292 25.9607C36.5817 25.7706 36.7799 25.6534 36.9699 25.7059C37.1276 25.7464 37.2368 25.892 37.2368 26.0537C37.2368 26.0861 37.2328 26.1184 37.2247 26.1467C37.2004 26.2397 37.1398 26.3165 37.0549 26.3651C36.9699 26.4136 36.8729 26.4257 36.7799 26.4015C36.6222 26.361 36.513 26.2155 36.513 26.0537L36.517 26.0537Z" fill="url(#paint20_linear_151_4906)"/>
</g>
<path d="M36.9648 22.667C36.9648 22.4689 37.1265 22.3071 37.3247 22.3071C37.5228 22.3071 37.6846 22.4689 37.6846 22.667C37.6846 22.8652 37.5228 23.0269 37.3247 23.0269C37.1265 23.0269 36.9648 22.8652 36.9648 22.667Z" fill="url(#paint21_linear_151_4906)"/>
<g style="mix-blend-mode:overlay">
<path d="M10.8056 22.667C10.8056 22.4689 10.9674 22.3071 11.1655 22.3071C11.3636 22.3071 11.5254 22.4689 11.5254 22.667C11.5254 22.8652 11.3636 23.0269 11.1655 23.0269C10.9674 23.0269 10.8056 22.8652 10.8056 22.667Z" fill="url(#paint22_linear_151_4906)"/>
</g>
<path d="M36.52 19.2866C36.52 19.1249 36.6291 18.9833 36.7869 18.9389C36.9769 18.8863 37.175 19.0036 37.2276 19.1936C37.2357 19.226 37.2397 19.2543 37.2397 19.2866C37.2397 19.4484 37.1306 19.5899 36.9729 19.6344C36.7828 19.6869 36.5847 19.5697 36.5321 19.3796C36.524 19.3473 36.52 19.319 36.52 19.2866Z" fill="url(#paint23_linear_151_4906)"/>
<g style="mix-blend-mode:overlay">
<path d="M11.2867 26.0479C11.2867 25.8861 11.3959 25.7446 11.5536 25.7001C11.6466 25.6759 11.7436 25.688 11.8245 25.7365C11.9054 25.785 11.966 25.8619 11.9903 25.9549C11.9984 25.9872 12.0024 26.0155 12.0024 26.0479C12.0024 26.2096 11.8933 26.3512 11.7356 26.3956C11.6426 26.4199 11.5455 26.4078 11.4646 26.3592C11.3797 26.3107 11.3231 26.2339 11.2988 26.1409C11.2908 26.1085 11.2867 26.0802 11.2867 26.0479Z" fill="url(#paint24_linear_151_4906)"/>
</g>
</g>
<path d="M35.3472 22.667C35.3472 16.5367 30.3775 11.563 24.2432 11.563C18.1089 11.563 13.1392 16.5327 13.1392 22.667C13.1392 28.8013 18.1089 33.771 24.2432 33.771C30.3775 33.771 35.3472 28.7972 35.3472 22.667ZM14.1825 22.667C14.1825 17.1109 18.6872 12.6022 24.2472 12.6022C29.8073 12.6022 34.3079 17.1109 34.3079 22.667C34.3079 28.223 29.8033 32.7317 24.2432 32.7317C18.6831 32.7317 14.1784 28.227 14.1784 22.667L14.1825 22.667Z" fill="white"/>
<path d="M35.2135 16.1367C35.2135 16.0073 35.2822 15.89 35.3914 15.8254C35.5612 15.7243 35.7836 15.7849 35.8807 15.9588C35.913 16.0154 35.9292 16.0761 35.9292 16.1367C35.9292 16.2661 35.8605 16.3834 35.7513 16.4481C35.6664 16.4966 35.5693 16.5087 35.4803 16.4845C35.3873 16.4602 35.3105 16.3996 35.262 16.3187C35.2296 16.2621 35.2135 16.2014 35.2135 16.1408L35.2135 16.1367Z" fill="white"/>
<g style="mix-blend-mode:overlay">
<path d="M12.5924 29.1978C12.5924 29.0684 12.6611 28.9511 12.7703 28.8864C12.8552 28.8379 12.9523 28.8258 13.0412 28.85C13.1342 28.8743 13.2111 28.9349 13.2596 29.0158C13.2919 29.0724 13.3081 29.1331 13.3081 29.1937C13.3081 29.3231 13.2394 29.4404 13.1302 29.5051C13.0453 29.5536 12.9482 29.5658 12.8593 29.5415C12.7703 29.5172 12.6894 29.4566 12.6409 29.3757C12.6085 29.3191 12.5924 29.2584 12.5924 29.1978Z" fill="white"/>
</g>
<path d="M33.1396 13.4307C33.1396 13.3337 33.176 13.2447 33.2447 13.176C33.3863 13.0344 33.6127 13.0344 33.7542 13.176C33.823 13.2447 33.8594 13.3337 33.8594 13.4307C33.8594 13.5278 33.823 13.6167 33.7542 13.6855C33.6127 13.827 33.3863 13.827 33.2447 13.6855C33.176 13.6167 33.1396 13.5278 33.1396 13.4307Z" fill="white"/>
<g style="mix-blend-mode:overlay">
<path d="M14.6679 31.9024C14.6679 31.8054 14.7043 31.7164 14.7731 31.6477C14.9146 31.5061 15.141 31.5061 15.2826 31.6477C15.3513 31.7164 15.3877 31.8054 15.3877 31.9024C15.3877 31.9995 15.3513 32.0884 15.2826 32.1572C15.141 32.2987 14.9146 32.2987 14.7731 32.1572C14.7043 32.0884 14.6679 31.9995 14.6679 31.9024Z" fill="white"/>
</g>
<path d="M30.4347 11.3573C30.4347 11.2926 30.4508 11.232 30.4832 11.1794C30.5317 11.0945 30.6085 11.0379 30.7015 11.0136C30.7945 10.9893 30.8916 11.0015 30.9725 11.05C31.0816 11.1147 31.1504 11.232 31.1504 11.3614C31.1504 11.4261 31.1342 11.4867 31.1019 11.5393C31.0533 11.6242 30.9765 11.6808 30.8835 11.7051C30.7905 11.7293 30.6935 11.7172 30.6085 11.6687C30.4994 11.604 30.4306 11.4867 30.4306 11.3573L30.4347 11.3573Z" fill="white"/>
<g style="mix-blend-mode:overlay">
<path d="M17.3731 33.9774C17.3731 33.9127 17.3893 33.8521 17.4217 33.7995C17.4702 33.7146 17.547 33.658 17.64 33.6337C17.733 33.6095 17.8301 33.6216 17.9109 33.6701C18.0201 33.7348 18.0889 33.8521 18.0889 33.9815C18.0889 34.0462 18.0727 34.1068 18.0403 34.1594C17.9918 34.2443 17.915 34.3009 17.822 34.3252C17.729 34.3494 17.6319 34.3373 17.5511 34.2888C17.4419 34.2241 17.3731 34.1068 17.3731 33.9774Z" fill="white"/>
</g>
<path d="M27.2843 10.0508C27.2843 10.0185 27.2883 9.98611 27.2964 9.9578C27.3207 9.8648 27.3813 9.78797 27.4622 9.73944C27.5471 9.69092 27.6442 9.67879 27.7331 9.70305C27.8908 9.74349 28 9.88906 28 10.0508C28 10.0832 28 10.1115 27.9879 10.1438C27.9353 10.3339 27.7372 10.4511 27.5471 10.3986C27.3894 10.3581 27.2802 10.2126 27.2802 10.0508L27.2843 10.0508Z" fill="white"/>
<g style="mix-blend-mode:overlay">
<path d="M20.5224 35.2842C20.5224 35.2518 20.5224 35.2235 20.5345 35.1912C20.5871 35.0011 20.7853 34.8838 20.9753 34.9364C21.133 34.9769 21.2422 35.1224 21.2422 35.2842C21.2422 35.3165 21.2381 35.3489 21.2301 35.3772C21.2058 35.4702 21.1451 35.547 21.0643 35.5955C20.9793 35.6441 20.8863 35.6562 20.7933 35.6319C20.6356 35.5915 20.5265 35.4459 20.5265 35.2842L20.5224 35.2842Z" fill="white"/>
</g>
<path d="M23.9028 9.60549C23.9028 9.80426 24.0639 9.96538 24.2627 9.96538C24.4614 9.96538 24.6226 9.80426 24.6226 9.60549C24.6226 9.40673 24.4614 9.24561 24.2627 9.24561C24.0639 9.24561 23.9028 9.40673 23.9028 9.60549Z" fill="white"/>
<g style="mix-blend-mode:overlay">
<path d="M23.9028 35.7276C23.9028 35.9263 24.0639 36.0875 24.2627 36.0875C24.4614 36.0875 24.6226 35.9263 24.6226 35.7276C24.6226 35.5288 24.4614 35.3677 24.2627 35.3677C24.0639 35.3677 23.9028 35.5288 23.9028 35.7276Z" fill="white"/>
</g>
<g style="mix-blend-mode:overlay">
<path d="M20.5221 10.0508C20.5221 9.88906 20.6312 9.74753 20.7889 9.70305C20.8819 9.67879 20.979 9.69092 21.0599 9.73944C21.1448 9.78797 21.2014 9.8648 21.2257 9.9578C21.2337 9.99015 21.2378 10.0185 21.2378 10.0508C21.2378 10.2126 21.1286 10.3541 20.9709 10.3986C20.7809 10.4511 20.5827 10.3339 20.5301 10.1438C20.5221 10.1115 20.518 10.0832 20.518 10.0508L20.5221 10.0508Z" fill="white"/>
</g>
<g style="mix-blend-mode:overlay">
<path d="M27.2832 35.2842C27.2832 35.1224 27.3923 34.9809 27.55 34.9364C27.7401 34.8838 27.9382 35.0011 27.9908 35.1912C27.9989 35.2235 28.0029 35.2518 28.0029 35.2842C28.0029 35.4459 27.8937 35.5875 27.736 35.6319C27.643 35.6562 27.546 35.6441 27.4651 35.5955C27.3802 35.547 27.3236 35.4702 27.2993 35.3772C27.2912 35.3448 27.2872 35.3165 27.2872 35.2842L27.2832 35.2842Z" fill="white"/>
</g>
<g style="mix-blend-mode:overlay">
<path d="M17.3736 11.357C17.3736 11.2276 17.4424 11.1103 17.5515 11.0456C17.6365 10.9971 17.7335 10.9849 17.8225 11.0092C17.9155 11.0335 17.9923 11.0941 18.0408 11.175C18.0732 11.2316 18.0894 11.2923 18.0894 11.3529C18.0894 11.4823 18.0206 11.5996 17.9114 11.6643C17.8265 11.7128 17.7295 11.7249 17.6405 11.7007C17.5475 11.6764 17.4707 11.6158 17.4221 11.5349C17.3898 11.4783 17.3736 11.4176 17.3736 11.357Z" fill="white"/>
</g>
<g style="mix-blend-mode:overlay">
<path d="M30.4351 33.9782C30.4351 33.8488 30.5039 33.7315 30.6131 33.6668C30.7829 33.5698 31.0053 33.6264 31.1024 33.8003C31.1347 33.8569 31.1509 33.9175 31.1509 33.9782C31.1509 34.1076 31.0821 34.2248 30.973 34.2895C30.888 34.3381 30.791 34.3502 30.702 34.3259C30.609 34.3017 30.5322 34.241 30.4837 34.1601C30.4513 34.1035 30.4351 34.0429 30.4351 33.9822L30.4351 33.9782Z" fill="white"/>
</g>
<g style="mix-blend-mode:overlay">
<path d="M14.6679 13.4307C14.6679 13.3337 14.7043 13.2447 14.7731 13.176C14.9146 13.0344 15.141 13.0344 15.2826 13.176C15.3513 13.2447 15.3877 13.3337 15.3877 13.4307C15.3877 13.5278 15.3513 13.6167 15.2826 13.6855C15.141 13.827 14.9146 13.827 14.7731 13.6855C14.7043 13.6167 14.6679 13.5278 14.6679 13.4307Z" fill="white"/>
</g>
<g style="mix-blend-mode:overlay">
<path d="M33.1396 31.9024C33.1396 31.8054 33.176 31.7164 33.2447 31.6477C33.3863 31.5061 33.6127 31.5061 33.7542 31.6477C33.823 31.7164 33.8594 31.8054 33.8594 31.9024C33.8594 31.9995 33.823 32.0884 33.7542 32.1572C33.6127 32.2987 33.3863 32.2987 33.2447 32.1572C33.176 32.0884 33.1396 31.9995 33.1396 31.9024Z" fill="white"/>
</g>
<g style="mix-blend-mode:overlay">
<path d="M12.5589 16.1247C12.5589 16.06 12.5751 15.9993 12.6074 15.9467C12.7085 15.7729 12.9269 15.7163 13.1007 15.8133C13.214 15.878 13.2827 15.9993 13.2827 16.1247C13.2827 16.1894 13.2665 16.25 13.2342 16.3026C13.1331 16.4765 12.9147 16.5331 12.7409 16.436C12.6276 16.3713 12.5589 16.25 12.5589 16.1247Z" fill="white"/>
</g>
<g style="mix-blend-mode:overlay">
<path d="M35.2112 29.2052C35.2112 29.1405 35.2274 29.0799 35.2598 29.0273C35.3609 28.8534 35.5792 28.7968 35.7531 28.8939C35.8663 28.9586 35.9351 29.0799 35.9351 29.2052C35.9351 29.2699 35.9189 29.3306 35.8865 29.3832C35.7854 29.557 35.5671 29.6136 35.3932 29.5166C35.28 29.4519 35.2112 29.3306 35.2112 29.2052Z" fill="white"/>
</g>
<g style="mix-blend-mode:overlay">
<path d="M11.2527 19.2842C11.2527 19.2519 11.2568 19.2195 11.2649 19.1912C11.2891 19.0982 11.3498 19.0214 11.4347 18.9728C11.5196 18.9243 11.6167 18.9122 11.7097 18.9364C11.8674 18.9769 11.9766 19.1225 11.9766 19.2842C11.9766 19.3166 11.9725 19.3489 11.9644 19.3772C11.9402 19.4702 11.8795 19.547 11.7946 19.5956C11.7097 19.6441 11.6126 19.6562 11.5196 19.632C11.3619 19.5915 11.2527 19.446 11.2527 19.2842Z" fill="white"/>
</g>
<g style="mix-blend-mode:overlay">
<path d="M36.517 26.0537C36.517 26.0214 36.5211 25.989 36.5292 25.9607C36.5817 25.7706 36.7799 25.6534 36.9699 25.7059C37.1276 25.7464 37.2368 25.892 37.2368 26.0537C37.2368 26.0861 37.2328 26.1184 37.2247 26.1467C37.2004 26.2397 37.1398 26.3165 37.0549 26.3651C36.9699 26.4136 36.8729 26.4257 36.7799 26.4015C36.6222 26.361 36.513 26.2155 36.513 26.0537L36.517 26.0537Z" fill="white"/>
</g>
<path d="M36.9648 22.667C36.9648 22.4689 37.1265 22.3071 37.3247 22.3071C37.5228 22.3071 37.6846 22.4689 37.6846 22.667C37.6846 22.8652 37.5228 23.0269 37.3247 23.0269C37.1265 23.0269 36.9648 22.8652 36.9648 22.667Z" fill="white"/>
<g style="mix-blend-mode:overlay">
<path d="M10.8056 22.667C10.8056 22.4689 10.9674 22.3071 11.1655 22.3071C11.3636 22.3071 11.5254 22.4689 11.5254 22.667C11.5254 22.8652 11.3636 23.0269 11.1655 23.0269C10.9674 23.0269 10.8056 22.8652 10.8056 22.667Z" fill="white"/>
</g>
<path d="M36.52 19.2866C36.52 19.1249 36.6291 18.9833 36.7869 18.9389C36.9769 18.8863 37.175 19.0036 37.2276 19.1936C37.2357 19.226 37.2397 19.2543 37.2397 19.2866C37.2397 19.4484 37.1306 19.5899 36.9729 19.6344C36.7828 19.6869 36.5847 19.5697 36.5321 19.3796C36.524 19.3473 36.52 19.319 36.52 19.2866Z" fill="white"/>
<g style="mix-blend-mode:overlay">
<path d="M11.2867 26.0479C11.2867 25.8861 11.3959 25.7446 11.5536 25.7001C11.6466 25.6759 11.7436 25.688 11.8245 25.7365C11.9054 25.785 11.966 25.8619 11.9903 25.9549C11.9984 25.9872 12.0024 26.0155 12.0024 26.0479C12.0024 26.2096 11.8933 26.3512 11.7356 26.3956C11.6426 26.4199 11.5455 26.4078 11.4646 26.3592C11.3797 26.3107 11.3231 26.2339 11.2988 26.1409C11.2908 26.1085 11.2867 26.0802 11.2867 26.0479Z" fill="white"/>
</g>
<g clip-path="url(#clip0_151_4906)">
<path d="M21.7994 25.8963H22.7402V25.1907H23.4928C23.66 25.1907 23.7933 25.128 23.8926 25.0026C23.9919 24.8771 24.0416 24.736 24.0416 24.5792V22.7761C24.0416 22.6088 23.9919 22.4651 23.8926 22.3449C23.7933 22.2247 23.66 22.1646 23.4928 22.1646H21.3761V21.0827H24.0416V20.142H22.7402V19.4364H21.7994V20.142H21.0468C20.8796 20.142 20.7358 20.2047 20.6156 20.3301C20.4954 20.4555 20.4353 20.6019 20.4353 20.7691V22.5566C20.4353 22.7238 20.4954 22.8571 20.6156 22.9564C20.7358 23.0557 20.8796 23.1054 21.0468 23.1054H23.1008V24.25H20.4353V25.1907H21.7994V25.8963ZM26.9109 25.3475L27.8517 24.4068H25.9701L26.9109 25.3475ZM25.9701 21.0827H27.8517L26.9109 20.142L25.9701 21.0827ZM18.9144 27.6838C18.6635 27.6838 18.444 27.5897 18.2559 27.4015C18.0677 27.2134 17.9736 26.9939 17.9736 26.743V18.5897C17.9736 18.3388 18.0677 18.1193 18.2559 17.9312C18.444 17.743 18.6635 17.6489 18.9144 17.6489H29.5764C29.8273 17.6489 30.0468 17.743 30.2349 17.9312C30.4231 18.1193 30.5172 18.3388 30.5172 18.5897V26.743C30.5172 26.9939 30.4231 27.2134 30.2349 27.4015C30.0468 27.5897 29.8273 27.6838 29.5764 27.6838H18.9144Z" fill="white"/>
</g>
<defs>
<filter id="filter0_f_151_4906" x="0.0540638" y="-1.50599" width="48.3821" height="48.345" filterUnits="userSpaceOnUse" color-interpolation-filters="sRGB">
<feFlood flood-opacity="0" result="BackgroundImageFix"/>
<feBlend mode="normal" in="SourceGraphic" in2="BackgroundImageFix" result="shape"/>
<feGaussianBlur stdDeviation="5.3758" result="effect1_foregroundBlur_151_4906"/>
</filter>
<linearGradient id="paint0_linear_151_4906" x1="13.1392" y1="32.2077" x2="29.5472" y2="10.8281" gradientUnits="userSpaceOnUse">
<stop offset="0.15625" stop-color="#2800FD"/>
<stop offset="0.885417" stop-color="#6A4EFF"/>
</linearGradient>
<linearGradient id="paint1_linear_151_4906" x1="35.2135" y1="16.4459" x2="35.7465" y2="15.7558" gradientUnits="userSpaceOnUse">
<stop offset="0.15625" stop-color="#2800FD"/>
<stop offset="0.885417" stop-color="#6A4EFF"/>
</linearGradient>
<linearGradient id="paint2_linear_151_4906" x1="12.5924" y1="29.5032" x2="13.1212" y2="28.8142" gradientUnits="userSpaceOnUse">
<stop offset="0.15625" stop-color="#2800FD"/>
<stop offset="0.885417" stop-color="#6A4EFF"/>
</linearGradient>
<linearGradient id="paint3_linear_151_4906" x1="33.1396" y1="13.7408" x2="33.6733" y2="13.0474" gradientUnits="userSpaceOnUse">
<stop offset="0.15625" stop-color="#2800FD"/>
<stop offset="0.885417" stop-color="#6A4EFF"/>
</linearGradient>
<linearGradient id="paint4_linear_151_4906" x1="14.6679" y1="32.2125" x2="15.2016" y2="31.5191" gradientUnits="userSpaceOnUse">
<stop offset="0.15625" stop-color="#2800FD"/>
<stop offset="0.885417" stop-color="#6A4EFF"/>
</linearGradient>
<linearGradient id="paint5_linear_151_4906" x1="30.4306" y1="11.6668" x2="30.9586" y2="10.9749" gradientUnits="userSpaceOnUse">
<stop offset="0.15625" stop-color="#2800FD"/>
<stop offset="0.885417" stop-color="#6A4EFF"/>
</linearGradient>
<linearGradient id="paint6_linear_151_4906" x1="17.3731" y1="34.2869" x2="17.9019" y2="33.5979" gradientUnits="userSpaceOnUse">
<stop offset="0.15625" stop-color="#2800FD"/>
<stop offset="0.885417" stop-color="#6A4EFF"/>
</linearGradient>
<linearGradient id="paint7_linear_151_4906" x1="27.2802" y1="10.3605" x2="27.8124" y2="9.66741" gradientUnits="userSpaceOnUse">
<stop offset="0.15625" stop-color="#2800FD"/>
<stop offset="0.885417" stop-color="#6A4EFF"/>
</linearGradient>
<linearGradient id="paint8_linear_151_4906" x1="20.5224" y1="35.5934" x2="21.0546" y2="34.9003" gradientUnits="userSpaceOnUse">
<stop offset="0.15625" stop-color="#2800FD"/>
<stop offset="0.885417" stop-color="#6A4EFF"/>
</linearGradient>
<linearGradient id="paint9_linear_151_4906" x1="23.9028" y1="9.91472" x2="24.4346" y2="9.22179" gradientUnits="userSpaceOnUse">
<stop offset="0.15625" stop-color="#2800FD"/>
<stop offset="0.885417" stop-color="#6A4EFF"/>
</linearGradient>
<linearGradient id="paint10_linear_151_4906" x1="23.9028" y1="36.0368" x2="24.4346" y2="35.3439" gradientUnits="userSpaceOnUse">
<stop offset="0.15625" stop-color="#2800FD"/>
<stop offset="0.885417" stop-color="#6A4EFF"/>
</linearGradient>
<linearGradient id="paint11_linear_151_4906" x1="20.518" y1="10.3605" x2="21.0502" y2="9.66741" gradientUnits="userSpaceOnUse">
<stop offset="0.15625" stop-color="#2800FD"/>
<stop offset="0.885417" stop-color="#6A4EFF"/>
</linearGradient>
<linearGradient id="paint12_linear_151_4906" x1="27.2832" y1="35.5934" x2="27.8154" y2="34.9003" gradientUnits="userSpaceOnUse">
<stop offset="0.15625" stop-color="#2800FD"/>
<stop offset="0.885417" stop-color="#6A4EFF"/>
</linearGradient>
<linearGradient id="paint13_linear_151_4906" x1="17.3736" y1="11.6624" x2="17.9024" y2="10.9734" gradientUnits="userSpaceOnUse">
<stop offset="0.15625" stop-color="#2800FD"/>
<stop offset="0.885417" stop-color="#6A4EFF"/>
</linearGradient>
<linearGradient id="paint14_linear_151_4906" x1="30.4351" y1="34.2875" x2="30.9665" y2="33.5978" gradientUnits="userSpaceOnUse">
<stop offset="0.15625" stop-color="#2800FD"/>
<stop offset="0.885417" stop-color="#6A4EFF"/>
</linearGradient>
<linearGradient id="paint15_linear_151_4906" x1="14.6679" y1="13.7408" x2="15.2016" y2="13.0474" gradientUnits="userSpaceOnUse">
<stop offset="0.15625" stop-color="#2800FD"/>
<stop offset="0.885417" stop-color="#6A4EFF"/>
</linearGradient>
<linearGradient id="paint16_linear_151_4906" x1="33.1396" y1="32.2125" x2="33.6733" y2="31.5191" gradientUnits="userSpaceOnUse">
<stop offset="0.15625" stop-color="#2800FD"/>
<stop offset="0.885417" stop-color="#6A4EFF"/>
</linearGradient>
<linearGradient id="paint17_linear_151_4906" x1="12.5589" y1="16.4327" x2="13.0874" y2="15.7376" gradientUnits="userSpaceOnUse">
<stop offset="0.15625" stop-color="#2800FD"/>
<stop offset="0.885417" stop-color="#6A4EFF"/>
</linearGradient>
<linearGradient id="paint18_linear_151_4906" x1="35.2112" y1="29.5133" x2="35.7398" y2="28.8182" gradientUnits="userSpaceOnUse">
<stop offset="0.15625" stop-color="#2800FD"/>
<stop offset="0.885417" stop-color="#6A4EFF"/>
</linearGradient>
<linearGradient id="paint19_linear_151_4906" x1="11.2527" y1="19.5934" x2="11.7838" y2="18.8976" gradientUnits="userSpaceOnUse">
<stop offset="0.15625" stop-color="#2800FD"/>
<stop offset="0.885417" stop-color="#6A4EFF"/>
</linearGradient>
<linearGradient id="paint20_linear_151_4906" x1="36.513" y1="26.3629" x2="37.0444" y2="25.667" gradientUnits="userSpaceOnUse">
<stop offset="0.15625" stop-color="#2800FD"/>
<stop offset="0.885417" stop-color="#6A4EFF"/>
</linearGradient>
<linearGradient id="paint21_linear_151_4906" x1="36.9648" y1="22.9762" x2="37.4966" y2="22.2833" gradientUnits="userSpaceOnUse">
<stop offset="0.15625" stop-color="#2800FD"/>
<stop offset="0.885417" stop-color="#6A4EFF"/>
</linearGradient>
<linearGradient id="paint22_linear_151_4906" x1="10.8056" y1="22.9762" x2="11.3374" y2="22.2833" gradientUnits="userSpaceOnUse">
<stop offset="0.15625" stop-color="#2800FD"/>
<stop offset="0.885417" stop-color="#6A4EFF"/>
</linearGradient>
<linearGradient id="paint23_linear_151_4906" x1="36.52" y1="19.5962" x2="37.0526" y2="18.9031" gradientUnits="userSpaceOnUse">
<stop offset="0.15625" stop-color="#2800FD"/>
<stop offset="0.885417" stop-color="#6A4EFF"/>
</linearGradient>
<linearGradient id="paint24_linear_151_4906" x1="11.2867" y1="26.3571" x2="11.8193" y2="25.6671" gradientUnits="userSpaceOnUse">
<stop offset="0.15625" stop-color="#2800FD"/>
<stop offset="0.885417" stop-color="#6A4EFF"/>
</linearGradient>
<clipPath id="clip0_151_4906">
<rect width="15.0522" height="15.0522" fill="white" transform="translate(16.7192 15.1401)"/>
</clipPath>
</defs>
</svg>
