<svg width="50" height="47" viewBox="0 0 50 47" fill="none" xmlns="http://www.w3.org/2000/svg">
<g filter="url(#filter0_f_151_5134)">
<path d="M36.0107 22.667C36.0107 16.5367 31.041 11.563 24.9068 11.563C18.7725 11.563 13.8028 16.5327 13.8028 22.667C13.8028 28.8013 18.7725 33.771 24.9068 33.771C31.041 33.771 36.0107 28.7972 36.0107 22.667ZM14.846 22.667C14.846 17.1109 19.3507 12.6022 24.9108 12.6022C30.4709 12.6022 34.9715 17.1109 34.9715 22.667C34.9715 28.223 30.4668 32.7317 24.9068 32.7317C19.3467 32.7317 14.842 28.227 14.842 22.667L14.846 22.667Z" fill="white"/>
<path d="M35.877 16.1372C35.877 16.0078 35.9458 15.8905 36.055 15.8258C36.2248 15.7247 36.4472 15.7854 36.5442 15.9593C36.5766 16.0159 36.5928 16.0765 36.5928 16.1372C36.5928 16.2666 36.524 16.3839 36.4149 16.4486C36.3299 16.4971 36.2329 16.5092 36.1439 16.485C36.0509 16.4607 35.9741 16.4 35.9256 16.3192C35.8932 16.2626 35.877 16.2019 35.877 16.1412L35.877 16.1372Z" fill="white"/>
<g style="mix-blend-mode:overlay">
<path d="M13.2559 29.1983C13.2559 29.0689 13.3247 28.9516 13.4339 28.8869C13.5188 28.8384 13.6158 28.8262 13.7048 28.8505C13.7978 28.8748 13.8746 28.9354 13.9232 29.0163C13.9555 29.0729 13.9717 29.1336 13.9717 29.1942C13.9717 29.3236 13.9029 29.4409 13.7938 29.5056C13.7088 29.5541 13.6118 29.5662 13.5228 29.542C13.4339 29.5177 13.353 29.4571 13.3045 29.3762C13.2721 29.3196 13.2559 29.2589 13.2559 29.1983Z" fill="white"/>
</g>
<path d="M33.8046 13.4307C33.8046 13.3337 33.841 13.2447 33.9098 13.176C34.0513 13.0344 34.2777 13.0344 34.4193 13.176C34.488 13.2447 34.5244 13.3337 34.5244 13.4307C34.5244 13.5278 34.488 13.6167 34.4193 13.6855C34.2777 13.827 34.0513 13.827 33.9098 13.6855C33.841 13.6167 33.8046 13.5278 33.8046 13.4307Z" fill="white"/>
<g style="mix-blend-mode:overlay">
<path d="M15.333 31.9029C15.333 31.8058 15.3693 31.7169 15.4381 31.6481C15.5796 31.5066 15.8061 31.5066 15.9476 31.6481C16.0163 31.7169 16.0527 31.8058 16.0527 31.9029C16.0527 31.9999 16.0163 32.0889 15.9476 32.1576C15.8061 32.2992 15.5796 32.2992 15.4381 32.1576C15.3693 32.0889 15.333 31.9999 15.333 31.9029Z" fill="white"/>
</g>
<path d="M31.0997 11.3573C31.0997 11.2926 31.1159 11.232 31.1482 11.1794C31.1967 11.0945 31.2736 11.0379 31.3666 11.0136C31.4596 10.9893 31.5566 11.0015 31.6375 11.05C31.7467 11.1147 31.8154 11.232 31.8154 11.3614C31.8154 11.4261 31.7993 11.4867 31.7669 11.5393C31.7184 11.6242 31.6416 11.6808 31.5485 11.7051C31.4555 11.7293 31.3585 11.7172 31.2736 11.6687C31.1644 11.604 31.0957 11.4867 31.0957 11.3573L31.0997 11.3573Z" fill="white"/>
<g style="mix-blend-mode:overlay">
<path d="M18.0382 33.9774C18.0382 33.9127 18.0543 33.8521 18.0867 33.7995C18.1352 33.7146 18.2121 33.658 18.3051 33.6337C18.3981 33.6095 18.4951 33.6216 18.576 33.6701C18.6852 33.7348 18.7539 33.8521 18.7539 33.9815C18.7539 34.0462 18.7377 34.1068 18.7054 34.1594C18.6569 34.2443 18.58 34.3009 18.487 34.3252C18.394 34.3494 18.297 34.3373 18.2161 34.2888C18.1069 34.2241 18.0382 34.1068 18.0382 33.9774Z" fill="white"/>
</g>
<path d="M27.9483 10.0508C27.9483 10.0185 27.9524 9.98611 27.9605 9.9578C27.9847 9.8648 28.0454 9.78797 28.1263 9.73944C28.2112 9.69092 28.3082 9.67879 28.3972 9.70305C28.5549 9.74349 28.6641 9.88906 28.6641 10.0508C28.6641 10.0832 28.6641 10.1115 28.6519 10.1438C28.5994 10.3339 28.4012 10.4511 28.2112 10.3986C28.0535 10.3581 27.9443 10.2126 27.9443 10.0508L27.9483 10.0508Z" fill="white"/>
<g style="mix-blend-mode:overlay">
<path d="M21.1865 35.2842C21.1865 35.2518 21.1865 35.2235 21.1986 35.1912C21.2512 35.0011 21.4493 34.8838 21.6394 34.9364C21.7971 34.9769 21.9062 35.1224 21.9062 35.2842C21.9062 35.3165 21.9022 35.3489 21.8941 35.3772C21.8699 35.4702 21.8092 35.547 21.7283 35.5955C21.6434 35.6441 21.5504 35.6562 21.4574 35.6319C21.2997 35.5915 21.1905 35.4459 21.1905 35.2842L21.1865 35.2842Z" fill="white"/>
</g>
<path d="M24.5673 9.60549C24.5673 9.80426 24.7285 9.96538 24.9272 9.96538C25.126 9.96538 25.2871 9.80426 25.2871 9.60549C25.2871 9.40673 25.126 9.24561 24.9272 9.24561C24.7285 9.24561 24.5673 9.40673 24.5673 9.60549Z" fill="white"/>
<g style="mix-blend-mode:overlay">
<path d="M24.5673 35.7276C24.5673 35.9263 24.7285 36.0875 24.9272 36.0875C25.126 36.0875 25.2871 35.9263 25.2871 35.7276C25.2871 35.5288 25.126 35.3677 24.9272 35.3677C24.7285 35.3677 24.5673 35.5288 24.5673 35.7276Z" fill="white"/>
</g>
<g style="mix-blend-mode:overlay">
<path d="M21.1866 10.0508C21.1866 9.88906 21.2958 9.74753 21.4535 9.70305C21.5465 9.67879 21.6435 9.69092 21.7244 9.73944C21.8093 9.78797 21.8659 9.8648 21.8902 9.9578C21.8983 9.99015 21.9023 10.0185 21.9023 10.0508C21.9023 10.2126 21.7932 10.3541 21.6355 10.3986C21.4454 10.4511 21.2473 10.3339 21.1947 10.1438C21.1866 10.1115 21.1826 10.0832 21.1826 10.0508L21.1866 10.0508Z" fill="white"/>
</g>
<g style="mix-blend-mode:overlay">
<path d="M27.9472 35.2842C27.9472 35.1224 28.0564 34.9809 28.2141 34.9364C28.4042 34.8838 28.6023 35.0011 28.6549 35.1912C28.6629 35.2235 28.667 35.2518 28.667 35.2842C28.667 35.4459 28.5578 35.5875 28.4001 35.6319C28.3071 35.6562 28.2101 35.6441 28.1292 35.5955C28.0443 35.547 27.9877 35.4702 27.9634 35.3772C27.9553 35.3448 27.9513 35.3165 27.9513 35.2842L27.9472 35.2842Z" fill="white"/>
</g>
<g style="mix-blend-mode:overlay">
<path d="M18.0382 11.357C18.0382 11.2276 18.1069 11.1103 18.2161 11.0456C18.301 10.9971 18.3981 10.9849 18.487 11.0092C18.58 11.0335 18.6569 11.0941 18.7054 11.175C18.7377 11.2316 18.7539 11.2923 18.7539 11.3529C18.7539 11.4823 18.6852 11.5996 18.576 11.6643C18.4911 11.7128 18.394 11.7249 18.3051 11.7007C18.2121 11.6764 18.1352 11.6158 18.0867 11.5349C18.0543 11.4783 18.0382 11.4176 18.0382 11.357Z" fill="white"/>
</g>
<g style="mix-blend-mode:overlay">
<path d="M31.0997 33.9782C31.0997 33.8488 31.1684 33.7315 31.2776 33.6668C31.4475 33.5698 31.6699 33.6264 31.7669 33.8003C31.7993 33.8569 31.8154 33.9175 31.8154 33.9782C31.8154 34.1076 31.7467 34.2248 31.6375 34.2895C31.5526 34.3381 31.4555 34.3502 31.3666 34.3259C31.2736 34.3017 31.1967 34.241 31.1482 34.1601C31.1159 34.1035 31.0997 34.0429 31.0997 33.9822L31.0997 33.9782Z" fill="white"/>
</g>
<g style="mix-blend-mode:overlay">
<path d="M15.333 13.4307C15.333 13.3337 15.3693 13.2447 15.4381 13.176C15.5796 13.0344 15.8061 13.0344 15.9476 13.176C16.0163 13.2447 16.0527 13.3337 16.0527 13.4307C16.0527 13.5278 16.0163 13.6167 15.9476 13.6855C15.8061 13.827 15.5796 13.827 15.4381 13.6855C15.3693 13.6167 15.333 13.5278 15.333 13.4307Z" fill="white"/>
</g>
<g style="mix-blend-mode:overlay">
<path d="M33.8046 31.9029C33.8046 31.8058 33.841 31.7169 33.9098 31.6481C34.0513 31.5066 34.2777 31.5066 34.4193 31.6481C34.488 31.7169 34.5244 31.8058 34.5244 31.9029C34.5244 31.9999 34.488 32.0889 34.4193 32.1576C34.2777 32.2992 34.0513 32.2992 33.9098 32.1576C33.841 32.0889 33.8046 31.9999 33.8046 31.9029Z" fill="white"/>
</g>
<g style="mix-blend-mode:overlay">
<path d="M13.2215 16.1247C13.2215 16.06 13.2377 15.9993 13.27 15.9467C13.3711 15.7729 13.5895 15.7163 13.7633 15.8133C13.8766 15.878 13.9453 15.9993 13.9453 16.1247C13.9453 16.1894 13.9291 16.25 13.8968 16.3026C13.7957 16.4765 13.5773 16.5331 13.4035 16.436C13.2902 16.3713 13.2215 16.25 13.2215 16.1247Z" fill="white"/>
</g>
<g style="mix-blend-mode:overlay">
<path d="M35.8748 29.2052C35.8748 29.1405 35.891 29.0799 35.9233 29.0273C36.0244 28.8534 36.2428 28.7968 36.4167 28.8939C36.5299 28.9586 36.5986 29.0799 36.5986 29.2052C36.5986 29.2699 36.5825 29.3306 36.5501 29.3832C36.449 29.557 36.2307 29.6136 36.0568 29.5166C35.9436 29.4519 35.8748 29.3306 35.8748 29.2052Z" fill="white"/>
</g>
<g style="mix-blend-mode:overlay">
<path d="M11.9158 19.2842C11.9158 19.2519 11.9199 19.2195 11.928 19.1912C11.9522 19.0982 12.0129 19.0214 12.0978 18.9728C12.1827 18.9243 12.2798 18.9122 12.3728 18.9364C12.5305 18.9769 12.6396 19.1225 12.6396 19.2842C12.6396 19.3166 12.6356 19.3489 12.6275 19.3772C12.6033 19.4702 12.5426 19.547 12.4577 19.5956C12.3728 19.6441 12.2757 19.6562 12.1827 19.632C12.025 19.5915 11.9158 19.446 11.9158 19.2842Z" fill="white"/>
</g>
<g style="mix-blend-mode:overlay">
<path d="M37.1806 26.0537C37.1806 26.0214 37.1847 25.989 37.1927 25.9607C37.2453 25.7706 37.4435 25.6534 37.6335 25.7059C37.7912 25.7464 37.9004 25.892 37.9004 26.0537C37.9004 26.0861 37.8963 26.1184 37.8883 26.1467C37.864 26.2397 37.8033 26.3165 37.7184 26.3651C37.6335 26.4136 37.5365 26.4257 37.4435 26.4015C37.2857 26.361 37.1766 26.2155 37.1766 26.0537L37.1806 26.0537Z" fill="white"/>
</g>
<path d="M37.6289 22.667C37.6289 22.4689 37.7906 22.3071 37.9887 22.3071C38.1869 22.3071 38.3486 22.4689 38.3486 22.667C38.3486 22.8652 38.1869 23.0269 37.9887 23.0269C37.7906 23.0269 37.6289 22.8652 37.6289 22.667Z" fill="white"/>
<g style="mix-blend-mode:overlay">
<path d="M11.4707 22.667C11.4707 22.4689 11.6324 22.3071 11.8305 22.3071C12.0287 22.3071 12.1904 22.4689 12.1904 22.667C12.1904 22.8652 12.0287 23.0269 11.8305 23.0269C11.6324 23.0269 11.4707 22.8652 11.4707 22.667Z" fill="white"/>
</g>
<path d="M37.1845 19.2871C37.1845 19.1254 37.2937 18.9838 37.4514 18.9393C37.6415 18.8868 37.8396 19.004 37.8922 19.1941C37.9003 19.2264 37.9043 19.2548 37.9043 19.2871C37.9043 19.4489 37.7951 19.5904 37.6374 19.6349C37.4474 19.6874 37.2492 19.5702 37.1967 19.3801C37.1886 19.3478 37.1845 19.3195 37.1845 19.2871Z" fill="white"/>
<g style="mix-blend-mode:overlay">
<path d="M11.9513 26.0484C11.9513 25.8866 12.0604 25.7451 12.2181 25.7006C12.3111 25.6763 12.4082 25.6885 12.4891 25.737C12.5699 25.7855 12.6306 25.8624 12.6549 25.9554C12.6629 25.9877 12.667 26.016 12.667 26.0484C12.667 26.2101 12.5578 26.3516 12.4001 26.3961C12.3071 26.4204 12.2101 26.4083 12.1292 26.3597C12.0443 26.3112 11.9877 26.2344 11.9634 26.1414C11.9553 26.109 11.9513 26.0807 11.9513 26.0484Z" fill="white"/>
</g>
</g>
<path d="M36.0107 22.667C36.0107 16.5367 31.041 11.563 24.9068 11.563C18.7725 11.563 13.8028 16.5327 13.8028 22.667C13.8028 28.8013 18.7725 33.771 24.9068 33.771C31.041 33.771 36.0107 28.7972 36.0107 22.667ZM14.846 22.667C14.846 17.1109 19.3507 12.6022 24.9108 12.6022C30.4709 12.6022 34.9715 17.1109 34.9715 22.667C34.9715 28.223 30.4668 32.7317 24.9068 32.7317C19.3467 32.7317 14.842 28.227 14.842 22.667L14.846 22.667Z" fill="white"/>
<path d="M35.877 16.1372C35.877 16.0078 35.9458 15.8905 36.055 15.8258C36.2248 15.7247 36.4472 15.7854 36.5442 15.9593C36.5766 16.0159 36.5928 16.0765 36.5928 16.1372C36.5928 16.2666 36.524 16.3839 36.4149 16.4486C36.3299 16.4971 36.2329 16.5092 36.1439 16.485C36.0509 16.4607 35.9741 16.4 35.9256 16.3192C35.8932 16.2626 35.877 16.2019 35.877 16.1412L35.877 16.1372Z" fill="white"/>
<g style="mix-blend-mode:overlay">
<path d="M13.2559 29.1983C13.2559 29.0689 13.3247 28.9516 13.4339 28.8869C13.5188 28.8384 13.6158 28.8262 13.7048 28.8505C13.7978 28.8748 13.8746 28.9354 13.9232 29.0163C13.9555 29.0729 13.9717 29.1336 13.9717 29.1942C13.9717 29.3236 13.9029 29.4409 13.7938 29.5056C13.7088 29.5541 13.6118 29.5662 13.5228 29.542C13.4339 29.5177 13.353 29.4571 13.3045 29.3762C13.2721 29.3196 13.2559 29.2589 13.2559 29.1983Z" fill="white"/>
</g>
<path d="M33.8046 13.4307C33.8046 13.3337 33.841 13.2447 33.9098 13.176C34.0513 13.0344 34.2777 13.0344 34.4193 13.176C34.488 13.2447 34.5244 13.3337 34.5244 13.4307C34.5244 13.5278 34.488 13.6167 34.4193 13.6855C34.2777 13.827 34.0513 13.827 33.9098 13.6855C33.841 13.6167 33.8046 13.5278 33.8046 13.4307Z" fill="white"/>
<g style="mix-blend-mode:overlay">
<path d="M15.333 31.9029C15.333 31.8058 15.3693 31.7169 15.4381 31.6481C15.5796 31.5066 15.8061 31.5066 15.9476 31.6481C16.0163 31.7169 16.0527 31.8058 16.0527 31.9029C16.0527 31.9999 16.0163 32.0889 15.9476 32.1576C15.8061 32.2992 15.5796 32.2992 15.4381 32.1576C15.3693 32.0889 15.333 31.9999 15.333 31.9029Z" fill="white"/>
</g>
<path d="M31.0997 11.3573C31.0997 11.2926 31.1159 11.232 31.1482 11.1794C31.1967 11.0945 31.2736 11.0379 31.3666 11.0136C31.4596 10.9893 31.5566 11.0015 31.6375 11.05C31.7467 11.1147 31.8154 11.232 31.8154 11.3614C31.8154 11.4261 31.7993 11.4867 31.7669 11.5393C31.7184 11.6242 31.6416 11.6808 31.5485 11.7051C31.4555 11.7293 31.3585 11.7172 31.2736 11.6687C31.1644 11.604 31.0957 11.4867 31.0957 11.3573L31.0997 11.3573Z" fill="white"/>
<g style="mix-blend-mode:overlay">
<path d="M18.0382 33.9774C18.0382 33.9127 18.0543 33.8521 18.0867 33.7995C18.1352 33.7146 18.2121 33.658 18.3051 33.6337C18.3981 33.6095 18.4951 33.6216 18.576 33.6701C18.6852 33.7348 18.7539 33.8521 18.7539 33.9815C18.7539 34.0462 18.7377 34.1068 18.7054 34.1594C18.6569 34.2443 18.58 34.3009 18.487 34.3252C18.394 34.3494 18.297 34.3373 18.2161 34.2888C18.1069 34.2241 18.0382 34.1068 18.0382 33.9774Z" fill="white"/>
</g>
<path d="M27.9483 10.0508C27.9483 10.0185 27.9524 9.98611 27.9605 9.9578C27.9847 9.8648 28.0454 9.78797 28.1263 9.73944C28.2112 9.69092 28.3082 9.67879 28.3972 9.70305C28.5549 9.74349 28.6641 9.88906 28.6641 10.0508C28.6641 10.0832 28.6641 10.1115 28.6519 10.1438C28.5994 10.3339 28.4012 10.4511 28.2112 10.3986C28.0535 10.3581 27.9443 10.2126 27.9443 10.0508L27.9483 10.0508Z" fill="white"/>
<g style="mix-blend-mode:overlay">
<path d="M21.1865 35.2842C21.1865 35.2518 21.1865 35.2235 21.1986 35.1912C21.2512 35.0011 21.4493 34.8838 21.6394 34.9364C21.7971 34.9769 21.9062 35.1224 21.9062 35.2842C21.9062 35.3165 21.9022 35.3489 21.8941 35.3772C21.8699 35.4702 21.8092 35.547 21.7283 35.5955C21.6434 35.6441 21.5504 35.6562 21.4574 35.6319C21.2997 35.5915 21.1905 35.4459 21.1905 35.2842L21.1865 35.2842Z" fill="white"/>
</g>
<path d="M24.5673 9.60549C24.5673 9.80426 24.7285 9.96538 24.9272 9.96538C25.126 9.96538 25.2871 9.80426 25.2871 9.60549C25.2871 9.40673 25.126 9.24561 24.9272 9.24561C24.7285 9.24561 24.5673 9.40673 24.5673 9.60549Z" fill="white"/>
<g style="mix-blend-mode:overlay">
<path d="M24.5673 35.7276C24.5673 35.9263 24.7285 36.0875 24.9272 36.0875C25.126 36.0875 25.2871 35.9263 25.2871 35.7276C25.2871 35.5288 25.126 35.3677 24.9272 35.3677C24.7285 35.3677 24.5673 35.5288 24.5673 35.7276Z" fill="white"/>
</g>
<g style="mix-blend-mode:overlay">
<path d="M21.1866 10.0508C21.1866 9.88906 21.2958 9.74753 21.4535 9.70305C21.5465 9.67879 21.6435 9.69092 21.7244 9.73944C21.8093 9.78797 21.8659 9.8648 21.8902 9.9578C21.8983 9.99015 21.9023 10.0185 21.9023 10.0508C21.9023 10.2126 21.7932 10.3541 21.6355 10.3986C21.4454 10.4511 21.2473 10.3339 21.1947 10.1438C21.1866 10.1115 21.1826 10.0832 21.1826 10.0508L21.1866 10.0508Z" fill="white"/>
</g>
<g style="mix-blend-mode:overlay">
<path d="M27.9472 35.2842C27.9472 35.1224 28.0564 34.9809 28.2141 34.9364C28.4042 34.8838 28.6023 35.0011 28.6549 35.1912C28.6629 35.2235 28.667 35.2518 28.667 35.2842C28.667 35.4459 28.5578 35.5875 28.4001 35.6319C28.3071 35.6562 28.2101 35.6441 28.1292 35.5955C28.0443 35.547 27.9877 35.4702 27.9634 35.3772C27.9553 35.3448 27.9513 35.3165 27.9513 35.2842L27.9472 35.2842Z" fill="white"/>
</g>
<g style="mix-blend-mode:overlay">
<path d="M18.0382 11.357C18.0382 11.2276 18.1069 11.1103 18.2161 11.0456C18.301 10.9971 18.3981 10.9849 18.487 11.0092C18.58 11.0335 18.6569 11.0941 18.7054 11.175C18.7377 11.2316 18.7539 11.2923 18.7539 11.3529C18.7539 11.4823 18.6852 11.5996 18.576 11.6643C18.4911 11.7128 18.394 11.7249 18.3051 11.7007C18.2121 11.6764 18.1352 11.6158 18.0867 11.5349C18.0543 11.4783 18.0382 11.4176 18.0382 11.357Z" fill="white"/>
</g>
<g style="mix-blend-mode:overlay">
<path d="M31.0997 33.9782C31.0997 33.8488 31.1684 33.7315 31.2776 33.6668C31.4475 33.5698 31.6699 33.6264 31.7669 33.8003C31.7993 33.8569 31.8154 33.9175 31.8154 33.9782C31.8154 34.1076 31.7467 34.2248 31.6375 34.2895C31.5526 34.3381 31.4555 34.3502 31.3666 34.3259C31.2736 34.3017 31.1967 34.241 31.1482 34.1601C31.1159 34.1035 31.0997 34.0429 31.0997 33.9822L31.0997 33.9782Z" fill="white"/>
</g>
<g style="mix-blend-mode:overlay">
<path d="M15.333 13.4307C15.333 13.3337 15.3693 13.2447 15.4381 13.176C15.5796 13.0344 15.8061 13.0344 15.9476 13.176C16.0163 13.2447 16.0527 13.3337 16.0527 13.4307C16.0527 13.5278 16.0163 13.6167 15.9476 13.6855C15.8061 13.827 15.5796 13.827 15.4381 13.6855C15.3693 13.6167 15.333 13.5278 15.333 13.4307Z" fill="white"/>
</g>
<g style="mix-blend-mode:overlay">
<path d="M33.8046 31.9029C33.8046 31.8058 33.841 31.7169 33.9098 31.6481C34.0513 31.5066 34.2777 31.5066 34.4193 31.6481C34.488 31.7169 34.5244 31.8058 34.5244 31.9029C34.5244 31.9999 34.488 32.0889 34.4193 32.1576C34.2777 32.2992 34.0513 32.2992 33.9098 32.1576C33.841 32.0889 33.8046 31.9999 33.8046 31.9029Z" fill="white"/>
</g>
<g style="mix-blend-mode:overlay">
<path d="M13.2215 16.1247C13.2215 16.06 13.2377 15.9993 13.27 15.9467C13.3711 15.7729 13.5895 15.7163 13.7633 15.8133C13.8766 15.878 13.9453 15.9993 13.9453 16.1247C13.9453 16.1894 13.9291 16.25 13.8968 16.3026C13.7957 16.4765 13.5773 16.5331 13.4035 16.436C13.2902 16.3713 13.2215 16.25 13.2215 16.1247Z" fill="white"/>
</g>
<g style="mix-blend-mode:overlay">
<path d="M35.8748 29.2052C35.8748 29.1405 35.891 29.0799 35.9233 29.0273C36.0244 28.8534 36.2428 28.7968 36.4167 28.8939C36.5299 28.9586 36.5986 29.0799 36.5986 29.2052C36.5986 29.2699 36.5825 29.3306 36.5501 29.3832C36.449 29.557 36.2307 29.6136 36.0568 29.5166C35.9436 29.4519 35.8748 29.3306 35.8748 29.2052Z" fill="white"/>
</g>
<g style="mix-blend-mode:overlay">
<path d="M11.9158 19.2842C11.9158 19.2519 11.9199 19.2195 11.928 19.1912C11.9522 19.0982 12.0129 19.0214 12.0978 18.9728C12.1827 18.9243 12.2798 18.9122 12.3728 18.9364C12.5305 18.9769 12.6396 19.1225 12.6396 19.2842C12.6396 19.3166 12.6356 19.3489 12.6275 19.3772C12.6033 19.4702 12.5426 19.547 12.4577 19.5956C12.3728 19.6441 12.2757 19.6562 12.1827 19.632C12.025 19.5915 11.9158 19.446 11.9158 19.2842Z" fill="white"/>
</g>
<g style="mix-blend-mode:overlay">
<path d="M37.1806 26.0537C37.1806 26.0214 37.1847 25.989 37.1927 25.9607C37.2453 25.7706 37.4435 25.6534 37.6335 25.7059C37.7912 25.7464 37.9004 25.892 37.9004 26.0537C37.9004 26.0861 37.8963 26.1184 37.8883 26.1467C37.864 26.2397 37.8033 26.3165 37.7184 26.3651C37.6335 26.4136 37.5365 26.4257 37.4435 26.4015C37.2857 26.361 37.1766 26.2155 37.1766 26.0537L37.1806 26.0537Z" fill="white"/>
</g>
<path d="M37.6289 22.667C37.6289 22.4689 37.7906 22.3071 37.9887 22.3071C38.1869 22.3071 38.3486 22.4689 38.3486 22.667C38.3486 22.8652 38.1869 23.0269 37.9887 23.0269C37.7906 23.0269 37.6289 22.8652 37.6289 22.667Z" fill="white"/>
<g style="mix-blend-mode:overlay">
<path d="M11.4707 22.667C11.4707 22.4689 11.6324 22.3071 11.8305 22.3071C12.0287 22.3071 12.1904 22.4689 12.1904 22.667C12.1904 22.8652 12.0287 23.0269 11.8305 23.0269C11.6324 23.0269 11.4707 22.8652 11.4707 22.667Z" fill="white"/>
</g>
<path d="M37.1845 19.2871C37.1845 19.1254 37.2937 18.9838 37.4514 18.9393C37.6415 18.8868 37.8396 19.004 37.8922 19.1941C37.9003 19.2264 37.9043 19.2548 37.9043 19.2871C37.9043 19.4489 37.7951 19.5904 37.6374 19.6349C37.4474 19.6874 37.2492 19.5702 37.1967 19.3801C37.1886 19.3478 37.1845 19.3195 37.1845 19.2871Z" fill="white"/>
<g style="mix-blend-mode:overlay">
<path d="M11.9513 26.0484C11.9513 25.8866 12.0604 25.7451 12.2181 25.7006C12.3111 25.6763 12.4082 25.6885 12.4891 25.737C12.5699 25.7855 12.6306 25.8624 12.6549 25.9554C12.6629 25.9877 12.667 26.016 12.667 26.0484C12.667 26.2101 12.5578 26.3516 12.4001 26.3961C12.3071 26.4204 12.2101 26.4083 12.1292 26.3597C12.0443 26.3112 11.9877 26.2344 11.9634 26.1414C11.9553 26.109 11.9513 26.0807 11.9513 26.0484Z" fill="white"/>
</g>
<g clip-path="url(#clip0_151_5134)">
<path d="M20.8324 28.9381C20.5815 28.9381 20.362 28.844 20.1738 28.6558C19.9857 28.4677 19.8916 28.2482 19.8916 27.9973V17.3353C19.8916 17.0844 19.9857 16.8649 20.1738 16.6768C20.362 16.4886 20.5815 16.3945 20.8324 16.3945H26.4926L29.9264 19.8283V23.3876C29.7801 23.3248 29.6285 23.2752 29.4717 23.2386C29.3149 23.202 29.1529 23.1733 28.9857 23.1524V20.2517H26.0223V17.3353H20.8324V27.9973H25.7871C25.8916 28.175 26.0066 28.3422 26.132 28.499C26.2574 28.6558 26.3986 28.8022 26.5554 28.9381H20.8324ZM27.355 28.405L26.6965 27.7464L28.0135 26.4294L26.6965 25.1123L27.355 24.4538L28.6721 25.7708L29.9891 24.4538L30.6477 25.1123L29.3463 26.4294L30.6477 27.7464L29.9891 28.405L28.6721 27.1036L27.355 28.405Z" fill="white"/>
</g>
<defs>
<filter id="filter0_f_151_5134" x="0.719103" y="-1.50599" width="48.3811" height="48.345" filterUnits="userSpaceOnUse" color-interpolation-filters="sRGB">
<feFlood flood-opacity="0" result="BackgroundImageFix"/>
<feBlend mode="normal" in="SourceGraphic" in2="BackgroundImageFix" result="shape"/>
<feGaussianBlur stdDeviation="5.3758" result="effect1_foregroundBlur_151_5134"/>
</filter>
<clipPath id="clip0_151_5134">
<rect width="15.0522" height="15.0522" fill="white" transform="translate(17.3828 15.1401)"/>
</clipPath>
</defs>
</svg>
