<svg width="54" height="37" viewBox="0 0 54 37" fill="none" xmlns="http://www.w3.org/2000/svg">
<rect x="0.636475" y="0.702393" width="52.7271" height="35.9155" rx="4.20288" fill="white" stroke="#D9D9D9" stroke-width="0.76416"/>
<path fill-rule="evenodd" clip-rule="evenodd" d="M27.3821 26.5416C25.561 28.1131 23.1987 29.0619 20.6174 29.0619C14.8577 29.0619 10.1885 24.3385 10.1885 18.5119C10.1885 12.6853 14.8577 7.96191 20.6174 7.96191C23.1987 7.96191 25.561 8.91064 27.3821 10.4822C29.2033 8.91064 31.5656 7.96191 34.1469 7.96191C39.9066 7.96191 44.5758 12.6853 44.5758 18.5119C44.5758 24.3385 39.9066 29.0619 34.1469 29.0619C31.5656 29.0619 29.2033 28.1131 27.3821 26.5416Z" fill="#ED0006"/>
<path fill-rule="evenodd" clip-rule="evenodd" d="M27.3823 26.5416C29.6246 24.6065 31.0465 21.7272 31.0465 18.5119C31.0465 15.2966 29.6246 12.4173 27.3823 10.4822C29.2034 8.91064 31.5657 7.96191 34.1471 7.96191C39.9068 7.96191 44.576 12.6853 44.576 18.5119C44.576 24.3385 39.9068 29.0619 34.1471 29.0619C31.5657 29.0619 29.2034 28.1131 27.3823 26.5416Z" fill="#F9A000"/>
<path fill-rule="evenodd" clip-rule="evenodd" d="M27.3819 26.5415C29.6242 24.6065 31.0461 21.7271 31.0461 18.5119C31.0461 15.2966 29.6242 12.4172 27.3819 10.4822C25.1396 12.4172 23.7178 15.2966 23.7178 18.5119C23.7178 21.7271 25.1396 24.6065 27.3819 26.5415Z" fill="#FF5E00"/>
</svg>
