<svg width="54" height="37" viewBox="0 0 54 37" fill="none" xmlns="http://www.w3.org/2000/svg">
<rect x="0.864014" y="0.702393" width="52.7271" height="35.9155" rx="4.20288" fill="white" stroke="#D9D9D9" stroke-width="0.76416"/>
<path fill-rule="evenodd" clip-rule="evenodd" d="M15.6123 23.6133H13.2348C13.0721 23.6133 12.9338 23.7315 12.9084 23.8921L11.9468 29.9886C11.9277 30.109 12.0209 30.2174 12.1429 30.2174H13.2779C13.4406 30.2174 13.579 30.0992 13.6044 29.9383L13.8637 28.294C13.8887 28.1329 14.0274 28.0149 14.1898 28.0149H14.9424C16.5086 28.0149 17.4124 27.257 17.6485 25.7552C17.7549 25.0982 17.653 24.5819 17.3453 24.2203C17.0074 23.8234 16.408 23.6133 15.6123 23.6133ZM15.8866 25.84C15.7566 26.6931 15.1048 26.6931 14.4745 26.6931H14.1157L14.3674 25.0998C14.3824 25.0036 14.4658 24.9326 14.5632 24.9326H14.7276C15.1569 24.9326 15.562 24.9326 15.7713 25.1773C15.8959 25.3234 15.9342 25.5403 15.8866 25.84ZM22.7192 25.8126H21.5807C21.4837 25.8126 21.3998 25.8836 21.3849 25.9799L21.3345 26.2983L21.2549 26.183C21.0084 25.8252 20.4589 25.7056 19.9103 25.7056C18.6521 25.7056 17.5776 26.6585 17.3683 27.9952C17.2595 28.6619 17.4141 29.2995 17.7923 29.7441C18.1394 30.1529 18.6358 30.3233 19.2264 30.3233C20.2401 30.3233 20.8023 29.6714 20.8023 29.6714L20.7515 29.9878C20.7324 30.1088 20.8255 30.2172 20.9468 30.2172H21.9724C22.1355 30.2172 22.2731 30.099 22.2988 29.9381L22.9142 26.0414C22.9336 25.9215 22.8408 25.8126 22.7192 25.8126ZM21.1321 28.0285C21.0223 28.679 20.506 29.1156 19.8477 29.1156C19.5171 29.1156 19.2528 29.0096 19.0832 28.8086C18.9149 28.6091 18.8509 28.325 18.9045 28.0087C19.0071 27.3638 19.5321 26.913 20.1804 26.913C20.5036 26.913 20.7665 27.0203 20.9396 27.223C21.113 27.4278 21.1818 27.7135 21.1321 28.0285ZM27.6386 25.8125H28.7828C28.943 25.8125 29.0365 25.9922 28.9454 26.1236L25.1402 31.6162C25.0786 31.7052 24.9771 31.7581 24.8687 31.7581H23.7259C23.5651 31.7581 23.4711 31.577 23.5643 31.4452L24.7491 29.7727L23.489 26.0745C23.4454 25.946 23.5403 25.8125 23.677 25.8125H24.8012C24.9473 25.8125 25.0762 25.9083 25.1183 26.0481L25.7871 28.2817L27.3651 25.9574C27.4269 25.8667 27.5295 25.8125 27.6386 25.8125Z" fill="#253B80"/>
<path fill-rule="evenodd" clip-rule="evenodd" d="M40.0439 29.9887L41.0196 23.7807C41.0346 23.6843 41.1181 23.6134 41.2151 23.613H42.3136C42.4349 23.613 42.528 23.7218 42.5089 23.8421L41.5467 29.9384C41.5216 30.0992 41.3832 30.2175 41.2203 30.2175H40.2392C40.1179 30.2175 40.0248 30.1091 40.0439 29.9887ZM32.5714 23.6134H30.1935C30.0312 23.6134 29.8928 23.7316 29.8674 23.8922L28.9058 29.9887C28.8867 30.1091 28.9798 30.2175 29.1013 30.2175H30.3214C30.4348 30.2175 30.5318 30.1348 30.5495 30.0222L30.8223 28.2941C30.8474 28.133 30.9861 28.0149 31.1484 28.0149H31.9007C33.4671 28.0149 34.3708 27.257 34.6071 25.7553C34.7138 25.0982 34.6113 24.582 34.3037 24.2203C33.966 23.8235 33.3671 23.6134 32.5714 23.6134ZM32.8457 25.84C32.716 26.6932 32.0641 26.6932 31.4335 26.6932H31.0751L31.3272 25.0999C31.3421 25.0037 31.4248 24.9327 31.5225 24.9327H31.6869C32.1159 24.9327 32.5214 24.9327 32.7305 25.1774C32.8553 25.3235 32.8933 25.5403 32.8457 25.84ZM39.6776 25.8127H38.5399C38.4421 25.8127 38.3591 25.8836 38.3444 25.98L38.2941 26.2984L38.2141 26.183C37.9677 25.8252 37.4184 25.7057 36.8698 25.7057C35.6116 25.7057 34.5375 26.6586 34.3282 27.9953C34.2197 28.662 34.3737 29.2995 34.7519 29.7442C35.0996 30.153 35.5954 30.3233 36.186 30.3233C37.1996 30.3233 37.7617 29.6715 37.7617 29.6715L37.7111 29.9879C37.6919 30.1089 37.7851 30.2173 37.9072 30.2173H38.9323C39.0946 30.2173 39.2329 30.0991 39.2584 29.9382L39.874 26.0415C39.8929 25.9216 39.7997 25.8127 39.6776 25.8127ZM38.0907 28.0286C37.9815 28.679 37.4646 29.1156 36.8061 29.1156C36.4762 29.1156 36.2114 29.0096 36.0416 28.8087C35.8734 28.6092 35.8101 28.3251 35.8631 28.0088C35.9662 27.3639 36.4905 26.9131 37.1388 26.9131C37.4622 26.9131 37.7249 27.0204 37.8982 27.2231C38.0722 27.4279 38.1411 27.7136 38.0907 28.0286Z" fill="#179BD7"/>
<path d="M24.411 21.4324L24.7034 19.5759L24.0523 19.5608H20.9434L23.1039 5.8612C23.1105 5.81984 23.1324 5.78128 23.1643 5.7539C23.1961 5.72652 23.237 5.71143 23.2794 5.71143H28.5216C30.262 5.71143 31.4629 6.07357 32.09 6.78836C32.3839 7.12369 32.5712 7.4741 32.6617 7.85972C32.7567 8.26435 32.7584 8.74777 32.6656 9.33738L32.6588 9.38042V9.7582L32.9529 9.92476C33.2005 10.0561 33.3971 10.2064 33.548 10.3786C33.7996 10.6653 33.9623 11.0296 34.031 11.4616C34.1019 11.9059 34.0784 12.4346 33.9623 13.0332C33.8281 13.7217 33.6112 14.3214 33.3184 14.8121C33.049 15.2642 32.7058 15.6391 32.2985 15.9298C31.9095 16.2059 31.4473 16.4155 30.9248 16.5497C30.4183 16.6814 29.8411 16.748 29.2079 16.748H28.7999C28.5082 16.748 28.2248 16.8531 28.0024 17.0415C27.7795 17.2337 27.6318 17.4963 27.5866 17.7836L27.5559 17.9508L27.0394 21.2228L27.016 21.343C27.0098 21.3811 26.9992 21.4001 26.9836 21.413C26.9696 21.4246 26.9495 21.4324 26.9299 21.4324H24.411Z" fill="#253B80"/>
<path d="M33.231 9.42407C33.2154 9.52411 33.1975 9.62637 33.1774 9.73144C32.486 13.2808 30.1209 14.507 27.1001 14.507H25.5622C25.1928 14.507 24.8815 14.7752 24.8239 15.1396L24.0364 20.1338L23.8134 21.5493C23.776 21.7885 23.9605 22.0043 24.2018 22.0043H26.9298C27.2528 22.0043 27.5271 21.7696 27.5779 21.451L27.6048 21.3123L28.1185 18.053L28.1515 17.8743C28.2017 17.5546 28.4766 17.3199 28.7996 17.3199H29.2076C31.8505 17.3199 33.9195 16.2468 34.5243 13.1417C34.7768 11.8445 34.646 10.7615 33.9776 9.9997C33.7754 9.77 33.5244 9.57943 33.231 9.42407Z" fill="#179BD7"/>
<path d="M32.5082 9.13608C32.4026 9.10533 32.2935 9.07739 32.1817 9.05224C32.0694 9.02766 31.9543 9.00586 31.8358 8.98686C31.4211 8.91979 30.9668 8.88794 30.48 8.88794H26.3712C26.27 8.88794 26.174 8.91085 26.0879 8.95221C25.8984 9.0433 25.7576 9.22271 25.7235 9.44234L24.8493 14.9785L24.8242 15.14C24.8818 14.7756 25.1931 14.5074 25.5625 14.5074H27.1005C30.1212 14.5074 32.4864 13.2807 33.1777 9.73183C33.1983 9.62676 33.2157 9.52449 33.2313 9.42446C33.0564 9.33168 32.8669 9.25232 32.6629 9.18469C32.6127 9.16793 32.5608 9.15173 32.5082 9.13608Z" fill="#222D65"/>
<path d="M25.7235 9.44215C25.7576 9.22251 25.8985 9.04311 26.0879 8.95257C26.1746 8.91121 26.2702 8.8883 26.3712 8.8883H30.4801C30.9669 8.8883 31.4213 8.92016 31.8358 8.98723C31.9544 9.00623 32.0696 9.02802 32.1819 9.05261C32.2937 9.07777 32.4026 9.10571 32.5083 9.13644C32.5607 9.15209 32.6127 9.16829 32.6635 9.18451C32.8675 9.25212 33.057 9.33205 33.2319 9.42426C33.4377 8.11259 33.2303 7.21952 32.5212 6.41083C31.7393 5.52055 30.3281 5.1394 28.5224 5.1394H23.2801C22.9112 5.1394 22.5967 5.40765 22.5396 5.7726L20.3562 19.613C20.3131 19.8868 20.5243 20.134 20.8004 20.134H24.0369L24.8495 14.9783L25.7235 9.44215Z" fill="#253B80"/>
</svg>
