<svg width="64" height="65" viewBox="0 0 64 65" fill="none" xmlns="http://www.w3.org/2000/svg">
<g clip-path="url(#clip0_859_63882)">
<path d="M26.6863 1.15187C23.5154 1.52346 21.2116 2.17993 19.5147 3.20798C18.338 3.914 17.9293 4.39706 17.4586 5.62329C16.9631 6.89907 16.8517 8.08815 16.8517 11.9526V15.3341H24.4072H31.9628V16.2011V17.0558L20.6666 17.1053C8.25563 17.1425 9.33323 17.0805 7.15326 17.9104C6.06327 18.3315 5.65453 18.6164 4.34159 19.8674C2.78093 21.3662 2.0873 22.9021 1.14595 27.101C0.836296 28.4758 0.82391 28.674 0.811523 32.427C0.811523 36.7127 0.82391 36.7994 1.69094 40.0198C2.14923 41.7415 3.06581 43.9958 3.57365 44.6894C4.05671 45.3211 5.25817 46.4978 5.80316 46.857C6.06327 47.0304 6.71974 47.3153 7.26474 47.5011C8.20609 47.8107 8.36711 47.8231 11.7485 47.8726L15.2415 47.9346V43.7604C15.2415 39.0041 15.2786 38.7564 16.1828 36.9852C16.9012 35.6103 18.1027 34.1983 19.267 33.3932C20.1835 32.7615 20.3446 32.6748 22.0539 32.0802L22.9828 31.7582L32.0248 31.6839C37.9825 31.6343 41.1906 31.56 41.4383 31.4733C44.3614 30.4205 46.0088 28.8846 46.7891 26.5188L47.1359 25.4288V16.8824V8.33587L46.8015 7.29543C46.0459 4.9916 44.572 3.34423 42.2682 2.25425C41.1906 1.73403 40.3854 1.56062 37.7348 1.21381C36.1246 1.00324 35.1461 0.966084 31.9257 0.97847C29.7085 0.990856 27.479 1.06517 26.6863 1.15187ZM25.1628 6.30453C26.2156 7.13441 26.5748 8.26156 26.1413 9.41348C25.5592 10.9741 23.9613 11.643 22.475 10.9494C21.4841 10.4911 20.8152 9.47541 20.8152 8.44735C20.8152 7.53077 21.9795 6.01965 22.7847 5.87102C22.9581 5.84625 23.4535 5.84625 23.887 5.87102C24.5435 5.90818 24.7541 5.98249 25.1628 6.30453Z" fill="#1E99FF"/>
<path d="M48.9285 20.9324C48.9285 24.3882 48.9037 24.9208 48.6808 25.8497C48.1729 27.943 46.8228 30.0239 45.1755 31.2501C44.7543 31.5598 44.3084 31.8942 44.197 31.9933C43.8378 32.2906 43.2308 32.5631 42.5001 32.7612C42.1161 32.8603 41.6082 33.009 41.3729 33.0833C41.088 33.17 37.7933 33.2443 32.0213 33.2938C23.3758 33.3558 23.0785 33.3682 22.422 33.6283C19.6103 34.6811 18.0745 36.1922 17.2694 38.6818L16.9102 39.7966V48.2812V56.7657L17.3313 57.93C17.6905 58.9085 17.8763 59.2182 18.4956 59.887C19.2759 60.7169 20.5393 61.7326 21.0595 61.9431C21.2329 62.0051 21.7655 62.2404 22.2362 62.4634C23.3634 62.9836 25.0974 63.5533 26.8811 63.9745C28.2683 64.3089 28.3922 64.3213 32.0213 64.3213C35.6505 64.3213 35.7743 64.3089 37.1616 63.9745C42.723 62.6492 45.6957 60.8036 46.7361 58.0291L47.1201 57.0134L47.1697 53.3347L47.2068 49.6436H39.6512H32.0833V48.7766V47.9096L44.135 47.8848L56.1744 47.8476L57.1901 47.5008C57.9333 47.2531 58.3544 47.0178 58.8251 46.5966C59.6178 45.8782 60.4724 44.7759 60.7945 44.0575C61.9712 41.444 62.479 39.9948 63.0116 37.7529C63.346 36.3656 63.3584 36.2294 63.3584 32.5507C63.3584 28.3641 63.346 28.265 62.4171 24.9951C61.8597 23.0257 61.0174 20.9324 60.4353 20.0778C59.7664 19.0993 58.7384 18.1827 57.8837 17.7863C56.4717 17.1546 55.8648 17.0679 52.248 17.0679H48.9285V20.9324ZM41.5711 53.9664C42.6858 54.4743 43.3547 55.4404 43.3547 56.5428C43.3547 57.7938 41.8312 59.3049 40.5554 59.3049C39.3292 59.3049 37.7809 57.7566 37.7809 56.5056C37.7809 55.75 38.1401 54.9945 38.7842 54.4619C39.7008 53.6939 40.6173 53.5329 41.5711 53.9664Z" fill="#FFCA1D"/>
</g>
<defs>
<clipPath id="clip0_859_63882">
<rect width="62.6742" height="63.4174" fill="white" transform="translate(0.745117 0.966309)"/>
</clipPath>
</defs>
</svg>
