<svg width="25" height="25" viewBox="0 0 25 25" fill="none" xmlns="http://www.w3.org/2000/svg">
<rect x="1" y="1" width="23" height="22.9996" rx="11.4998" stroke="url(#paint0_linear_839_60631)"/>
<path d="M7.53404 7.55277C7.55406 7.58402 8.42711 8.82425 9.47638 10.3125C10.5236 11.8008 11.3867 13.0274 11.3947 13.0391C11.4027 13.0527 10.6157 13.9609 9.48038 15.2481C8.42111 16.4492 7.54205 17.4492 7.52603 17.4668C7.5 17.498 7.52803 17.5 7.93853 17.5H8.37906L10.0851 15.5664C11.0222 14.5039 11.7972 13.6328 11.8052 13.6328C11.8132 13.6348 12.4319 14.5039 13.1788 15.5664L14.5385 17.5H16.0283C17.4399 17.5 17.516 17.498 17.498 17.4648C17.488 17.4473 16.5769 16.1523 15.4756 14.5899C14.3743 13.0274 13.4732 11.7442 13.4712 11.7383C13.4712 11.7324 14.3082 10.7774 15.3314 9.61917L17.1917 7.5098L16.7591 7.50394C16.4007 7.50003 16.3226 7.50394 16.2966 7.52738C16.2786 7.54495 15.5477 8.36917 14.6726 9.36135C13.7976 10.3555 13.0747 11.1641 13.0667 11.1602C13.0607 11.1563 12.476 10.3301 11.7671 9.3262L10.4816 7.50003H8.98979H7.5L7.53404 7.55277ZM13.1708 12.4922C14.8829 14.8828 16.2886 16.8457 16.2906 16.8574C16.2966 16.8691 16.0483 16.873 15.6218 16.8711L14.9449 16.8652L11.8432 12.5391C10.1372 10.1602 8.73348 8.1973 8.72347 8.17776C8.70545 8.14651 8.74149 8.14456 9.38026 8.14456L10.0571 8.14651L13.1708 12.4922Z" fill="white"/>
<defs>
<linearGradient id="paint0_linear_839_60631" x1="12.5" y1="29.0842" x2="12.5" y2="-3.69948" gradientUnits="userSpaceOnUse">
<stop stop-color="#EDEDEE"/>
<stop offset="0.494792" stop-color="#181C24"/>
<stop offset="1" stop-color="#EDEDEE"/>
</linearGradient>
</defs>
</svg>
