<svg width="50" height="47" viewBox="0 0 50 47" fill="none" xmlns="http://www.w3.org/2000/svg">
<g filter="url(#filter0_f_151_6482)">
<path d="M36.1221 22.7051C36.1221 16.5748 31.1524 11.6011 25.0181 11.6011C18.8838 11.6011 13.9141 16.5708 13.9141 22.7051C13.9141 28.8393 18.8838 33.809 25.0181 33.809C31.1524 33.809 36.1221 28.8353 36.1221 22.7051ZM14.9574 22.7051C14.9574 17.149 19.4621 12.6403 25.0221 12.6403C30.5822 12.6403 35.0828 17.149 35.0828 22.7051C35.0828 28.2611 30.5782 32.7698 25.0181 32.7698C19.458 32.7698 14.9533 28.2651 14.9533 22.7051L14.9574 22.7051Z" fill="url(#paint0_linear_151_6482)"/>
<path d="M35.9889 16.1738C35.9889 16.0444 36.0576 15.9272 36.1668 15.8625C36.3366 15.7614 36.559 15.822 36.6561 15.9959C36.6884 16.0525 36.7046 16.1132 36.7046 16.1738C36.7046 16.3032 36.6358 16.4205 36.5267 16.4852C36.4417 16.5337 36.3447 16.5458 36.2557 16.5216C36.1627 16.4973 36.0859 16.4367 36.0374 16.3558C36.005 16.2992 35.9889 16.2385 35.9889 16.1779L35.9889 16.1738Z" fill="url(#paint1_linear_151_6482)"/>
<g style="mix-blend-mode:overlay">
<path d="M13.3678 29.2349C13.3678 29.1055 13.4365 28.9882 13.5457 28.9235C13.6306 28.875 13.7277 28.8629 13.8166 28.8871C13.9096 28.9114 13.9864 28.972 14.035 29.0529C14.0673 29.1095 14.0835 29.1702 14.0835 29.2308C14.0835 29.3602 14.0148 29.4775 13.9056 29.5422C13.8207 29.5907 13.7236 29.6029 13.6346 29.5786C13.5457 29.5543 13.4648 29.4937 13.4163 29.4128C13.3839 29.3562 13.3678 29.2955 13.3678 29.2349Z" fill="url(#paint2_linear_151_6482)"/>
</g>
<path d="M33.9145 13.4698C33.9145 13.3727 33.9509 13.2838 34.0196 13.215C34.1612 13.0735 34.3876 13.0735 34.5291 13.215C34.5979 13.2838 34.6343 13.3727 34.6343 13.4698C34.6343 13.5668 34.5979 13.6558 34.5291 13.7245C34.3876 13.8661 34.1612 13.8661 34.0196 13.7245C33.9509 13.6558 33.9145 13.5668 33.9145 13.4698Z" fill="url(#paint3_linear_151_6482)"/>
<g style="mix-blend-mode:overlay">
<path d="M15.4428 31.9415C15.4428 31.8444 15.4792 31.7555 15.548 31.6867C15.6895 31.5452 15.9159 31.5452 16.0575 31.6867C16.1262 31.7555 16.1626 31.8444 16.1626 31.9415C16.1626 32.0385 16.1262 32.1275 16.0575 32.1962C15.9159 32.3377 15.6895 32.3377 15.548 32.1962C15.4792 32.1275 15.4428 32.0385 15.4428 31.9415Z" fill="url(#paint4_linear_151_6482)"/>
</g>
<path d="M31.2096 11.3934C31.2096 11.3287 31.2257 11.2681 31.2581 11.2155C31.3066 11.1306 31.3834 11.074 31.4764 11.0497C31.5694 11.0255 31.6665 11.0376 31.7474 11.0861C31.8565 11.1508 31.9253 11.2681 31.9253 11.3975C31.9253 11.4622 31.9091 11.5228 31.8768 11.5754C31.8282 11.6603 31.7514 11.7169 31.6584 11.7412C31.5654 11.7655 31.4684 11.7533 31.3834 11.7048C31.2743 11.6401 31.2055 11.5228 31.2055 11.3934L31.2096 11.3934Z" fill="url(#paint5_linear_151_6482)"/>
<g style="mix-blend-mode:overlay">
<path d="M18.148 34.0131C18.148 33.9484 18.1642 33.8877 18.1966 33.8351C18.2451 33.7502 18.3219 33.6936 18.4149 33.6694C18.5079 33.6451 18.605 33.6572 18.6858 33.7058C18.795 33.7705 18.8638 33.8877 18.8638 34.0171C18.8638 34.0818 18.8476 34.1425 18.8152 34.195C18.7667 34.28 18.6899 34.3366 18.5969 34.3608C18.5039 34.3851 18.4068 34.373 18.326 34.3244C18.2168 34.2597 18.148 34.1425 18.148 34.0131Z" fill="url(#paint6_linear_151_6482)"/>
</g>
<path d="M28.0592 10.0879C28.0592 10.0556 28.0632 10.0232 28.0713 9.99491C28.0956 9.90191 28.1562 9.82508 28.2371 9.77655C28.322 9.72803 28.4191 9.7159 28.508 9.74016C28.6657 9.7806 28.7749 9.92617 28.7749 10.0879C28.7749 10.1203 28.7749 10.1486 28.7628 10.1809C28.7102 10.371 28.5121 10.4882 28.322 10.4357C28.1643 10.3952 28.0551 10.2497 28.0551 10.0879L28.0592 10.0879Z" fill="url(#paint7_linear_151_6482)"/>
<g style="mix-blend-mode:overlay">
<path d="M21.2973 35.3218C21.2973 35.2894 21.2973 35.2611 21.3094 35.2288C21.362 35.0387 21.5602 34.9214 21.7502 34.974C21.9079 35.0145 22.0171 35.16 22.0171 35.3218C22.0171 35.3541 22.013 35.3865 22.005 35.4148C21.9807 35.5078 21.92 35.5846 21.8392 35.6331C21.7543 35.6817 21.6612 35.6938 21.5682 35.6695C21.4105 35.6291 21.3014 35.4835 21.3014 35.3218L21.2973 35.3218Z" fill="url(#paint8_linear_151_6482)"/>
</g>
<path d="M24.6777 9.64309C24.6777 9.84185 24.8388 10.003 25.0376 10.003C25.2363 10.003 25.3975 9.84185 25.3975 9.64309C25.3975 9.44433 25.2363 9.2832 25.0376 9.2832C24.8388 9.2832 24.6777 9.44433 24.6777 9.64309Z" fill="url(#paint9_linear_151_6482)"/>
<g style="mix-blend-mode:overlay">
<path d="M24.6777 35.7647C24.6777 35.9634 24.8388 36.1246 25.0376 36.1246C25.2363 36.1246 25.3975 35.9634 25.3975 35.7647C25.3975 35.5659 25.2363 35.4048 25.0376 35.4048C24.8388 35.4048 24.6777 35.5659 24.6777 35.7647Z" fill="url(#paint10_linear_151_6482)"/>
</g>
<g style="mix-blend-mode:overlay">
<path d="M21.297 10.0879C21.297 9.92617 21.4061 9.78464 21.5638 9.74016C21.6569 9.7159 21.7539 9.72803 21.8348 9.77655C21.9197 9.82508 21.9763 9.90191 22.0006 9.99491C22.0087 10.0273 22.0127 10.0556 22.0127 10.0879C22.0127 10.2497 21.9035 10.3912 21.7458 10.4357C21.5558 10.4882 21.3576 10.371 21.305 10.1809C21.297 10.1486 21.2929 10.1203 21.2929 10.0879L21.297 10.0879Z" fill="url(#paint11_linear_151_6482)"/>
</g>
<g style="mix-blend-mode:overlay">
<path d="M28.0581 35.3227C28.0581 35.161 28.1672 35.0195 28.3249 34.975C28.515 34.9224 28.7131 35.0397 28.7657 35.2297C28.7738 35.2621 28.7778 35.2904 28.7778 35.3227C28.7778 35.4845 28.6687 35.626 28.5109 35.6705C28.4179 35.6948 28.3209 35.6826 28.24 35.6341C28.1551 35.5856 28.0985 35.5088 28.0742 35.4158C28.0661 35.3834 28.0621 35.3551 28.0621 35.3227L28.0581 35.3227Z" fill="url(#paint12_linear_151_6482)"/>
</g>
<g style="mix-blend-mode:overlay">
<path d="M18.148 11.3931C18.148 11.2637 18.2168 11.1464 18.326 11.0817C18.4109 11.0332 18.5079 11.0211 18.5969 11.0453C18.6899 11.0696 18.7667 11.1303 18.8152 11.2111C18.8476 11.2677 18.8638 11.3284 18.8638 11.389C18.8638 11.5184 18.795 11.6357 18.6858 11.7004C18.6009 11.7489 18.5039 11.7611 18.4149 11.7368C18.3219 11.7125 18.2451 11.6519 18.1966 11.571C18.1642 11.5144 18.148 11.4537 18.148 11.3931Z" fill="url(#paint13_linear_151_6482)"/>
</g>
<g style="mix-blend-mode:overlay">
<path d="M31.2096 34.0143C31.2096 33.8849 31.2783 33.7676 31.3875 33.7029C31.5573 33.6059 31.7797 33.6625 31.8768 33.8364C31.9091 33.893 31.9253 33.9537 31.9253 34.0143C31.9253 34.1437 31.8565 34.261 31.7474 34.3257C31.6625 34.3742 31.5654 34.3863 31.4764 34.3621C31.3834 34.3378 31.3066 34.2772 31.2581 34.1963C31.2257 34.1397 31.2096 34.079 31.2096 34.0184L31.2096 34.0143Z" fill="url(#paint14_linear_151_6482)"/>
</g>
<g style="mix-blend-mode:overlay">
<path d="M15.4423 13.4698C15.4423 13.3727 15.4787 13.2838 15.5475 13.215C15.689 13.0735 15.9154 13.0735 16.057 13.215C16.1257 13.2838 16.1621 13.3727 16.1621 13.4698C16.1621 13.5668 16.1257 13.6558 16.057 13.7245C15.9154 13.8661 15.689 13.8661 15.5475 13.7245C15.4787 13.6558 15.4423 13.5668 15.4423 13.4698Z" fill="url(#paint15_linear_151_6482)"/>
</g>
<g style="mix-blend-mode:overlay">
<path d="M33.914 31.9429C33.914 31.8459 33.9504 31.7569 34.0191 31.6882C34.1607 31.5466 34.3871 31.5466 34.5287 31.6882C34.5974 31.7569 34.6338 31.8459 34.6338 31.9429C34.6338 32.04 34.5974 32.1289 34.5287 32.1977C34.3871 32.3392 34.1607 32.3392 34.0191 32.1977C33.9504 32.1289 33.914 32.04 33.914 31.9429Z" fill="url(#paint16_linear_151_6482)"/>
</g>
<g style="mix-blend-mode:overlay">
<path d="M13.3338 16.1623C13.3338 16.0976 13.35 16.0369 13.3823 15.9843C13.4834 15.8105 13.7018 15.7538 13.8757 15.8509C13.9889 15.9156 14.0576 16.0369 14.0576 16.1623C14.0576 16.227 14.0414 16.2876 14.0091 16.3402C13.908 16.5141 13.6896 16.5707 13.5158 16.4736C13.4025 16.4089 13.3338 16.2876 13.3338 16.1623Z" fill="url(#paint17_linear_151_6482)"/>
</g>
<g style="mix-blend-mode:overlay">
<path d="M35.9861 29.2423C35.9861 29.1776 36.0023 29.117 36.0347 29.0644C36.1358 28.8905 36.3541 28.8339 36.528 28.931C36.6412 28.9957 36.71 29.117 36.71 29.2423C36.71 29.307 36.6938 29.3677 36.6614 29.4203C36.5603 29.5941 36.342 29.6508 36.1681 29.5537C36.0549 29.489 35.9861 29.3677 35.9861 29.2423Z" fill="url(#paint18_linear_151_6482)"/>
</g>
<g style="mix-blend-mode:overlay">
<path d="M12.0276 19.3203C12.0276 19.288 12.0317 19.2556 12.0398 19.2273C12.064 19.1343 12.1247 19.0575 12.2096 19.009C12.2945 18.9604 12.3916 18.9483 12.4846 18.9726C12.6423 19.013 12.7515 19.1586 12.7515 19.3203C12.7515 19.3527 12.7474 19.385 12.7393 19.4133C12.7151 19.5063 12.6544 19.5832 12.5695 19.6317C12.4846 19.6802 12.3875 19.6924 12.2945 19.6681C12.1368 19.6277 12.0276 19.4821 12.0276 19.3203Z" fill="url(#paint19_linear_151_6482)"/>
</g>
<g style="mix-blend-mode:overlay">
<path d="M37.2919 26.0903C37.2919 26.058 37.296 26.0256 37.3041 25.9973C37.3566 25.8073 37.5548 25.69 37.7448 25.7426C37.9025 25.783 38.0117 25.9286 38.0117 26.0903C38.0117 26.1227 38.0077 26.155 37.9996 26.1833C37.9753 26.2763 37.9147 26.3532 37.8298 26.4017C37.7448 26.4502 37.6478 26.4623 37.5548 26.4381C37.3971 26.3976 37.2879 26.2521 37.2879 26.0903L37.2919 26.0903Z" fill="url(#paint20_linear_151_6482)"/>
</g>
<path d="M37.7397 22.7046C37.7397 22.5065 37.9014 22.3447 38.0996 22.3447C38.2977 22.3447 38.4595 22.5065 38.4595 22.7046C38.4595 22.9028 38.2977 23.0645 38.0996 23.0645C37.9014 23.0645 37.7397 22.9028 37.7397 22.7046Z" fill="url(#paint21_linear_151_6482)"/>
<g style="mix-blend-mode:overlay">
<path d="M11.5805 22.7046C11.5805 22.5065 11.7423 22.3447 11.9404 22.3447C12.1385 22.3447 12.3003 22.5065 12.3003 22.7046C12.3003 22.9028 12.1385 23.0645 11.9404 23.0645C11.7423 23.0645 11.5805 22.9028 11.5805 22.7046Z" fill="url(#paint22_linear_151_6482)"/>
</g>
<path d="M37.2949 19.3242C37.2949 19.1625 37.4041 19.0209 37.5618 18.9765C37.7518 18.9239 37.9499 19.0412 38.0025 19.2312C38.0106 19.2636 38.0146 19.2919 38.0146 19.3242C38.0146 19.486 37.9055 19.6275 37.7478 19.672C37.5577 19.7245 37.3596 19.6073 37.307 19.4172C37.2989 19.3849 37.2949 19.3566 37.2949 19.3242Z" fill="url(#paint23_linear_151_6482)"/>
<g style="mix-blend-mode:overlay">
<path d="M12.0616 26.0855C12.0616 25.9237 12.1708 25.7822 12.3285 25.7377C12.4215 25.7135 12.5185 25.7256 12.5994 25.7741C12.6803 25.8226 12.7409 25.8995 12.7652 25.9925C12.7733 26.0248 12.7773 26.0531 12.7773 26.0855C12.7773 26.2472 12.6682 26.3888 12.5105 26.4332C12.4175 26.4575 12.3204 26.4454 12.2395 26.3968C12.1546 26.3483 12.098 26.2715 12.0737 26.1785C12.0657 26.1461 12.0616 26.1178 12.0616 26.0855Z" fill="url(#paint24_linear_151_6482)"/>
</g>
</g>
<path d="M36.1221 22.7051C36.1221 16.5748 31.1524 11.6011 25.0181 11.6011C18.8838 11.6011 13.9141 16.5708 13.9141 22.7051C13.9141 28.8393 18.8838 33.809 25.0181 33.809C31.1524 33.809 36.1221 28.8353 36.1221 22.7051ZM14.9574 22.7051C14.9574 17.149 19.4621 12.6403 25.0221 12.6403C30.5822 12.6403 35.0828 17.149 35.0828 22.7051C35.0828 28.2611 30.5782 32.7698 25.0181 32.7698C19.458 32.7698 14.9533 28.2651 14.9533 22.7051L14.9574 22.7051Z" fill="white"/>
<path d="M35.9889 16.1738C35.9889 16.0444 36.0576 15.9272 36.1668 15.8625C36.3366 15.7614 36.559 15.822 36.6561 15.9959C36.6884 16.0525 36.7046 16.1132 36.7046 16.1738C36.7046 16.3032 36.6358 16.4205 36.5267 16.4852C36.4417 16.5337 36.3447 16.5458 36.2557 16.5216C36.1627 16.4973 36.0859 16.4367 36.0374 16.3558C36.005 16.2992 35.9889 16.2385 35.9889 16.1779L35.9889 16.1738Z" fill="white"/>
<g style="mix-blend-mode:overlay">
<path d="M13.3678 29.2349C13.3678 29.1055 13.4365 28.9882 13.5457 28.9235C13.6306 28.875 13.7277 28.8629 13.8166 28.8871C13.9096 28.9114 13.9864 28.972 14.035 29.0529C14.0673 29.1095 14.0835 29.1702 14.0835 29.2308C14.0835 29.3602 14.0148 29.4775 13.9056 29.5422C13.8207 29.5907 13.7236 29.6029 13.6346 29.5786C13.5457 29.5543 13.4648 29.4937 13.4163 29.4128C13.3839 29.3562 13.3678 29.2955 13.3678 29.2349Z" fill="white"/>
</g>
<path d="M33.9145 13.4698C33.9145 13.3727 33.9509 13.2838 34.0196 13.215C34.1612 13.0735 34.3876 13.0735 34.5291 13.215C34.5979 13.2838 34.6343 13.3727 34.6343 13.4698C34.6343 13.5668 34.5979 13.6558 34.5291 13.7245C34.3876 13.8661 34.1612 13.8661 34.0196 13.7245C33.9509 13.6558 33.9145 13.5668 33.9145 13.4698Z" fill="white"/>
<g style="mix-blend-mode:overlay">
<path d="M15.4428 31.9415C15.4428 31.8444 15.4792 31.7555 15.548 31.6867C15.6895 31.5452 15.9159 31.5452 16.0575 31.6867C16.1262 31.7555 16.1626 31.8444 16.1626 31.9415C16.1626 32.0385 16.1262 32.1275 16.0575 32.1962C15.9159 32.3377 15.6895 32.3377 15.548 32.1962C15.4792 32.1275 15.4428 32.0385 15.4428 31.9415Z" fill="white"/>
</g>
<path d="M31.2096 11.3934C31.2096 11.3287 31.2257 11.2681 31.2581 11.2155C31.3066 11.1306 31.3834 11.074 31.4764 11.0497C31.5694 11.0255 31.6665 11.0376 31.7474 11.0861C31.8565 11.1508 31.9253 11.2681 31.9253 11.3975C31.9253 11.4622 31.9091 11.5228 31.8768 11.5754C31.8282 11.6603 31.7514 11.7169 31.6584 11.7412C31.5654 11.7655 31.4684 11.7533 31.3834 11.7048C31.2743 11.6401 31.2055 11.5228 31.2055 11.3934L31.2096 11.3934Z" fill="white"/>
<g style="mix-blend-mode:overlay">
<path d="M18.148 34.0131C18.148 33.9484 18.1642 33.8877 18.1966 33.8351C18.2451 33.7502 18.3219 33.6936 18.4149 33.6694C18.5079 33.6451 18.605 33.6572 18.6858 33.7058C18.795 33.7705 18.8638 33.8877 18.8638 34.0171C18.8638 34.0818 18.8476 34.1425 18.8152 34.195C18.7667 34.28 18.6899 34.3366 18.5969 34.3608C18.5039 34.3851 18.4068 34.373 18.326 34.3244C18.2168 34.2597 18.148 34.1425 18.148 34.0131Z" fill="white"/>
</g>
<path d="M28.0592 10.0879C28.0592 10.0556 28.0632 10.0232 28.0713 9.99491C28.0956 9.90191 28.1562 9.82508 28.2371 9.77655C28.322 9.72803 28.4191 9.7159 28.508 9.74016C28.6657 9.7806 28.7749 9.92617 28.7749 10.0879C28.7749 10.1203 28.7749 10.1486 28.7628 10.1809C28.7102 10.371 28.5121 10.4882 28.322 10.4357C28.1643 10.3952 28.0551 10.2497 28.0551 10.0879L28.0592 10.0879Z" fill="white"/>
<g style="mix-blend-mode:overlay">
<path d="M21.2973 35.3218C21.2973 35.2894 21.2973 35.2611 21.3094 35.2288C21.362 35.0387 21.5602 34.9214 21.7502 34.974C21.9079 35.0145 22.0171 35.16 22.0171 35.3218C22.0171 35.3541 22.013 35.3865 22.005 35.4148C21.9807 35.5078 21.92 35.5846 21.8392 35.6331C21.7543 35.6817 21.6612 35.6938 21.5682 35.6695C21.4105 35.6291 21.3014 35.4835 21.3014 35.3218L21.2973 35.3218Z" fill="white"/>
</g>
<path d="M24.6777 9.64309C24.6777 9.84185 24.8388 10.003 25.0376 10.003C25.2363 10.003 25.3975 9.84185 25.3975 9.64309C25.3975 9.44433 25.2363 9.2832 25.0376 9.2832C24.8388 9.2832 24.6777 9.44433 24.6777 9.64309Z" fill="white"/>
<g style="mix-blend-mode:overlay">
<path d="M24.6777 35.7647C24.6777 35.9634 24.8388 36.1246 25.0376 36.1246C25.2363 36.1246 25.3975 35.9634 25.3975 35.7647C25.3975 35.5659 25.2363 35.4048 25.0376 35.4048C24.8388 35.4048 24.6777 35.5659 24.6777 35.7647Z" fill="white"/>
</g>
<g style="mix-blend-mode:overlay">
<path d="M21.297 10.0879C21.297 9.92617 21.4061 9.78464 21.5638 9.74016C21.6569 9.7159 21.7539 9.72803 21.8348 9.77655C21.9197 9.82508 21.9763 9.90191 22.0006 9.99491C22.0087 10.0273 22.0127 10.0556 22.0127 10.0879C22.0127 10.2497 21.9035 10.3912 21.7458 10.4357C21.5558 10.4882 21.3576 10.371 21.305 10.1809C21.297 10.1486 21.2929 10.1203 21.2929 10.0879L21.297 10.0879Z" fill="white"/>
</g>
<g style="mix-blend-mode:overlay">
<path d="M28.0581 35.3227C28.0581 35.161 28.1672 35.0195 28.3249 34.975C28.515 34.9224 28.7131 35.0397 28.7657 35.2297C28.7738 35.2621 28.7778 35.2904 28.7778 35.3227C28.7778 35.4845 28.6687 35.626 28.5109 35.6705C28.4179 35.6948 28.3209 35.6826 28.24 35.6341C28.1551 35.5856 28.0985 35.5088 28.0742 35.4158C28.0661 35.3834 28.0621 35.3551 28.0621 35.3227L28.0581 35.3227Z" fill="white"/>
</g>
<g style="mix-blend-mode:overlay">
<path d="M18.148 11.3931C18.148 11.2637 18.2168 11.1464 18.326 11.0817C18.4109 11.0332 18.5079 11.0211 18.5969 11.0453C18.6899 11.0696 18.7667 11.1303 18.8152 11.2111C18.8476 11.2677 18.8638 11.3284 18.8638 11.389C18.8638 11.5184 18.795 11.6357 18.6858 11.7004C18.6009 11.7489 18.5039 11.7611 18.4149 11.7368C18.3219 11.7125 18.2451 11.6519 18.1966 11.571C18.1642 11.5144 18.148 11.4537 18.148 11.3931Z" fill="white"/>
</g>
<g style="mix-blend-mode:overlay">
<path d="M31.2096 34.0143C31.2096 33.8849 31.2783 33.7676 31.3875 33.7029C31.5573 33.6059 31.7797 33.6625 31.8768 33.8364C31.9091 33.893 31.9253 33.9537 31.9253 34.0143C31.9253 34.1437 31.8565 34.261 31.7474 34.3257C31.6625 34.3742 31.5654 34.3863 31.4764 34.3621C31.3834 34.3378 31.3066 34.2772 31.2581 34.1963C31.2257 34.1397 31.2096 34.079 31.2096 34.0184L31.2096 34.0143Z" fill="white"/>
</g>
<g style="mix-blend-mode:overlay">
<path d="M15.4423 13.4698C15.4423 13.3727 15.4787 13.2838 15.5475 13.215C15.689 13.0735 15.9154 13.0735 16.057 13.215C16.1257 13.2838 16.1621 13.3727 16.1621 13.4698C16.1621 13.5668 16.1257 13.6558 16.057 13.7245C15.9154 13.8661 15.689 13.8661 15.5475 13.7245C15.4787 13.6558 15.4423 13.5668 15.4423 13.4698Z" fill="white"/>
</g>
<g style="mix-blend-mode:overlay">
<path d="M33.914 31.9429C33.914 31.8459 33.9504 31.7569 34.0191 31.6882C34.1607 31.5466 34.3871 31.5466 34.5287 31.6882C34.5974 31.7569 34.6338 31.8459 34.6338 31.9429C34.6338 32.04 34.5974 32.1289 34.5287 32.1977C34.3871 32.3392 34.1607 32.3392 34.0191 32.1977C33.9504 32.1289 33.914 32.04 33.914 31.9429Z" fill="white"/>
</g>
<g style="mix-blend-mode:overlay">
<path d="M13.3338 16.1623C13.3338 16.0976 13.35 16.0369 13.3823 15.9843C13.4834 15.8105 13.7018 15.7538 13.8757 15.8509C13.9889 15.9156 14.0576 16.0369 14.0576 16.1623C14.0576 16.227 14.0414 16.2876 14.0091 16.3402C13.908 16.5141 13.6896 16.5707 13.5158 16.4736C13.4025 16.4089 13.3338 16.2876 13.3338 16.1623Z" fill="white"/>
</g>
<g style="mix-blend-mode:overlay">
<path d="M35.9861 29.2423C35.9861 29.1776 36.0023 29.117 36.0347 29.0644C36.1358 28.8905 36.3541 28.8339 36.528 28.931C36.6412 28.9957 36.71 29.117 36.71 29.2423C36.71 29.307 36.6938 29.3677 36.6614 29.4203C36.5603 29.5941 36.342 29.6508 36.1681 29.5537C36.0549 29.489 35.9861 29.3677 35.9861 29.2423Z" fill="white"/>
</g>
<g style="mix-blend-mode:overlay">
<path d="M12.0276 19.3203C12.0276 19.288 12.0317 19.2556 12.0398 19.2273C12.064 19.1343 12.1247 19.0575 12.2096 19.009C12.2945 18.9604 12.3916 18.9483 12.4846 18.9726C12.6423 19.013 12.7515 19.1586 12.7515 19.3203C12.7515 19.3527 12.7474 19.385 12.7393 19.4133C12.7151 19.5063 12.6544 19.5832 12.5695 19.6317C12.4846 19.6802 12.3875 19.6924 12.2945 19.6681C12.1368 19.6277 12.0276 19.4821 12.0276 19.3203Z" fill="white"/>
</g>
<g style="mix-blend-mode:overlay">
<path d="M37.2919 26.0903C37.2919 26.058 37.296 26.0256 37.3041 25.9973C37.3566 25.8073 37.5548 25.69 37.7448 25.7426C37.9025 25.783 38.0117 25.9286 38.0117 26.0903C38.0117 26.1227 38.0077 26.155 37.9996 26.1833C37.9753 26.2763 37.9147 26.3532 37.8298 26.4017C37.7448 26.4502 37.6478 26.4623 37.5548 26.4381C37.3971 26.3976 37.2879 26.2521 37.2879 26.0903L37.2919 26.0903Z" fill="white"/>
</g>
<path d="M37.7397 22.7046C37.7397 22.5065 37.9014 22.3447 38.0996 22.3447C38.2977 22.3447 38.4595 22.5065 38.4595 22.7046C38.4595 22.9028 38.2977 23.0645 38.0996 23.0645C37.9014 23.0645 37.7397 22.9028 37.7397 22.7046Z" fill="white"/>
<g style="mix-blend-mode:overlay">
<path d="M11.5805 22.7046C11.5805 22.5065 11.7423 22.3447 11.9404 22.3447C12.1385 22.3447 12.3003 22.5065 12.3003 22.7046C12.3003 22.9028 12.1385 23.0645 11.9404 23.0645C11.7423 23.0645 11.5805 22.9028 11.5805 22.7046Z" fill="white"/>
</g>
<path d="M37.2949 19.3242C37.2949 19.1625 37.4041 19.0209 37.5618 18.9765C37.7518 18.9239 37.9499 19.0412 38.0025 19.2312C38.0106 19.2636 38.0146 19.2919 38.0146 19.3242C38.0146 19.486 37.9055 19.6275 37.7478 19.672C37.5577 19.7245 37.3596 19.6073 37.307 19.4172C37.2989 19.3849 37.2949 19.3566 37.2949 19.3242Z" fill="white"/>
<g style="mix-blend-mode:overlay">
<path d="M12.0616 26.0855C12.0616 25.9237 12.1708 25.7822 12.3285 25.7377C12.4215 25.7135 12.5185 25.7256 12.5994 25.7741C12.6803 25.8226 12.7409 25.8995 12.7652 25.9925C12.7733 26.0248 12.7773 26.0531 12.7773 26.0855C12.7773 26.2472 12.6682 26.3888 12.5105 26.4332C12.4175 26.4575 12.3204 26.4454 12.2395 26.3968C12.1546 26.3483 12.098 26.2715 12.0737 26.1785C12.0657 26.1461 12.0616 26.1178 12.0616 26.0855Z" fill="white"/>
</g>
<g clip-path="url(#clip0_151_6482)">
<path d="M27.7324 26.4669V25.5261H29.7236L25.9449 21.7474L23.3264 24.3658L18.748 19.8031L19.4223 19.1289L23.3108 23.0174L25.9292 20.3989L30.3665 24.8362V22.9076H31.2916V26.4669H27.7324Z" fill="white"/>
</g>
<defs>
<filter id="filter0_f_151_6482" x="0.828966" y="-1.4684" width="48.3821" height="48.3445" filterUnits="userSpaceOnUse" color-interpolation-filters="sRGB">
<feFlood flood-opacity="0" result="BackgroundImageFix"/>
<feBlend mode="normal" in="SourceGraphic" in2="BackgroundImageFix" result="shape"/>
<feGaussianBlur stdDeviation="5.3758" result="effect1_foregroundBlur_151_6482"/>
</filter>
<linearGradient id="paint0_linear_151_6482" x1="13.9141" y1="22.7051" x2="36.1221" y2="22.705" gradientUnits="userSpaceOnUse">
<stop stop-color="#003BFA"/>
<stop offset="0.786458" stop-color="#68EAFC"/>
</linearGradient>
<linearGradient id="paint1_linear_151_6482" x1="36.3487" y1="15.8139" x2="36.3487" y2="16.5337" gradientUnits="userSpaceOnUse">
<stop stop-color="#08F2EB"/>
<stop offset="1" stop-color="#08B9FF"/>
</linearGradient>
<linearGradient id="paint2_linear_151_6482" x1="13.3678" y1="29.2329" x2="14.0835" y2="29.2329" gradientUnits="userSpaceOnUse">
<stop stop-color="#003BFA"/>
<stop offset="0.786458" stop-color="#68EAFC"/>
</linearGradient>
<linearGradient id="paint3_linear_151_6482" x1="34.2744" y1="13.1099" x2="34.2744" y2="13.8297" gradientUnits="userSpaceOnUse">
<stop stop-color="#08F2EB"/>
<stop offset="1" stop-color="#08B9FF"/>
</linearGradient>
<linearGradient id="paint4_linear_151_6482" x1="15.4428" y1="31.9415" x2="16.1626" y2="31.9415" gradientUnits="userSpaceOnUse">
<stop stop-color="#003BFA"/>
<stop offset="0.786458" stop-color="#68EAFC"/>
</linearGradient>
<linearGradient id="paint5_linear_151_6482" x1="31.5694" y1="11.0336" x2="31.5694" y2="11.7533" gradientUnits="userSpaceOnUse">
<stop stop-color="#08F2EB"/>
<stop offset="1" stop-color="#08B9FF"/>
</linearGradient>
<linearGradient id="paint6_linear_151_6482" x1="18.148" y1="34.0151" x2="18.8638" y2="34.0151" gradientUnits="userSpaceOnUse">
<stop stop-color="#003BFA"/>
<stop offset="0.786458" stop-color="#68EAFC"/>
</linearGradient>
<linearGradient id="paint7_linear_151_6482" x1="28.4191" y1="9.72803" x2="28.4191" y2="10.4478" gradientUnits="userSpaceOnUse">
<stop stop-color="#08F2EB"/>
<stop offset="1" stop-color="#08B9FF"/>
</linearGradient>
<linearGradient id="paint8_linear_151_6482" x1="21.2973" y1="35.3215" x2="22.0171" y2="35.3215" gradientUnits="userSpaceOnUse">
<stop stop-color="#003BFA"/>
<stop offset="0.786458" stop-color="#68EAFC"/>
</linearGradient>
<linearGradient id="paint9_linear_151_6482" x1="25.0376" y1="9.2832" x2="25.0376" y2="10.003" gradientUnits="userSpaceOnUse">
<stop stop-color="#08F2EB"/>
<stop offset="1" stop-color="#08B9FF"/>
</linearGradient>
<linearGradient id="paint10_linear_151_6482" x1="24.6777" y1="35.7647" x2="25.3975" y2="35.7647" gradientUnits="userSpaceOnUse">
<stop stop-color="#003BFA"/>
<stop offset="0.786458" stop-color="#68EAFC"/>
</linearGradient>
<linearGradient id="paint11_linear_151_6482" x1="21.2929" y1="10.0881" x2="22.0127" y2="10.0881" gradientUnits="userSpaceOnUse">
<stop stop-color="#003BFA"/>
<stop offset="0.786458" stop-color="#68EAFC"/>
</linearGradient>
<linearGradient id="paint12_linear_151_6482" x1="28.0581" y1="35.3225" x2="28.7778" y2="35.3225" gradientUnits="userSpaceOnUse">
<stop stop-color="#003BFA"/>
<stop offset="0.786458" stop-color="#68EAFC"/>
</linearGradient>
<linearGradient id="paint13_linear_151_6482" x1="18.148" y1="11.3911" x2="18.8638" y2="11.3911" gradientUnits="userSpaceOnUse">
<stop stop-color="#003BFA"/>
<stop offset="0.786458" stop-color="#68EAFC"/>
</linearGradient>
<linearGradient id="paint14_linear_151_6482" x1="31.2096" y1="34.015" x2="31.9253" y2="34.015" gradientUnits="userSpaceOnUse">
<stop stop-color="#003BFA"/>
<stop offset="0.786458" stop-color="#68EAFC"/>
</linearGradient>
<linearGradient id="paint15_linear_151_6482" x1="15.4423" y1="13.4698" x2="16.1621" y2="13.4698" gradientUnits="userSpaceOnUse">
<stop stop-color="#003BFA"/>
<stop offset="0.786458" stop-color="#68EAFC"/>
</linearGradient>
<linearGradient id="paint16_linear_151_6482" x1="33.914" y1="31.9429" x2="34.6338" y2="31.9429" gradientUnits="userSpaceOnUse">
<stop stop-color="#003BFA"/>
<stop offset="0.786458" stop-color="#68EAFC"/>
</linearGradient>
<linearGradient id="paint17_linear_151_6482" x1="13.3338" y1="16.1623" x2="14.0576" y2="16.1623" gradientUnits="userSpaceOnUse">
<stop stop-color="#003BFA"/>
<stop offset="0.786458" stop-color="#68EAFC"/>
</linearGradient>
<linearGradient id="paint18_linear_151_6482" x1="35.9861" y1="29.2423" x2="36.71" y2="29.2423" gradientUnits="userSpaceOnUse">
<stop stop-color="#003BFA"/>
<stop offset="0.786458" stop-color="#68EAFC"/>
</linearGradient>
<linearGradient id="paint19_linear_151_6482" x1="12.0276" y1="19.3203" x2="12.7515" y2="19.3203" gradientUnits="userSpaceOnUse">
<stop stop-color="#003BFA"/>
<stop offset="0.786458" stop-color="#68EAFC"/>
</linearGradient>
<linearGradient id="paint20_linear_151_6482" x1="37.2879" y1="26.0901" x2="38.0117" y2="26.0901" gradientUnits="userSpaceOnUse">
<stop stop-color="#003BFA"/>
<stop offset="0.786458" stop-color="#68EAFC"/>
</linearGradient>
<linearGradient id="paint21_linear_151_6482" x1="37.7397" y1="22.7046" x2="38.4595" y2="22.7046" gradientUnits="userSpaceOnUse">
<stop stop-color="#003BFA"/>
<stop offset="0.786458" stop-color="#68EAFC"/>
</linearGradient>
<linearGradient id="paint22_linear_151_6482" x1="11.5805" y1="22.7046" x2="12.3003" y2="22.7046" gradientUnits="userSpaceOnUse">
<stop stop-color="#003BFA"/>
<stop offset="0.786458" stop-color="#68EAFC"/>
</linearGradient>
<linearGradient id="paint23_linear_151_6482" x1="37.2949" y1="19.3242" x2="38.0146" y2="19.3242" gradientUnits="userSpaceOnUse">
<stop stop-color="#003BFA"/>
<stop offset="0.786458" stop-color="#68EAFC"/>
</linearGradient>
<linearGradient id="paint24_linear_151_6482" x1="12.0616" y1="26.0855" x2="12.7773" y2="26.0855" gradientUnits="userSpaceOnUse">
<stop stop-color="#003BFA"/>
<stop offset="0.786458" stop-color="#68EAFC"/>
</linearGradient>
<clipPath id="clip0_151_6482">
<rect width="15.0522" height="15.0522" fill="white" transform="translate(17.4941 15.1777)"/>
</clipPath>
</defs>
</svg>
