<svg width="50" height="47" viewBox="0 0 50 47" fill="none" xmlns="http://www.w3.org/2000/svg">
<g filter="url(#filter0_f_151_6656)">
<path d="M36.165 22.0674C36.165 15.9371 31.1953 10.9634 25.0611 10.9634C18.9268 10.9634 13.9571 15.9331 13.9571 22.0674C13.9571 28.2016 18.9268 33.1713 25.0611 33.1713C31.1953 33.1713 36.165 28.1976 36.165 22.0674ZM15.0003 22.0674C15.0003 16.5113 19.505 12.0026 25.0651 12.0026C30.6252 12.0026 35.1258 16.5113 35.1258 22.0674C35.1258 27.6234 30.6211 32.1321 25.0611 32.1321C19.501 32.1321 14.9963 27.6274 14.9963 22.0674L15.0003 22.0674Z" fill="url(#paint0_linear_151_6656)"/>
<path d="M36.0323 15.5366C36.0323 15.4072 36.1011 15.29 36.2102 15.2253C36.3801 15.1242 36.6025 15.1848 36.6995 15.3587C36.7319 15.4153 36.748 15.476 36.748 15.5366C36.748 15.666 36.6793 15.7833 36.5701 15.848C36.4852 15.8965 36.3882 15.9086 36.2992 15.8844C36.2062 15.8601 36.1294 15.7995 36.0808 15.7186C36.0485 15.662 36.0323 15.6013 36.0323 15.5407L36.0323 15.5366Z" fill="url(#paint1_linear_151_6656)"/>
<g style="mix-blend-mode:overlay">
<path d="M13.4112 28.5977C13.4112 28.4683 13.48 28.351 13.5891 28.2863C13.6741 28.2378 13.7711 28.2257 13.8601 28.2499C13.9531 28.2742 14.0299 28.3348 14.0784 28.4157C14.1108 28.4723 14.127 28.533 14.127 28.5936C14.127 28.723 14.0582 28.8403 13.949 28.905C13.8641 28.9535 13.7671 28.9657 13.6781 28.9414C13.5891 28.9171 13.5083 28.8565 13.4597 28.7756C13.4274 28.719 13.4112 28.6583 13.4112 28.5977Z" fill="url(#paint2_linear_151_6656)"/>
</g>
<path d="M33.9589 12.8321C33.9589 12.735 33.9953 12.6461 34.0641 12.5773C34.2056 12.4358 34.432 12.4358 34.5736 12.5773C34.6423 12.6461 34.6787 12.735 34.6787 12.8321C34.6787 12.9291 34.6423 13.0181 34.5736 13.0868C34.432 13.2284 34.2056 13.2284 34.0641 13.0868C33.9953 13.0181 33.9589 12.9291 33.9589 12.8321Z" fill="url(#paint3_linear_151_6656)"/>
<g style="mix-blend-mode:overlay">
<path d="M15.4873 31.3038C15.4873 31.2067 15.5236 31.1178 15.5924 31.049C15.7339 30.9075 15.9604 30.9075 16.1019 31.049C16.1706 31.1178 16.207 31.2067 16.207 31.3038C16.207 31.4008 16.1706 31.4898 16.1019 31.5585C15.9604 31.7001 15.7339 31.7001 15.5924 31.5585C15.5236 31.4898 15.4873 31.4008 15.4873 31.3038Z" fill="url(#paint4_linear_151_6656)"/>
</g>
<path d="M31.254 10.7553C31.254 10.6906 31.2702 10.6299 31.3025 10.5773C31.351 10.4924 31.4279 10.4358 31.5209 10.4115C31.6139 10.3873 31.7109 10.3994 31.7918 10.4479C31.901 10.5126 31.9697 10.6299 31.9697 10.7593C31.9697 10.824 31.9536 10.8847 31.9212 10.9372C31.8727 11.0221 31.7958 11.0788 31.7028 11.103C31.6098 11.1273 31.5128 11.1151 31.4279 11.0666C31.3187 11.0019 31.2499 10.8847 31.2499 10.7553L31.254 10.7553Z" fill="url(#paint5_linear_151_6656)"/>
<g style="mix-blend-mode:overlay">
<path d="M18.1925 33.3749C18.1925 33.3102 18.2086 33.2495 18.241 33.197C18.2895 33.112 18.3663 33.0554 18.4594 33.0312C18.5524 33.0069 18.6494 33.019 18.7303 33.0676C18.8395 33.1323 18.9082 33.2495 18.9082 33.3789C18.9082 33.4436 18.892 33.5043 18.8597 33.5569C18.8112 33.6418 18.7343 33.6984 18.6413 33.7226C18.5483 33.7469 18.4513 33.7348 18.3704 33.6863C18.2612 33.6216 18.1925 33.5043 18.1925 33.3749Z" fill="url(#paint6_linear_151_6656)"/>
</g>
<path d="M28.1026 9.45022C28.1026 9.41787 28.1067 9.38552 28.1148 9.35722C28.139 9.26421 28.1997 9.18738 28.2805 9.13886C28.3655 9.09033 28.4625 9.0782 28.5515 9.10246C28.7092 9.1429 28.8184 9.28847 28.8184 9.45022C28.8184 9.48257 28.8184 9.51088 28.8062 9.54323C28.7537 9.73328 28.5555 9.85055 28.3655 9.79798C28.2078 9.75754 28.0986 9.61197 28.0986 9.45022L28.1026 9.45022Z" fill="url(#paint7_linear_151_6656)"/>
<g style="mix-blend-mode:overlay">
<path d="M21.3408 34.6841C21.3408 34.6517 21.3408 34.6234 21.3529 34.5911C21.4055 34.401 21.6036 34.2838 21.7937 34.3363C21.9514 34.3768 22.0605 34.5223 22.0605 34.6841C22.0605 34.7164 22.0565 34.7488 22.0484 34.7771C22.0242 34.8701 21.9635 34.9469 21.8826 34.9954C21.7977 35.044 21.7047 35.0561 21.6117 35.0318C21.454 34.9914 21.3448 34.8458 21.3448 34.6841L21.3408 34.6841Z" fill="url(#paint8_linear_151_6656)"/>
</g>
<path d="M24.7216 9.0054C24.7216 9.20416 24.8828 9.36529 25.0815 9.36529C25.2803 9.36529 25.4414 9.20416 25.4414 9.0054C25.4414 8.80664 25.2803 8.64551 25.0815 8.64551C24.8828 8.64551 24.7216 8.80664 24.7216 9.0054Z" fill="url(#paint9_linear_151_6656)"/>
<g style="mix-blend-mode:overlay">
<path d="M24.7216 35.127C24.7216 35.3257 24.8828 35.4869 25.0815 35.4869C25.2803 35.4869 25.4414 35.3257 25.4414 35.127C25.4414 34.9282 25.2803 34.7671 25.0815 34.7671C24.8828 34.7671 24.7216 34.9282 24.7216 35.127Z" fill="url(#paint10_linear_151_6656)"/>
</g>
<g style="mix-blend-mode:overlay">
<path d="M21.3409 9.45022C21.3409 9.28847 21.4501 9.14694 21.6078 9.10246C21.7008 9.0782 21.7978 9.09033 21.8787 9.13886C21.9636 9.18738 22.0202 9.26421 22.0445 9.35722C22.0526 9.38957 22.0566 9.41787 22.0566 9.45022C22.0566 9.61197 21.9475 9.7535 21.7898 9.79798C21.5997 9.85055 21.4016 9.73328 21.349 9.54323C21.3409 9.51088 21.3369 9.48257 21.3369 9.45022L21.3409 9.45022Z" fill="url(#paint11_linear_151_6656)"/>
</g>
<g style="mix-blend-mode:overlay">
<path d="M28.1015 34.6851C28.1015 34.5233 28.2107 34.3818 28.3684 34.3373C28.5584 34.2847 28.7566 34.402 28.8092 34.5921C28.8172 34.6244 28.8213 34.6527 28.8213 34.6851C28.8213 34.8468 28.7121 34.9883 28.5544 35.0328C28.4614 35.0571 28.3644 35.0449 28.2835 34.9964C28.1986 34.9479 28.1419 34.8711 28.1177 34.7781C28.1096 34.7457 28.1056 34.7174 28.1056 34.6851L28.1015 34.6851Z" fill="url(#paint12_linear_151_6656)"/>
</g>
<g style="mix-blend-mode:overlay">
<path d="M18.1925 10.7554C18.1925 10.626 18.2612 10.5087 18.3704 10.444C18.4553 10.3955 18.5524 10.3834 18.6413 10.4076C18.7343 10.4319 18.8112 10.4926 18.8597 10.5734C18.892 10.63 18.9082 10.6907 18.9082 10.7514C18.9082 10.8808 18.8395 10.998 18.7303 11.0627C18.6454 11.1112 18.5483 11.1234 18.4594 11.0991C18.3663 11.0748 18.2895 11.0142 18.241 10.9333C18.2086 10.8767 18.1925 10.8161 18.1925 10.7554Z" fill="url(#paint13_linear_151_6656)"/>
</g>
<g style="mix-blend-mode:overlay">
<path d="M31.254 33.3766C31.254 33.2472 31.3227 33.13 31.4319 33.0653C31.6018 32.9682 31.8242 33.0248 31.9212 33.1987C31.9536 33.2553 31.9697 33.316 31.9697 33.3766C31.9697 33.506 31.901 33.6233 31.7918 33.688C31.7069 33.7365 31.6098 33.7486 31.5209 33.7244C31.4279 33.7001 31.351 33.6395 31.3025 33.5586C31.2702 33.502 31.254 33.4413 31.254 33.3807L31.254 33.3766Z" fill="url(#paint14_linear_151_6656)"/>
</g>
<g style="mix-blend-mode:overlay">
<path d="M15.4882 12.8321C15.4882 12.735 15.5246 12.6461 15.5934 12.5773C15.7349 12.4358 15.9613 12.4358 16.1029 12.5773C16.1716 12.6461 16.208 12.735 16.208 12.8321C16.208 12.9291 16.1716 13.0181 16.1029 13.0868C15.9613 13.2284 15.7349 13.2284 15.5934 13.0868C15.5246 13.0181 15.4882 12.9291 15.4882 12.8321Z" fill="url(#paint15_linear_151_6656)"/>
</g>
<g style="mix-blend-mode:overlay">
<path d="M33.9589 31.3052C33.9589 31.2082 33.9953 31.1192 34.0641 31.0505C34.2056 30.909 34.432 30.909 34.5736 31.0505C34.6423 31.1192 34.6787 31.2082 34.6787 31.3052C34.6787 31.4023 34.6423 31.4912 34.5736 31.56C34.432 31.7015 34.2056 31.7015 34.0641 31.56C33.9953 31.4912 33.9589 31.4023 33.9589 31.3052Z" fill="url(#paint16_linear_151_6656)"/>
</g>
<g style="mix-blend-mode:overlay">
<path d="M13.3758 15.5246C13.3758 15.4599 13.392 15.3992 13.4243 15.3466C13.5254 15.1728 13.7438 15.1162 13.9176 15.2132C14.0309 15.2779 14.0996 15.3992 14.0996 15.5246C14.0996 15.5893 14.0834 15.6499 14.0511 15.7025C13.95 15.8764 13.7316 15.933 13.5578 15.8359C13.4445 15.7712 13.3758 15.6499 13.3758 15.5246Z" fill="url(#paint17_linear_151_6656)"/>
</g>
<g style="mix-blend-mode:overlay">
<path d="M36.0291 28.6046C36.0291 28.5399 36.0453 28.4793 36.0776 28.4267C36.1787 28.2528 36.3971 28.1962 36.571 28.2933C36.6842 28.358 36.7529 28.4793 36.7529 28.6046C36.7529 28.6693 36.7368 28.73 36.7044 28.7826C36.6033 28.9564 36.385 29.0131 36.2111 28.916C36.0979 28.8513 36.0291 28.73 36.0291 28.6046Z" fill="url(#paint18_linear_151_6656)"/>
</g>
<g style="mix-blend-mode:overlay">
<path d="M12.0711 18.6826C12.0711 18.6503 12.0751 18.6179 12.0832 18.5896C12.1075 18.4966 12.1682 18.4198 12.2531 18.3713C12.338 18.3228 12.435 18.3106 12.528 18.3349C12.6857 18.3753 12.7949 18.5209 12.7949 18.6826C12.7949 18.715 12.7909 18.7473 12.7828 18.7756C12.7585 18.8687 12.6979 18.9455 12.613 18.994C12.528 19.0425 12.431 19.0547 12.338 19.0304C12.1803 18.99 12.0711 18.8444 12.0711 18.6826Z" fill="url(#paint19_linear_151_6656)"/>
</g>
<g style="mix-blend-mode:overlay">
<path d="M37.3349 25.4526C37.3349 25.4203 37.339 25.3879 37.347 25.3596C37.3996 25.1696 37.5978 25.0523 37.7878 25.1049C37.9455 25.1453 38.0547 25.2909 38.0547 25.4526C38.0547 25.485 38.0506 25.5173 38.0426 25.5456C38.0183 25.6386 37.9576 25.7155 37.8727 25.764C37.7878 25.8125 37.6908 25.8247 37.5978 25.8004C37.44 25.76 37.3309 25.6144 37.3309 25.4526L37.3349 25.4526Z" fill="url(#paint20_linear_151_6656)"/>
</g>
<path d="M37.7832 22.0669C37.7832 21.8688 37.9449 21.707 38.143 21.707C38.3412 21.707 38.5029 21.8688 38.5029 22.0669C38.5029 22.2651 38.3412 22.4268 38.143 22.4268C37.9449 22.4268 37.7832 22.2651 37.7832 22.0669Z" fill="url(#paint21_linear_151_6656)"/>
<g style="mix-blend-mode:overlay">
<path d="M11.624 22.0669C11.624 21.8688 11.7857 21.707 11.9839 21.707C12.182 21.707 12.3437 21.8688 12.3437 22.0669C12.3437 22.2651 12.182 22.4268 11.9839 22.4268C11.7857 22.4268 11.624 22.2651 11.624 22.0669Z" fill="url(#paint22_linear_151_6656)"/>
</g>
<path d="M37.3388 18.687C37.3388 18.5253 37.448 18.3837 37.6057 18.3392C37.7958 18.2867 37.9939 18.4039 38.0465 18.594C38.0546 18.6264 38.0586 18.6547 38.0586 18.687C38.0586 18.8488 37.9494 18.9903 37.7917 19.0348C37.6017 19.0873 37.4035 18.9701 37.3509 18.78C37.3429 18.7477 37.3388 18.7194 37.3388 18.687Z" fill="url(#paint23_linear_151_6656)"/>
<g style="mix-blend-mode:overlay">
<path d="M12.1056 25.4483C12.1056 25.2865 12.2147 25.145 12.3724 25.1005C12.4654 25.0762 12.5625 25.0884 12.6434 25.1369C12.7242 25.1854 12.7849 25.2623 12.8092 25.3553C12.8172 25.3876 12.8213 25.4159 12.8213 25.4483C12.8213 25.61 12.7121 25.7515 12.5544 25.796C12.4614 25.8203 12.3644 25.8082 12.2835 25.7596C12.1986 25.7111 12.1419 25.6343 12.1177 25.5413C12.1096 25.5089 12.1056 25.4806 12.1056 25.4483Z" fill="url(#paint24_linear_151_6656)"/>
</g>
</g>
<path d="M36.165 22.0674C36.165 15.9371 31.1953 10.9634 25.0611 10.9634C18.9268 10.9634 13.9571 15.9331 13.9571 22.0674C13.9571 28.2016 18.9268 33.1713 25.0611 33.1713C31.1953 33.1713 36.165 28.1976 36.165 22.0674ZM15.0003 22.0674C15.0003 16.5113 19.505 12.0026 25.0651 12.0026C30.6252 12.0026 35.1258 16.5113 35.1258 22.0674C35.1258 27.6234 30.6211 32.1321 25.0611 32.1321C19.501 32.1321 14.9963 27.6274 14.9963 22.0674L15.0003 22.0674Z" fill="white"/>
<path d="M36.0323 15.5366C36.0323 15.4072 36.1011 15.29 36.2102 15.2253C36.3801 15.1242 36.6025 15.1848 36.6995 15.3587C36.7319 15.4153 36.748 15.476 36.748 15.5366C36.748 15.666 36.6793 15.7833 36.5701 15.848C36.4852 15.8965 36.3882 15.9086 36.2992 15.8844C36.2062 15.8601 36.1294 15.7995 36.0808 15.7186C36.0485 15.662 36.0323 15.6013 36.0323 15.5407L36.0323 15.5366Z" fill="white"/>
<g style="mix-blend-mode:overlay">
<path d="M13.4112 28.5977C13.4112 28.4683 13.48 28.351 13.5891 28.2863C13.6741 28.2378 13.7711 28.2257 13.8601 28.2499C13.9531 28.2742 14.0299 28.3348 14.0784 28.4157C14.1108 28.4723 14.127 28.533 14.127 28.5936C14.127 28.723 14.0582 28.8403 13.949 28.905C13.8641 28.9535 13.7671 28.9657 13.6781 28.9414C13.5891 28.9171 13.5083 28.8565 13.4597 28.7756C13.4274 28.719 13.4112 28.6583 13.4112 28.5977Z" fill="white"/>
</g>
<path d="M33.9589 12.8321C33.9589 12.735 33.9953 12.6461 34.0641 12.5773C34.2056 12.4358 34.432 12.4358 34.5736 12.5773C34.6423 12.6461 34.6787 12.735 34.6787 12.8321C34.6787 12.9291 34.6423 13.0181 34.5736 13.0868C34.432 13.2284 34.2056 13.2284 34.0641 13.0868C33.9953 13.0181 33.9589 12.9291 33.9589 12.8321Z" fill="white"/>
<g style="mix-blend-mode:overlay">
<path d="M15.4873 31.3038C15.4873 31.2067 15.5236 31.1178 15.5924 31.049C15.7339 30.9075 15.9604 30.9075 16.1019 31.049C16.1706 31.1178 16.207 31.2067 16.207 31.3038C16.207 31.4008 16.1706 31.4898 16.1019 31.5585C15.9604 31.7001 15.7339 31.7001 15.5924 31.5585C15.5236 31.4898 15.4873 31.4008 15.4873 31.3038Z" fill="white"/>
</g>
<path d="M31.254 10.7553C31.254 10.6906 31.2702 10.6299 31.3025 10.5773C31.351 10.4924 31.4279 10.4358 31.5209 10.4115C31.6139 10.3873 31.7109 10.3994 31.7918 10.4479C31.901 10.5126 31.9697 10.6299 31.9697 10.7593C31.9697 10.824 31.9536 10.8847 31.9212 10.9372C31.8727 11.0221 31.7958 11.0788 31.7028 11.103C31.6098 11.1273 31.5128 11.1151 31.4279 11.0666C31.3187 11.0019 31.2499 10.8847 31.2499 10.7553L31.254 10.7553Z" fill="white"/>
<g style="mix-blend-mode:overlay">
<path d="M18.1925 33.3749C18.1925 33.3102 18.2086 33.2495 18.241 33.197C18.2895 33.112 18.3663 33.0554 18.4594 33.0312C18.5524 33.0069 18.6494 33.019 18.7303 33.0676C18.8395 33.1323 18.9082 33.2495 18.9082 33.3789C18.9082 33.4436 18.892 33.5043 18.8597 33.5569C18.8112 33.6418 18.7343 33.6984 18.6413 33.7226C18.5483 33.7469 18.4513 33.7348 18.3704 33.6863C18.2612 33.6216 18.1925 33.5043 18.1925 33.3749Z" fill="white"/>
</g>
<path d="M28.1026 9.45022C28.1026 9.41787 28.1067 9.38552 28.1148 9.35722C28.139 9.26421 28.1997 9.18738 28.2805 9.13886C28.3655 9.09033 28.4625 9.0782 28.5515 9.10246C28.7092 9.1429 28.8184 9.28847 28.8184 9.45022C28.8184 9.48257 28.8184 9.51088 28.8062 9.54323C28.7537 9.73328 28.5555 9.85055 28.3655 9.79798C28.2078 9.75754 28.0986 9.61197 28.0986 9.45022L28.1026 9.45022Z" fill="white"/>
<g style="mix-blend-mode:overlay">
<path d="M21.3408 34.6841C21.3408 34.6517 21.3408 34.6234 21.3529 34.5911C21.4055 34.401 21.6036 34.2838 21.7937 34.3363C21.9514 34.3768 22.0605 34.5223 22.0605 34.6841C22.0605 34.7164 22.0565 34.7488 22.0484 34.7771C22.0242 34.8701 21.9635 34.9469 21.8826 34.9954C21.7977 35.044 21.7047 35.0561 21.6117 35.0318C21.454 34.9914 21.3448 34.8458 21.3448 34.6841L21.3408 34.6841Z" fill="white"/>
</g>
<path d="M24.7216 9.0054C24.7216 9.20416 24.8828 9.36529 25.0815 9.36529C25.2803 9.36529 25.4414 9.20416 25.4414 9.0054C25.4414 8.80664 25.2803 8.64551 25.0815 8.64551C24.8828 8.64551 24.7216 8.80664 24.7216 9.0054Z" fill="white"/>
<g style="mix-blend-mode:overlay">
<path d="M24.7216 35.127C24.7216 35.3257 24.8828 35.4869 25.0815 35.4869C25.2803 35.4869 25.4414 35.3257 25.4414 35.127C25.4414 34.9282 25.2803 34.7671 25.0815 34.7671C24.8828 34.7671 24.7216 34.9282 24.7216 35.127Z" fill="white"/>
</g>
<g style="mix-blend-mode:overlay">
<path d="M21.3409 9.45022C21.3409 9.28847 21.4501 9.14694 21.6078 9.10246C21.7008 9.0782 21.7978 9.09033 21.8787 9.13886C21.9636 9.18738 22.0202 9.26421 22.0445 9.35722C22.0526 9.38957 22.0566 9.41787 22.0566 9.45022C22.0566 9.61197 21.9475 9.7535 21.7898 9.79798C21.5997 9.85055 21.4016 9.73328 21.349 9.54323C21.3409 9.51088 21.3369 9.48257 21.3369 9.45022L21.3409 9.45022Z" fill="white"/>
</g>
<g style="mix-blend-mode:overlay">
<path d="M28.1015 34.6851C28.1015 34.5233 28.2107 34.3818 28.3684 34.3373C28.5584 34.2847 28.7566 34.402 28.8092 34.5921C28.8172 34.6244 28.8213 34.6527 28.8213 34.6851C28.8213 34.8468 28.7121 34.9883 28.5544 35.0328C28.4614 35.0571 28.3644 35.0449 28.2835 34.9964C28.1986 34.9479 28.1419 34.8711 28.1177 34.7781C28.1096 34.7457 28.1056 34.7174 28.1056 34.6851L28.1015 34.6851Z" fill="white"/>
</g>
<g style="mix-blend-mode:overlay">
<path d="M18.1925 10.7554C18.1925 10.626 18.2612 10.5087 18.3704 10.444C18.4553 10.3955 18.5524 10.3834 18.6413 10.4076C18.7343 10.4319 18.8112 10.4926 18.8597 10.5734C18.892 10.63 18.9082 10.6907 18.9082 10.7514C18.9082 10.8808 18.8395 10.998 18.7303 11.0627C18.6454 11.1112 18.5483 11.1234 18.4594 11.0991C18.3663 11.0748 18.2895 11.0142 18.241 10.9333C18.2086 10.8767 18.1925 10.8161 18.1925 10.7554Z" fill="white"/>
</g>
<g style="mix-blend-mode:overlay">
<path d="M31.254 33.3766C31.254 33.2472 31.3227 33.13 31.4319 33.0653C31.6018 32.9682 31.8242 33.0248 31.9212 33.1987C31.9536 33.2553 31.9697 33.316 31.9697 33.3766C31.9697 33.506 31.901 33.6233 31.7918 33.688C31.7069 33.7365 31.6098 33.7486 31.5209 33.7244C31.4279 33.7001 31.351 33.6395 31.3025 33.5586C31.2702 33.502 31.254 33.4413 31.254 33.3807L31.254 33.3766Z" fill="white"/>
</g>
<g style="mix-blend-mode:overlay">
<path d="M15.4882 12.8321C15.4882 12.735 15.5246 12.6461 15.5934 12.5773C15.7349 12.4358 15.9613 12.4358 16.1029 12.5773C16.1716 12.6461 16.208 12.735 16.208 12.8321C16.208 12.9291 16.1716 13.0181 16.1029 13.0868C15.9613 13.2284 15.7349 13.2284 15.5934 13.0868C15.5246 13.0181 15.4882 12.9291 15.4882 12.8321Z" fill="white"/>
</g>
<g style="mix-blend-mode:overlay">
<path d="M33.9589 31.3052C33.9589 31.2082 33.9953 31.1192 34.0641 31.0505C34.2056 30.909 34.432 30.909 34.5736 31.0505C34.6423 31.1192 34.6787 31.2082 34.6787 31.3052C34.6787 31.4023 34.6423 31.4912 34.5736 31.56C34.432 31.7015 34.2056 31.7015 34.0641 31.56C33.9953 31.4912 33.9589 31.4023 33.9589 31.3052Z" fill="white"/>
</g>
<g style="mix-blend-mode:overlay">
<path d="M13.3758 15.5246C13.3758 15.4599 13.392 15.3992 13.4243 15.3466C13.5254 15.1728 13.7438 15.1162 13.9176 15.2132C14.0309 15.2779 14.0996 15.3992 14.0996 15.5246C14.0996 15.5893 14.0834 15.6499 14.0511 15.7025C13.95 15.8764 13.7316 15.933 13.5578 15.8359C13.4445 15.7712 13.3758 15.6499 13.3758 15.5246Z" fill="white"/>
</g>
<g style="mix-blend-mode:overlay">
<path d="M36.0291 28.6046C36.0291 28.5399 36.0453 28.4793 36.0776 28.4267C36.1787 28.2528 36.3971 28.1962 36.571 28.2933C36.6842 28.358 36.7529 28.4793 36.7529 28.6046C36.7529 28.6693 36.7368 28.73 36.7044 28.7826C36.6033 28.9564 36.385 29.0131 36.2111 28.916C36.0979 28.8513 36.0291 28.73 36.0291 28.6046Z" fill="white"/>
</g>
<g style="mix-blend-mode:overlay">
<path d="M12.0711 18.6826C12.0711 18.6503 12.0751 18.6179 12.0832 18.5896C12.1075 18.4966 12.1682 18.4198 12.2531 18.3713C12.338 18.3228 12.435 18.3106 12.528 18.3349C12.6857 18.3753 12.7949 18.5209 12.7949 18.6826C12.7949 18.715 12.7909 18.7473 12.7828 18.7756C12.7585 18.8687 12.6979 18.9455 12.613 18.994C12.528 19.0425 12.431 19.0547 12.338 19.0304C12.1803 18.99 12.0711 18.8444 12.0711 18.6826Z" fill="white"/>
</g>
<g style="mix-blend-mode:overlay">
<path d="M37.3349 25.4526C37.3349 25.4203 37.339 25.3879 37.347 25.3596C37.3996 25.1696 37.5978 25.0523 37.7878 25.1049C37.9455 25.1453 38.0547 25.2909 38.0547 25.4526C38.0547 25.485 38.0506 25.5173 38.0426 25.5456C38.0183 25.6386 37.9576 25.7155 37.8727 25.764C37.7878 25.8125 37.6908 25.8247 37.5978 25.8004C37.44 25.76 37.3309 25.6144 37.3309 25.4526L37.3349 25.4526Z" fill="white"/>
</g>
<path d="M37.7832 22.0669C37.7832 21.8688 37.9449 21.707 38.143 21.707C38.3412 21.707 38.5029 21.8688 38.5029 22.0669C38.5029 22.2651 38.3412 22.4268 38.143 22.4268C37.9449 22.4268 37.7832 22.2651 37.7832 22.0669Z" fill="white"/>
<g style="mix-blend-mode:overlay">
<path d="M11.624 22.0669C11.624 21.8688 11.7857 21.707 11.9839 21.707C12.182 21.707 12.3437 21.8688 12.3437 22.0669C12.3437 22.2651 12.182 22.4268 11.9839 22.4268C11.7857 22.4268 11.624 22.2651 11.624 22.0669Z" fill="white"/>
</g>
<path d="M37.3388 18.687C37.3388 18.5253 37.448 18.3837 37.6057 18.3392C37.7958 18.2867 37.9939 18.4039 38.0465 18.594C38.0546 18.6264 38.0586 18.6547 38.0586 18.687C38.0586 18.8488 37.9494 18.9903 37.7917 19.0348C37.6017 19.0873 37.4035 18.9701 37.3509 18.78C37.3429 18.7477 37.3388 18.7194 37.3388 18.687Z" fill="white"/>
<g style="mix-blend-mode:overlay">
<path d="M12.1056 25.4483C12.1056 25.2865 12.2147 25.145 12.3724 25.1005C12.4654 25.0762 12.5625 25.0884 12.6434 25.1369C12.7242 25.1854 12.7849 25.2623 12.8092 25.3553C12.8172 25.3876 12.8213 25.4159 12.8213 25.4483C12.8213 25.61 12.7121 25.7515 12.5544 25.796C12.4614 25.8203 12.3644 25.8082 12.2835 25.7596C12.1986 25.7111 12.1419 25.6343 12.1177 25.5413C12.1096 25.5089 12.1056 25.4806 12.1056 25.4483Z" fill="white"/>
</g>
<g clip-path="url(#clip0_151_6656)">
<path fill-rule="evenodd" clip-rule="evenodd" d="M25.0633 28.338C23.3804 26.9059 22.1234 25.5758 21.2924 24.3476C20.4614 23.1193 20.0459 21.9826 20.0459 20.9373C20.0459 19.3693 20.5503 18.1202 21.559 17.1899C22.5677 16.2596 23.7358 15.7944 25.0633 15.7944C26.3908 15.7944 27.559 16.2596 28.5677 17.1899C29.5764 18.1202 30.0807 19.3693 30.0807 20.9373C30.0807 21.9826 29.6652 23.1193 28.8342 24.3476C28.0032 25.5758 26.7462 26.9059 25.0633 28.338ZM23.7462 22.267L23.0877 21.6085L24.4048 20.2914L23.0877 18.9744L23.7462 18.3158L25.0633 19.6329L26.3804 18.3158L27.0389 18.9744L25.7218 20.2914L27.0389 21.6085L26.3804 22.267L25.0633 20.95L23.7462 22.267Z" fill="white"/>
</g>
<defs>
<filter id="filter0_f_151_6656" x="0.872423" y="-2.10609" width="48.3821" height="48.3445" filterUnits="userSpaceOnUse" color-interpolation-filters="sRGB">
<feFlood flood-opacity="0" result="BackgroundImageFix"/>
<feBlend mode="normal" in="SourceGraphic" in2="BackgroundImageFix" result="shape"/>
<feGaussianBlur stdDeviation="5.3758" result="effect1_foregroundBlur_151_6656"/>
</filter>
<linearGradient id="paint0_linear_151_6656" x1="13.9571" y1="22.0674" x2="36.165" y2="22.0673" gradientUnits="userSpaceOnUse">
<stop stop-color="#003BFA"/>
<stop offset="0.786458" stop-color="#68EAFC"/>
</linearGradient>
<linearGradient id="paint1_linear_151_6656" x1="36.3922" y1="15.1767" x2="36.3922" y2="15.8965" gradientUnits="userSpaceOnUse">
<stop stop-color="#08F2EB"/>
<stop offset="1" stop-color="#08B9FF"/>
</linearGradient>
<linearGradient id="paint2_linear_151_6656" x1="13.4112" y1="28.5957" x2="14.127" y2="28.5957" gradientUnits="userSpaceOnUse">
<stop stop-color="#003BFA"/>
<stop offset="0.786458" stop-color="#68EAFC"/>
</linearGradient>
<linearGradient id="paint3_linear_151_6656" x1="34.3188" y1="12.4722" x2="34.3188" y2="13.192" gradientUnits="userSpaceOnUse">
<stop stop-color="#08F2EB"/>
<stop offset="1" stop-color="#08B9FF"/>
</linearGradient>
<linearGradient id="paint4_linear_151_6656" x1="15.4873" y1="31.3038" x2="16.207" y2="31.3038" gradientUnits="userSpaceOnUse">
<stop stop-color="#003BFA"/>
<stop offset="0.786458" stop-color="#68EAFC"/>
</linearGradient>
<linearGradient id="paint5_linear_151_6656" x1="31.6139" y1="10.3954" x2="31.6139" y2="11.1151" gradientUnits="userSpaceOnUse">
<stop stop-color="#08F2EB"/>
<stop offset="1" stop-color="#08B9FF"/>
</linearGradient>
<linearGradient id="paint6_linear_151_6656" x1="18.1925" y1="33.3769" x2="18.9082" y2="33.3769" gradientUnits="userSpaceOnUse">
<stop stop-color="#003BFA"/>
<stop offset="0.786458" stop-color="#68EAFC"/>
</linearGradient>
<linearGradient id="paint7_linear_151_6656" x1="28.4625" y1="9.09033" x2="28.4625" y2="9.81011" gradientUnits="userSpaceOnUse">
<stop stop-color="#08F2EB"/>
<stop offset="1" stop-color="#08B9FF"/>
</linearGradient>
<linearGradient id="paint8_linear_151_6656" x1="21.3408" y1="34.6838" x2="22.0605" y2="34.6838" gradientUnits="userSpaceOnUse">
<stop stop-color="#003BFA"/>
<stop offset="0.786458" stop-color="#68EAFC"/>
</linearGradient>
<linearGradient id="paint9_linear_151_6656" x1="25.0815" y1="8.64551" x2="25.0815" y2="9.36529" gradientUnits="userSpaceOnUse">
<stop stop-color="#08F2EB"/>
<stop offset="1" stop-color="#08B9FF"/>
</linearGradient>
<linearGradient id="paint10_linear_151_6656" x1="24.7216" y1="35.127" x2="25.4414" y2="35.127" gradientUnits="userSpaceOnUse">
<stop stop-color="#003BFA"/>
<stop offset="0.786458" stop-color="#68EAFC"/>
</linearGradient>
<linearGradient id="paint11_linear_151_6656" x1="21.3369" y1="9.45045" x2="22.0566" y2="9.45045" gradientUnits="userSpaceOnUse">
<stop stop-color="#003BFA"/>
<stop offset="0.786458" stop-color="#68EAFC"/>
</linearGradient>
<linearGradient id="paint12_linear_151_6656" x1="28.1015" y1="34.6848" x2="28.8213" y2="34.6848" gradientUnits="userSpaceOnUse">
<stop stop-color="#003BFA"/>
<stop offset="0.786458" stop-color="#68EAFC"/>
</linearGradient>
<linearGradient id="paint13_linear_151_6656" x1="18.1925" y1="10.7534" x2="18.9082" y2="10.7534" gradientUnits="userSpaceOnUse">
<stop stop-color="#003BFA"/>
<stop offset="0.786458" stop-color="#68EAFC"/>
</linearGradient>
<linearGradient id="paint14_linear_151_6656" x1="31.254" y1="33.3773" x2="31.9697" y2="33.3773" gradientUnits="userSpaceOnUse">
<stop stop-color="#003BFA"/>
<stop offset="0.786458" stop-color="#68EAFC"/>
</linearGradient>
<linearGradient id="paint15_linear_151_6656" x1="15.4882" y1="12.8321" x2="16.208" y2="12.8321" gradientUnits="userSpaceOnUse">
<stop stop-color="#003BFA"/>
<stop offset="0.786458" stop-color="#68EAFC"/>
</linearGradient>
<linearGradient id="paint16_linear_151_6656" x1="33.9589" y1="31.3052" x2="34.6787" y2="31.3052" gradientUnits="userSpaceOnUse">
<stop stop-color="#003BFA"/>
<stop offset="0.786458" stop-color="#68EAFC"/>
</linearGradient>
<linearGradient id="paint17_linear_151_6656" x1="13.3758" y1="15.5246" x2="14.0996" y2="15.5246" gradientUnits="userSpaceOnUse">
<stop stop-color="#003BFA"/>
<stop offset="0.786458" stop-color="#68EAFC"/>
</linearGradient>
<linearGradient id="paint18_linear_151_6656" x1="36.0291" y1="28.6046" x2="36.7529" y2="28.6046" gradientUnits="userSpaceOnUse">
<stop stop-color="#003BFA"/>
<stop offset="0.786458" stop-color="#68EAFC"/>
</linearGradient>
<linearGradient id="paint19_linear_151_6656" x1="12.0711" y1="18.6826" x2="12.7949" y2="18.6826" gradientUnits="userSpaceOnUse">
<stop stop-color="#003BFA"/>
<stop offset="0.786458" stop-color="#68EAFC"/>
</linearGradient>
<linearGradient id="paint20_linear_151_6656" x1="37.3309" y1="25.4524" x2="38.0547" y2="25.4524" gradientUnits="userSpaceOnUse">
<stop stop-color="#003BFA"/>
<stop offset="0.786458" stop-color="#68EAFC"/>
</linearGradient>
<linearGradient id="paint21_linear_151_6656" x1="37.7832" y1="22.0669" x2="38.5029" y2="22.0669" gradientUnits="userSpaceOnUse">
<stop stop-color="#003BFA"/>
<stop offset="0.786458" stop-color="#68EAFC"/>
</linearGradient>
<linearGradient id="paint22_linear_151_6656" x1="11.624" y1="22.0669" x2="12.3437" y2="22.0669" gradientUnits="userSpaceOnUse">
<stop stop-color="#003BFA"/>
<stop offset="0.786458" stop-color="#68EAFC"/>
</linearGradient>
<linearGradient id="paint23_linear_151_6656" x1="37.3388" y1="18.687" x2="38.0586" y2="18.687" gradientUnits="userSpaceOnUse">
<stop stop-color="#003BFA"/>
<stop offset="0.786458" stop-color="#68EAFC"/>
</linearGradient>
<linearGradient id="paint24_linear_151_6656" x1="12.1056" y1="25.4483" x2="12.8213" y2="25.4483" gradientUnits="userSpaceOnUse">
<stop stop-color="#003BFA"/>
<stop offset="0.786458" stop-color="#68EAFC"/>
</linearGradient>
<clipPath id="clip0_151_6656">
<rect width="15.0522" height="15.0522" fill="white" transform="translate(17.5371 14.54)"/>
</clipPath>
</defs>
</svg>
