<svg width="64" height="65" viewBox="0 0 64 65" fill="none" xmlns="http://www.w3.org/2000/svg">
<rect x="4" y="4.5" width="56" height="56" rx="28" fill="#FCFCFC" fill-opacity="0.16"/>
<mask id="mask0_1_4388" style="mask-type:alpha" maskUnits="userSpaceOnUse" x="18" y="18" width="28" height="29">
<rect x="18" y="18.5" width="28" height="28" fill="#D9D9D9"/>
</mask>
<g mask="url(#mask0_1_4388)">
<path d="M28.9714 42.4166V40.0833H25.4714V38.3333H27.8048V26.6666H25.4714V24.9166H28.9714V22.5833H30.7211V24.9166H33.1668V22.5833H34.9168V25.0065C35.9353 25.1739 36.7732 25.6372 37.4306 26.3963C38.0881 27.1554 38.4168 28.0719 38.4168 29.1458C38.4168 29.7396 38.3083 30.2886 38.0913 30.7926C37.8745 31.2968 37.5836 31.7306 37.2186 32.094C37.9441 32.4275 38.5195 32.9274 38.945 33.5937C39.3706 34.2601 39.5834 35.0136 39.5834 35.8541C39.5834 37.0476 39.1769 38.0509 38.364 38.8639C37.551 39.6768 36.5478 40.0833 35.3543 40.0833H34.9168V42.4166H33.1668V40.0833H30.7211V42.4166H28.9714ZM29.5545 31.625H34.1876C34.8892 31.625 35.4777 31.3872 35.9534 30.9116C36.429 30.436 36.6668 29.8474 36.6668 29.1458C36.6668 28.4443 36.429 27.8557 35.9534 27.3801C35.4777 26.9045 34.8892 26.6666 34.1876 26.6666H29.5545V31.625ZM29.5545 38.3333H35.3543C36.0558 38.3333 36.6444 38.0955 37.12 37.6199C37.5956 37.1443 37.8334 36.5557 37.8334 35.8541C37.8334 35.1526 37.5956 34.564 37.12 34.0884C36.6444 33.6128 36.0558 33.375 35.3543 33.375H29.5545V38.3333Z" fill="#FCFCFC"/>
</g>
</svg>
