<svg width="239" height="149" viewBox="0 0 239 149" fill="none" xmlns="http://www.w3.org/2000/svg">
<g filter="url(#filter0_d_1_3869)">
<rect x="62.3556" y="60.0597" width="5.84193" height="32.6422" rx="0.111463" fill="white" stroke="white" stroke-width="0.222927" stroke-linecap="round"/>
<line x1="65.0509" y1="48.8854" x2="65.0509" y2="117.022" stroke="white" stroke-width="0.222927" stroke-linecap="round"/>
<rect x="27.3136" y="53.9225" width="5.84191" height="49.3907" rx="0.111463" fill="white" stroke="white" stroke-width="0.222927" stroke-linecap="round"/>
<line x1="30.0089" y1="37.0538" x2="30.0089" y2="140.027" stroke="white" stroke-width="0.222927" stroke-linecap="round"/>
<rect x="53.5939" y="42.3312" width="5.84191" height="46.2306" rx="0.111463" fill="white" stroke="white" stroke-width="0.222927" stroke-linecap="round"/>
<line x1="0.111463" y1="-0.111463" x2="72.8491" y2="-0.111463" transform="matrix(4.77313e-08 1 1 -4.003e-08 56.8506 26.4255)" stroke="white" stroke-width="0.222927" stroke-linecap="round"/>
<rect x="18.5538" y="28.5067" width="5.84193" height="80.9662" rx="0.111463" fill="white" stroke="white" stroke-width="0.222927" stroke-linecap="round"/>
<line x1="0.111463" y1="-0.111463" x2="127.405" y2="-0.111463" transform="matrix(4.47235e-08 1 1 -4.27221e-08 21.8105 0.79126)" stroke="white" stroke-width="0.222927" stroke-linecap="round"/>
<rect x="79.8761" y="77.807" width="5.84192" height="32.6422" rx="0.111463" fill="white" stroke="white" stroke-width="0.222927" stroke-linecap="round"/>
<line x1="82.5714" y1="66.6327" x2="82.5714" y2="134.769" stroke="white" stroke-width="0.222927" stroke-linecap="round"/>
<rect x="36.0744" y="86.6234" width="5.84193" height="8.30935" rx="0.111463" fill="white" stroke="white" stroke-width="0.222927" stroke-linecap="round"/>
<line x1="38.7697" y1="83.7225" x2="38.7697" y2="101.247" stroke="white" stroke-width="0.222927" stroke-linecap="round"/>
<rect x="88.6369" y="100.427" width="5.84192" height="8.30935" rx="0.111463" fill="white" stroke="white" stroke-width="0.222927" stroke-linecap="round"/>
<line x1="91.3331" y1="97.5255" x2="91.3331" y2="115.05" stroke="white" stroke-width="0.222927" stroke-linecap="round"/>
<rect x="0.111463" y="-0.111463" width="5.84192" height="12.1015" rx="0.111463" transform="matrix(1 0 0 -1 97.2861 115.349)" fill="white" stroke="white" stroke-width="0.222927" stroke-linecap="round"/>
<line x1="0.111463" y1="-0.111463" x2="25.5233" y2="-0.111463" transform="matrix(-4.77313e-08 -1 -1 4.003e-08 99.9814 119.762)" stroke="white" stroke-width="0.222927" stroke-linecap="round"/>
<rect x="71.1154" y="91.6835" width="5.84193" height="25.3388" rx="0.111463" fill="white" stroke="white" stroke-width="0.222927" stroke-linecap="round"/>
<line x1="73.8117" y1="85.0372" x2="73.8117" y2="117.022" stroke="white" stroke-width="0.222927" stroke-linecap="round"/>
<rect x="-0.111463" y="0.111463" width="5.84193" height="17.2055" rx="0.111463" transform="matrix(-1 0 0 1 50.5652 86.2407)" fill="white" stroke="white" stroke-width="0.222927" stroke-linecap="round"/>
<line x1="0.111463" y1="-0.111463" x2="21.8484" y2="-0.111463" transform="matrix(-4.45142e-08 1 1 4.2923e-08 48.0928 87.2861)" stroke="white" stroke-width="0.222927" stroke-linecap="round"/>
<rect x="-0.111463" y="0.111463" width="5.84193" height="30.6503" rx="0.111463" transform="matrix(-1 0 0 1 15.5241 44.8303)" fill="white" stroke="white" stroke-width="0.222927" stroke-linecap="round"/>
<line x1="0.111463" y1="-0.111463" x2="38.7889" y2="-0.111463" transform="matrix(-2.5129e-08 1 1 7.60351e-08 13.0518 46.6826)" stroke="white" stroke-width="0.222927" stroke-linecap="round"/>
<line x1="0.111463" y1="-0.111463" x2="21.8484" y2="-0.111463" transform="matrix(-4.45142e-08 1 1 4.2923e-08 4.29102 57.0498)" stroke="white" stroke-width="0.222927" stroke-linecap="round"/>
<rect x="106.157" y="88.9811" width="5.84193" height="17.2055" rx="0.111463" fill="white" stroke="white" stroke-width="0.222927" stroke-linecap="round"/>
<line x1="0.111463" y1="-0.111463" x2="26.8376" y2="-0.111463" transform="matrix(-4.77631e-08 1 1 4.00034e-08 108.741 84.9258)" stroke="white" stroke-width="0.222927" stroke-linecap="round"/>
<rect x="170.609" y="60.0599" width="5.84193" height="32.6422" rx="0.111463" fill="white" stroke="white" stroke-width="0.222927" stroke-linecap="round"/>
<line x1="173.304" y1="48.8856" x2="173.304" y2="117.022" stroke="white" stroke-width="0.222927" stroke-linecap="round"/>
<rect x="135.567" y="53.923" width="5.84191" height="49.3907" rx="0.111463" fill="white" stroke="white" stroke-width="0.222927" stroke-linecap="round"/>
<line x1="138.262" y1="37.0543" x2="138.262" y2="140.028" stroke="white" stroke-width="0.222927" stroke-linecap="round"/>
<rect x="161.847" y="42.3314" width="5.84191" height="46.2306" rx="0.111463" fill="white" stroke="white" stroke-width="0.222927" stroke-linecap="round"/>
<line x1="0.111463" y1="-0.111463" x2="72.8491" y2="-0.111463" transform="matrix(4.77313e-08 1 1 -4.003e-08 165.104 26.4258)" stroke="white" stroke-width="0.222927" stroke-linecap="round"/>
<rect x="126.807" y="28.507" width="5.84193" height="80.9662" rx="0.111463" fill="white" stroke="white" stroke-width="0.222927" stroke-linecap="round"/>
<line x1="0.111463" y1="-0.111463" x2="127.405" y2="-0.111463" transform="matrix(4.47235e-08 1 1 -4.27221e-08 130.064 0.791504)" stroke="white" stroke-width="0.222927" stroke-linecap="round"/>
<rect x="188.127" y="77.8073" width="5.84192" height="32.6422" rx="0.111463" fill="white" stroke="white" stroke-width="0.222927" stroke-linecap="round"/>
<line x1="190.823" y1="66.6329" x2="190.823" y2="134.769" stroke="white" stroke-width="0.222927" stroke-linecap="round"/>
<rect x="144.327" y="86.6237" width="5.84193" height="8.30935" rx="0.111463" fill="white" stroke="white" stroke-width="0.222927" stroke-linecap="round"/>
<line x1="147.023" y1="83.7228" x2="147.023" y2="101.247" stroke="white" stroke-width="0.222927" stroke-linecap="round"/>
<rect x="196.889" y="100.427" width="5.84192" height="8.30935" rx="0.111463" fill="white" stroke="white" stroke-width="0.222927" stroke-linecap="round"/>
<line x1="199.584" y1="97.5258" x2="199.584" y2="115.05" stroke="white" stroke-width="0.222927" stroke-linecap="round"/>
<rect x="0.111463" y="-0.111463" width="5.84192" height="12.1015" rx="0.111463" transform="matrix(1 0 0 -1 205.538 115.349)" fill="white" stroke="white" stroke-width="0.222927" stroke-linecap="round"/>
<line x1="0.111463" y1="-0.111463" x2="25.5233" y2="-0.111463" transform="matrix(-4.77313e-08 -1 -1 4.003e-08 208.233 119.763)" stroke="white" stroke-width="0.222927" stroke-linecap="round"/>
<rect x="179.367" y="91.6837" width="5.84193" height="25.3388" rx="0.111463" fill="white" stroke="white" stroke-width="0.222927" stroke-linecap="round"/>
<line x1="182.063" y1="85.0375" x2="182.063" y2="117.022" stroke="white" stroke-width="0.222927" stroke-linecap="round"/>
<rect x="-0.111463" y="0.111463" width="5.84193" height="17.2055" rx="0.111463" transform="matrix(-1 0 0 1 158.817 86.241)" fill="white" stroke="white" stroke-width="0.222927" stroke-linecap="round"/>
<line x1="0.111463" y1="-0.111463" x2="21.8484" y2="-0.111463" transform="matrix(-4.45142e-08 1 1 4.2923e-08 156.345 87.2864)" stroke="white" stroke-width="0.222927" stroke-linecap="round"/>
<rect x="-0.111463" y="0.111463" width="5.84193" height="30.6503" rx="0.111463" transform="matrix(-1 0 0 1 123.776 44.8306)" fill="white" stroke="white" stroke-width="0.222927" stroke-linecap="round"/>
<line x1="0.111463" y1="-0.111463" x2="38.7889" y2="-0.111463" transform="matrix(-2.5129e-08 1 1 7.60351e-08 121.304 46.6829)" stroke="white" stroke-width="0.222927" stroke-linecap="round"/>
<line x1="0.111463" y1="-0.111463" x2="21.8484" y2="-0.111463" transform="matrix(-4.45142e-08 1 1 4.2923e-08 112.543 57.05)" stroke="white" stroke-width="0.222927" stroke-linecap="round"/>
<rect x="214.41" y="88.9813" width="5.84193" height="17.2055" rx="0.111463" fill="white" stroke="white" stroke-width="0.222927" stroke-linecap="round"/>
<line x1="0.111463" y1="-0.111463" x2="26.8376" y2="-0.111463" transform="matrix(-4.77631e-08 1 1 4.00034e-08 216.994 84.926)" stroke="white" stroke-width="0.222927" stroke-linecap="round"/>
</g>
<defs>
<filter id="filter0_d_1_3869" x="0.0302734" y="0.592285" width="242.164" height="147.607" filterUnits="userSpaceOnUse" color-interpolation-filters="sRGB">
<feFlood flood-opacity="0" result="BackgroundImageFix"/>
<feColorMatrix in="SourceAlpha" type="matrix" values="0 0 0 0 0 0 0 0 0 0 0 0 0 0 0 0 0 0 127 0" result="hardAlpha"/>
<feOffset dy="4"/>
<feGaussianBlur stdDeviation="2"/>
<feComposite in2="hardAlpha" operator="out"/>
<feColorMatrix type="matrix" values="0 0 0 0 0 0 0 0 0 0 0 0 0 0 0 0 0 0 0.25 0"/>
<feBlend mode="normal" in2="BackgroundImageFix" result="effect1_dropShadow_1_3869"/>
<feBlend mode="normal" in="SourceGraphic" in2="effect1_dropShadow_1_3869" result="shape"/>
</filter>
</defs>
</svg>
