<svg width="64" height="65" viewBox="0 0 64 65" fill="none" xmlns="http://www.w3.org/2000/svg">
<rect x="4" y="4.5" width="56" height="56" rx="28" fill="#FCFCFC" fill-opacity="0.16"/>
<mask id="mask0_1_4370" style="mask-type:alpha" maskUnits="userSpaceOnUse" x="18" y="18" width="28" height="29">
<rect x="18" y="18.5" width="28" height="28" fill="#FCFCFC" fill-opacity="0.9"/>
</mask>
<g mask="url(#mask0_1_4370)">
<path d="M43.0834 25.859V39.141C43.0834 39.7303 42.8792 40.2292 42.4709 40.6375C42.0626 41.0458 41.5637 41.25 40.9744 41.25H23.0258C22.4364 41.25 21.9376 41.0458 21.5292 40.6375C21.1209 40.2292 20.9167 39.7303 20.9167 39.141V25.859C20.9167 25.2697 21.1209 24.7708 21.5292 24.3625C21.9376 23.9542 22.4364 23.75 23.0258 23.75H40.9744C41.5637 23.75 42.0626 23.9542 42.4709 24.3625C42.8792 24.7708 43.0834 25.2697 43.0834 25.859ZM22.6667 28.3047H41.3334V25.859C41.3334 25.7692 41.296 25.687 41.2211 25.6123C41.1465 25.5374 41.0642 25.5 40.9744 25.5H23.0258C22.936 25.5 22.8537 25.5374 22.779 25.6123C22.7042 25.687 22.6667 25.7692 22.6667 25.859V28.3047ZM22.6667 32.0287V39.141C22.6667 39.2308 22.7042 39.313 22.779 39.3877C22.8537 39.4626 22.936 39.5 23.0258 39.5H40.9744C41.0642 39.5 41.1465 39.4626 41.2211 39.3877C41.296 39.313 41.3334 39.2308 41.3334 39.141V32.0287H22.6667Z" fill="#FCFCFC"/>
</g>
</svg>
