<svg width="658" height="480" viewBox="0 0 658 480" fill="none" xmlns="http://www.w3.org/2000/svg">
<g filter="url(#filter0_d_1_4396)">
<g opacity="0.47" filter="url(#filter1_f_1_4396)">
<circle cx="309" cy="237" r="137" fill="url(#paint0_radial_1_4396)"/>
</g>
<path d="M228.243 158.243C245.916 140.571 268.928 129.225 293.708 125.968L298.146 159.728C280.8 162.008 264.691 169.949 252.32 182.32L228.243 158.243Z" fill="url(#paint1_linear_1_4396)"/>
<path d="M198.867 267.876C193.711 248.631 193.711 228.369 198.867 209.124C204.024 189.88 214.155 172.331 228.243 158.243L252.32 182.32C242.459 192.182 235.367 204.466 231.757 217.937C228.148 231.408 228.148 245.592 231.757 259.063L198.867 267.876Z" fill="url(#paint2_linear_1_4396)"/>
<path d="M251.75 336.794C225.681 321.743 206.658 296.952 198.867 267.876L231.757 259.063C237.211 279.417 250.527 296.77 268.775 307.306L251.75 336.794Z" fill="#018CF1"/>
<path d="M337.876 348.133C323.479 351.99 308.463 352.974 293.685 351.029C278.908 349.083 264.658 344.246 251.75 336.794L268.775 307.306C277.811 312.522 287.785 315.908 298.13 317.27C308.474 318.632 318.985 317.943 329.063 315.243L337.876 348.133Z" fill="#003BFA"/>
<path d="M388.757 318.757C374.669 332.845 357.12 342.976 337.876 348.133L329.063 315.243C342.534 311.633 354.818 304.541 364.68 294.68L388.757 318.757Z" fill="#2800FD"/>
<path d="M418.133 267.876C412.976 287.12 402.845 304.669 388.757 318.757L364.68 294.68C374.541 284.818 381.633 272.534 385.243 259.063L418.133 267.876Z" fill="#01238F"/>
<path d="M279.124 128.867C298.369 123.711 318.631 123.711 337.876 128.867C357.121 134.024 374.669 144.155 388.757 158.243C402.845 172.331 412.976 189.88 418.133 209.124C423.289 228.369 423.289 248.631 418.133 267.876L385.243 259.063C388.852 245.592 388.852 231.408 385.243 217.937C381.633 204.466 374.541 192.182 364.68 182.32C354.818 172.459 342.534 165.367 329.063 161.757C315.592 158.148 301.408 158.148 287.937 161.757L279.124 128.867Z" fill="url(#paint3_linear_1_4396)"/>
<path opacity="0.32" d="M257.278 152.457C255.32 155.847 256.449 160.052 259.844 162.012C263.239 163.972 267.444 162.847 269.402 159.457C271.36 156.066 270.231 151.861 266.836 149.901C263.581 147.699 259.236 149.066 257.278 152.457Z" stroke="url(#paint4_linear_1_4396)" stroke-width="0.5" stroke-miterlimit="10"/>
<path d="M261.382 154.801C260.683 156.012 261.086 157.514 262.299 158.214C263.511 158.914 265.013 158.512 265.712 157.301C266.412 156.09 266.008 154.589 264.796 153.889C263.633 153.102 262.081 153.59 261.382 154.801Z" fill="white"/>
<path d="M228 92.5L263.5 157" stroke="url(#paint5_linear_1_4396)" stroke-miterlimit="10"/>
<path d="M177 345.922L231.715 296.66" stroke="url(#paint6_linear_1_4396)" stroke-miterlimit="10"/>
<path opacity="0.32" d="M209.278 212.457C207.32 215.847 208.449 220.052 211.844 222.012C215.239 223.972 219.444 222.847 221.402 219.457C223.36 216.066 222.231 211.861 218.836 209.901C215.581 207.699 211.236 209.066 209.278 212.457Z" stroke="url(#paint7_linear_1_4396)" stroke-width="0.5" stroke-miterlimit="10"/>
<path d="M213.382 214.801C212.683 216.012 213.086 217.514 214.299 218.214C215.511 218.914 217.013 218.512 217.712 217.301C218.412 216.09 218.008 214.589 216.796 213.889C215.633 213.102 214.081 213.59 213.382 214.801Z" fill="white"/>
<path d="M164 217H215.5" stroke="url(#paint8_linear_1_4396)" stroke-miterlimit="10"/>
<path opacity="0.32" d="M224.361 297.337C223.626 293.492 226.073 289.891 229.923 289.155C233.774 288.419 237.377 290.862 238.112 294.708C238.847 298.553 236.4 302.154 232.55 302.89C228.752 303.901 225.097 301.183 224.361 297.337Z" stroke="url(#paint9_linear_1_4396)" stroke-width="0.5" stroke-miterlimit="10"/>
<path d="M229.009 296.471C228.747 295.097 229.621 293.812 230.996 293.549C232.371 293.286 233.658 294.158 233.92 295.532C234.183 296.905 233.309 298.191 231.934 298.454C230.577 298.815 229.272 297.844 229.009 296.471Z" fill="white"/>
<path opacity="0.32" d="M394.628 174.457C396.586 177.847 395.457 182.052 392.062 184.012C388.667 185.972 384.462 184.847 382.504 181.457C380.546 178.066 381.676 173.861 385.07 171.901C388.325 169.699 392.671 171.066 394.628 174.457Z" stroke="url(#paint10_linear_1_4396)" stroke-width="0.5" stroke-miterlimit="10"/>
<path d="M390.523 176.801C391.222 178.012 390.819 179.514 389.606 180.214C388.394 180.914 386.892 180.512 386.193 179.301C385.494 178.09 385.897 176.589 387.109 175.889C388.272 175.102 389.824 175.59 390.523 176.801Z" fill="white"/>
<path d="M423.906 114.5L388.406 179" stroke="url(#paint11_linear_1_4396)" stroke-miterlimit="10"/>
<path opacity="0.32" d="M400.628 285.457C402.586 288.847 401.457 293.052 398.062 295.012C394.667 296.972 390.462 295.847 388.504 292.457C386.546 289.066 387.676 284.861 391.07 282.901C394.325 280.699 398.671 282.066 400.628 285.457Z" stroke="url(#paint12_linear_1_4396)" stroke-width="0.5" stroke-miterlimit="10"/>
<path d="M396.523 287.801C397.222 289.012 396.819 290.514 395.606 291.214C394.394 291.914 392.892 291.512 392.193 290.301C391.494 289.09 391.897 287.589 393.109 286.889C394.272 286.102 395.824 286.59 396.523 287.801Z" fill="white"/>
<path d="M467.5 290H394.406" stroke="url(#paint13_linear_1_4396)" stroke-miterlimit="10"/>
<path d="M282.822 446.746L298.5 339.5" stroke="url(#paint14_linear_1_4396)" stroke-miterlimit="10"/>
<path opacity="0.32" d="M292.497 341.055C290.539 337.664 291.668 333.46 295.063 331.5C298.458 329.54 302.663 330.664 304.621 334.055C306.579 337.446 305.449 341.65 302.055 343.61C298.8 345.812 294.454 344.446 292.497 341.055Z" stroke="url(#paint15_linear_1_4396)" stroke-width="0.5" stroke-miterlimit="10"/>
<path d="M296.601 338.71C295.902 337.499 296.305 335.998 297.518 335.298C298.73 334.598 300.232 334.999 300.931 336.21C301.63 337.421 301.227 338.923 300.015 339.623C298.852 340.409 297.3 339.921 296.601 338.71Z" fill="white"/>
<path d="M409 387.5L358 323.061" stroke="url(#paint16_linear_1_4396)" stroke-miterlimit="10"/>
<path opacity="0.32" d="M363.628 326.055C365.586 322.664 364.457 318.46 361.062 316.5C357.667 314.54 353.462 315.664 351.504 319.055C349.546 322.446 350.676 326.65 354.07 328.61C357.325 330.812 361.671 329.446 363.628 326.055Z" stroke="url(#paint17_linear_1_4396)" stroke-width="0.5" stroke-miterlimit="10"/>
<path d="M359.523 323.71C360.222 322.499 359.819 320.998 358.606 320.298C357.394 319.598 355.892 319.999 355.193 321.21C354.494 322.421 354.897 323.923 356.109 324.623C357.272 325.409 358.824 324.921 359.523 323.71Z" fill="white"/>
</g>
<defs>
<filter id="filter0_d_1_4396" x="-4" y="46" width="666" height="442" filterUnits="userSpaceOnUse" color-interpolation-filters="sRGB">
<feFlood flood-opacity="0" result="BackgroundImageFix"/>
<feColorMatrix in="SourceAlpha" type="matrix" values="0 0 0 0 0 0 0 0 0 0 0 0 0 0 0 0 0 0 127 0" result="hardAlpha"/>
<feOffset dy="4"/>
<feGaussianBlur stdDeviation="2"/>
<feComposite in2="hardAlpha" operator="out"/>
<feColorMatrix type="matrix" values="0 0 0 0 0 0 0 0 0 0 0 0 0 0 0 0 0 0 0.25 0"/>
<feBlend mode="normal" in2="BackgroundImageFix" result="effect1_dropShadow_1_4396"/>
<feBlend mode="normal" in="SourceGraphic" in2="effect1_dropShadow_1_4396" result="shape"/>
</filter>
<filter id="filter1_f_1_4396" x="72" y="0" width="474" height="474" filterUnits="userSpaceOnUse" color-interpolation-filters="sRGB">
<feFlood flood-opacity="0" result="BackgroundImageFix"/>
<feBlend mode="normal" in="SourceGraphic" in2="BackgroundImageFix" result="shape"/>
<feGaussianBlur stdDeviation="50" result="effect1_foregroundBlur_1_4396"/>
</filter>
<radialGradient id="paint0_radial_1_4396" cx="0" cy="0" r="1" gradientUnits="userSpaceOnUse" gradientTransform="translate(500 374) rotate(-149.036) scale(195.337 674.114)">
<stop offset="0.120359" stop-color="#000406"/>
<stop offset="0.715435" stop-color="#00546D" stop-opacity="0.38"/>
<stop offset="0.903765" stop-color="#003BFA" stop-opacity="0.46"/>
</radialGradient>
<linearGradient id="paint1_linear_1_4396" x1="237" y1="335.5" x2="409.819" y2="304.633" gradientUnits="userSpaceOnUse">
<stop offset="0.411628" stop-color="#2F9EF0"/>
<stop offset="1" stop-color="#40D3FE"/>
</linearGradient>
<linearGradient id="paint2_linear_1_4396" x1="237" y1="335.5" x2="333.177" y2="335.383" gradientUnits="userSpaceOnUse">
<stop offset="0.411628" stop-color="#1E92FF"/>
<stop offset="1" stop-color="#3FACFE"/>
</linearGradient>
<linearGradient id="paint3_linear_1_4396" x1="226.5" y1="552" x2="626.479" y2="461.693" gradientUnits="userSpaceOnUse">
<stop offset="0.0401675" stop-color="#0194FE"/>
<stop offset="0.650747" stop-color="#5FEAFD"/>
</linearGradient>
<linearGradient id="paint4_linear_1_4396" x1="364.937" y1="179.051" x2="236.567" y2="139.868" gradientUnits="userSpaceOnUse">
<stop stop-color="white"/>
<stop offset="0.803412" stop-color="white"/>
</linearGradient>
<linearGradient id="paint5_linear_1_4396" x1="212.825" y1="62.9928" x2="245.696" y2="170.506" gradientUnits="userSpaceOnUse">
<stop offset="0.303689" stop-color="#35A5D5"/>
<stop offset="0.89827" stop-color="white"/>
</linearGradient>
<linearGradient id="paint6_linear_1_4396" x1="152.975" y1="368.808" x2="207.21" y2="282.669" gradientUnits="userSpaceOnUse">
<stop offset="0.303689" stop-color="white"/>
<stop offset="0.89827" stop-color="white"/>
</linearGradient>
<linearGradient id="paint7_linear_1_4396" x1="316.937" y1="239.051" x2="188.567" y2="199.868" gradientUnits="userSpaceOnUse">
<stop stop-color="white"/>
<stop offset="0.803412" stop-color="white"/>
</linearGradient>
<linearGradient id="paint8_linear_1_4396" x1="164.825" y1="122.993" x2="187.759" y2="222.166" gradientUnits="userSpaceOnUse">
<stop offset="0.303689" stop-color="white"/>
<stop offset="0.89827" stop-color="white"/>
</linearGradient>
<linearGradient id="paint9_linear_1_4396" x1="334.783" y1="307.578" x2="200.664" y2="302.425" gradientUnits="userSpaceOnUse">
<stop stop-color="white"/>
<stop offset="0.803412" stop-color="white"/>
</linearGradient>
<linearGradient id="paint10_linear_1_4396" x1="286.969" y1="201.051" x2="415.34" y2="161.868" gradientUnits="userSpaceOnUse">
<stop stop-color="white"/>
<stop offset="0.803412" stop-color="white"/>
</linearGradient>
<linearGradient id="paint11_linear_1_4396" x1="439.081" y1="84.9928" x2="406.21" y2="192.506" gradientUnits="userSpaceOnUse">
<stop offset="0.303689" stop-color="#35A5D5"/>
<stop offset="0.89827" stop-color="white"/>
</linearGradient>
<linearGradient id="paint12_linear_1_4396" x1="292.969" y1="312.051" x2="421.34" y2="272.868" gradientUnits="userSpaceOnUse">
<stop stop-color="white"/>
<stop offset="0.803412" stop-color="white"/>
</linearGradient>
<linearGradient id="paint13_linear_1_4396" x1="445.081" y1="195.993" x2="422.147" y2="295.166" gradientUnits="userSpaceOnUse">
<stop offset="0.303689" stop-color="white"/>
<stop offset="0.89827" stop-color="white"/>
</linearGradient>
<linearGradient id="paint14_linear_1_4396" x1="278.636" y1="479.661" x2="266.325" y2="378.618" gradientUnits="userSpaceOnUse">
<stop offset="0.303689" stop-color="white"/>
<stop offset="0.89827" stop-color="white"/>
</linearGradient>
<linearGradient id="paint15_linear_1_4396" x1="400.156" y1="314.461" x2="271.785" y2="353.644" gradientUnits="userSpaceOnUse">
<stop stop-color="white"/>
<stop offset="0.803412" stop-color="white"/>
</linearGradient>
<linearGradient id="paint16_linear_1_4396" x1="423.98" y1="407.037" x2="384.452" y2="313.235" gradientUnits="userSpaceOnUse">
<stop offset="0.303689" stop-color="white"/>
<stop offset="0.89827" stop-color="white"/>
</linearGradient>
<linearGradient id="paint17_linear_1_4396" x1="255.969" y1="299.461" x2="384.34" y2="338.644" gradientUnits="userSpaceOnUse">
<stop stop-color="white"/>
<stop offset="0.803412" stop-color="white"/>
</linearGradient>
</defs>
</svg>
