<svg width="64" height="65" viewBox="0 0 64 65" fill="none" xmlns="http://www.w3.org/2000/svg">
<rect x="4" y="4.5" width="56" height="56" rx="28" fill="#FCFCFC" fill-opacity="0.16"/>
<g clip-path="url(#clip0_1_4380)">
<path d="M26.8746 45.5508L27.3598 42.4685L26.2789 42.4434H21.1172L24.7043 19.6988C24.7154 19.6301 24.7516 19.5661 24.8045 19.5207C24.8574 19.4752 24.9251 19.4501 24.9956 19.4501H33.699C36.5883 19.4501 38.5823 20.0514 39.6233 21.2381C40.1114 21.7948 40.4222 22.3766 40.5725 23.0168C40.7303 23.6886 40.7331 24.4912 40.579 25.4701L40.5679 25.5415V26.1688L41.056 26.4453C41.467 26.6633 41.7936 26.9129 42.0441 27.1987C42.4617 27.6747 42.7317 28.2796 42.8458 28.9969C42.9636 29.7345 42.9247 30.6123 42.7317 31.606C42.509 32.7491 42.149 33.7447 41.6628 34.5594C41.2155 35.31 40.6458 35.9326 39.9694 36.4151C39.3236 36.8735 38.5563 37.2214 37.6888 37.4441C36.8481 37.6631 35.8896 37.7735 34.8384 37.7735H34.161C33.6767 37.7735 33.2063 37.9479 32.837 38.2606C32.4668 38.5798 32.2218 39.0159 32.1466 39.4928L32.0956 39.7703L31.2383 45.2029L31.1993 45.4024C31.1891 45.4654 31.1715 45.497 31.1455 45.5183C31.1223 45.5378 31.0889 45.5508 31.0564 45.5508H26.8746Z" fill="#FCFCFC"/>
<path d="M41.5182 25.6139C41.4922 25.78 41.4625 25.9498 41.4291 26.1242C40.2813 32.017 36.3546 34.0528 31.3395 34.0528H28.7861C28.1728 34.0528 27.6559 34.4981 27.5604 35.1031L26.253 43.3945L25.8828 45.7447C25.8206 46.1418 26.1268 46.5 26.5277 46.5H31.0565C31.5928 46.5 32.0484 46.1103 32.1329 45.5814L32.1774 45.3513L33.0301 39.94L33.0848 39.6431C33.1683 39.1124 33.6249 38.7227 34.1612 38.7227H34.8385C39.2263 38.7227 42.6613 36.9412 43.6652 31.786C44.0846 29.6325 43.8675 27.8343 42.7578 26.5696C42.4219 26.1882 42.0053 25.8718 41.5182 25.6139Z" fill="#000821"/>
<path d="M40.3174 25.1352C40.1421 25.0841 39.9611 25.0377 39.7756 24.996C39.5891 24.9552 39.3979 24.919 39.2012 24.8874C38.5128 24.7761 37.7584 24.7232 36.9502 24.7232H30.1286C29.9607 24.7232 29.8011 24.7612 29.6582 24.8299C29.3436 24.9812 29.1098 25.279 29.0532 25.6436L27.6021 34.835L27.5603 35.1032C27.6559 34.4982 28.1727 34.0528 28.786 34.0528H31.3395C36.3546 34.0528 40.2813 32.0162 41.429 26.1243C41.4633 25.9498 41.4921 25.78 41.5181 25.614C41.2277 25.4599 40.9131 25.3282 40.5745 25.2159C40.4909 25.1881 40.4047 25.1612 40.3174 25.1352Z" fill="#FCFCFC"/>
<path d="M29.0532 25.6436C29.1098 25.2789 29.3437 24.9811 29.6582 24.8308C29.802 24.7621 29.9607 24.7241 30.1286 24.7241H36.9502C37.7584 24.7241 38.5128 24.777 39.2012 24.8883C39.3979 24.9199 39.5891 24.956 39.7756 24.9969C39.9612 25.0386 40.1421 25.085 40.3175 25.136C40.4047 25.162 40.491 25.1889 40.5754 25.2158C40.9141 25.3281 41.2286 25.4608 41.519 25.6139C41.8605 23.4362 41.5162 21.9535 40.3388 20.6109C39.0407 19.1328 36.6979 18.5 33.7 18.5H24.9966C24.3843 18.5 23.8619 18.9454 23.7672 19.5513L20.1421 42.5297C20.0706 42.9843 20.4214 43.3945 20.8797 43.3945H26.253L27.6021 34.835L29.0532 25.6436Z" fill="#FCFCFC"/>
</g>
<defs>
<clipPath id="clip0_1_4380">
<rect width="28" height="28" fill="white" transform="translate(18 18.5)"/>
</clipPath>
</defs>
</svg>
